<svg version="1.0" xmlns="http://www.w3.org/2000/svg" width="553.333" height="553.333" viewBox="0 0 415 415"><path d="M3 1.3c0 .7.6 1.9 1.3 2.6 1 1.1.7 1.3-1.6.9L0 4.3v24.5c0 22.1.2 24.6 1.7 25.8 1.7 1.3 1.7 1.3.1 1.4C.1 56 0 57.6 0 74.7 0 91 .2 93.6 1.8 95.3c.9 1.1 1.2 1.7.5 1.4-1.9-1.2-2.7 1.5-.9 2.9 1 .7 1.5 1.8 1.1 2.4-.6.9-1 .9-1.6-.1-.6-1-.9-1-.9-.2 0 .6.5 1.5 1 1.8.8.5.7 1.1-.1 2.1-.8 1-.8 2.2-.1 4.4.7 1.8.7 3.2.1 3.5-.5.4-.9 2.8-.9 5.6 0 5 1.3 6.2 3.8 3.7.6-.6 2.7-1.7 4.6-2.3 3-1 4.1-.9 7.7.6 5 2.3 4.6 2.3 5.2.1.3-.9.4.2.4 2.5-.2 3.3-.7 4.5-2.4 5.4-1.6.9-2.3 2.2-2.3 4.1 0 4.3-1.7 7-4.1 6.3-1-.4-1.9-.2-1.9.3s-1.3.7-2.9.4c-1.6-.2-3.2.1-3.5.7-.4.6-1.6 1.1-2.7 1.1-1.8 0-1.9.9-1.9 27 0 25 .1 27 1.8 27 1.6.1 1.6.1-.1 1.4-1.5 1.2-1.7 3.4-1.7 21V238h2.8c3 0 5.5 1.3 5.2 2.6-.2.5 1 1.6 2.6 2.4 1.5.9 2.9 2.1 3 2.8.1.7 0 .8-.3.2-.2-.5-1.1-1-1.9-1-1 0-1.3.7-.8 2.4.5 2.1.2 2.3-2.5 2.2-3.1-.1-4.6-2.6-1.6-2.6.8 0 1.5-.5 1.5-1 0-2.1-4.4-7-6.2-7-1.7 0-1.8 1.4-1.8 20 0 19.3.1 20 2 20 1.1 0 2 .4 2 1 0 .5-.9 1-2 1-2 0-2 .5-1.9 40.5C.2 360.2.3 362 2 362c2 0 3.3 1.3 2.3 2.3-.3.4-1.4.2-2.4-.4-1.6-.8-1.9-.6-1.9 1 0 1.3.9 2.1 3.3 2.5 2.6.5 3.2 1.1 3.4 3.3.1 2.7.1 2.7-1.5.6-1-1.1-2.5-2.3-3.4-2.6-1.6-.6-1.8 0-1.8 4.6 0 2.9.5 5.8 1.1 6.4.8.8.8 1.3 0 1.7-.6.4-1.1 3.1-1.1 6 0 4.2.5 5.7 2.3 7.4 2.6 2.4 4.5 1.9 2.1-.5-.8-.9-1.2-1.8-.9-2.1.3-.3 1.3.1 2.2 1 1.4 1.5 1.8 1.5 4 .1 2.8-1.9 4.6-.7 1.9 1.2-1.1.9-1.6 2-1.2 3.1.4 1.2.2 1.5-.9 1.1-2-.8-2.8.8-1.1 2.2 1.1.9 1.5.9 1.9-.1.3-.7.6-.3.6.9.1 1.7-.3 2-2.2 1.5-1.8-.5-2-.3-1 .9.7.8 1 2.4.7 3.6-.5 1.9 0 2.2 4.7 2.8 4.4.6 5.5.5 6.6-1.1 1.5-2.1 1.2-6.6-.5-7.2-1.8-.6-2.7 2.8-1.3 4.9 1.4 2.3.3 2.5-4.6.7-3.8-1.4-4.2-2.5-1-3 2.3-.3 2.4-1 1.3-6.8l-.7-3.5 2.4 2.7c2.3 2.5 2.5 2.5 3 .7s-1.5-4.9-3.2-4.9c-.5 0-.6-1.2-.4-2.7.4-2.1.2-2.4-.6-1.3-.5.8-1.3 1.1-1.7.8-1-1.1.4-4 1.6-3.3.5.3 1 0 1-.8s-1.3-1.7-2.8-2c-3.8-.8-9.2-5.6-8.5-7.5.5-1.2.9-1.1 2.2.6.9 1.1 2.9 2.2 4.4 2.6 2.6.6 2.7.5 1.8-1.3-.6-1.1-.8-2.7-.5-3.5.5-1.2.2-1.5-1.2-.9-1.4.5-1.6.3-1.1-1.1.4-1 .7-1.9.7-2.1 0-.8 4.8 1.1 7.3 2.9l2.8 2.1L22 373c2.2-2.8 2.3-3 1.2-4.7-1-1.6-4.8-1.8-9-.5-3 1-3.4.9-4.4-1.4-1.3-2.7 0-4.4 3.3-4.4 1.1 0 1.9-1.2 2.3-3.3.6-2.9.2-3.6-3.5-7-2.2-2-4.4-3.7-4.7-3.7-.8 0-4.4-6.1-3.9-6.6.2-.2 1.7.9 3.4 2.5 2.8 2.5 3.1 2.6 4.1 1 .7-1 2-2.3 3.1-2.9 1.8-.9 2-.7 1.8 1.7-.2 2-.8 2.8-2.2 2.8-1.1 0-2 .6-1.9 1.3.2 2.9.4 3.5 1.1 2.9.3-.4 1.3.2 2.1 1.4 1.8 2.5 5 2.1 7-.9 1.5-2.4 1.5-2.4-2.1-1.7s-3.7.6-2.9-1.6c.5-1.3 1.4-2.5 2-2.7.8-.2 1 .3.5 1.5-.6 1.6-.5 1.7 1.3.3 4-3.1 5.2-7.3 2.8-9.8-.8-.7-1.4-1.9-1.4-2.5 0-.7.5-.4 1.1.6.7 1.2 1.4 1.5 2.2.9.9-.8 1.3.2 1.4 3.6.1 2.5.7 5 1.2 5.5s.7 2.5.4 4.4c-.5 2.7-.2 3.7 1.6 4.9 2.7 1.9 4.8 5.6 2.8 4.8-.9-.3-1.7.3-2 1.6-.4 1.5 0 2.3 1.6 2.9 3.2 1.3 4.2 1.2 4.3-.2 0-.6.4-2 .8-2.9.9-2.1 0-3.8-2-3.8-.8 0-1.4-.3-1.4-.6 0-1.2 4.9-5.2 7.1-5.9 1.5-.5 1.8-1 1-1.8-1.3-1.3-1.5-4.7-.3-4.7 1.4 0 4 3.3 5.7 7.2.8 2 2.3 4.2 3.2 4.7 1 .6 1.3 1.1.6 1.1-1.6 0-1.1 5.2.5 5.8.6.2 1.3-.1 1.3-.7.1-.6.3-1.6.4-2.1.1-.6.3-1.7.4-2.5.1-1.1 1.3-1.5 4.1-1.5s4-.4 4-1.4c0-1.1-.8-1.2-3.3-.6-3.4.7-9.6-.8-6.7-1.7 4.7-1.4 4.5-1.3 3-2.4-1.3-.8-1.3-1.1.2-2.3 1-.7 1.8-2.1 1.8-3 0-1.9.4-2 3.1-.6 2.9 1.6 2.4-.6-.7-2.6-1.7-1.1-2.2-2-1.5-2.7.7-.7 1.8-.4 3.5.7 3 1.9 3.2 1.3 1.2-2.7-.8-1.5-1.1-2.7-.6-2.7 1.5 0 4.2-6 3.5-7.8-.5-1.3-.2-1.2 1.3.3 1.7 1.7 1.8 2.2.6 3.6-.8.8-1.4 2.3-1.4 3.2 0 .9-.5 1.9-1 2.2-.6.3-1 1.2-1 1.8.1 1.4 7 9.1 7.6 8.4.3-.3.7-2 .9-3.8.3-1.8 1.2-3.7 2-4.2 1.4-.7 1.3-1.3-1.1-4.4-1.9-2.4-2.3-3.8-1.6-4.5.8-.8 1.5-.3 2.3 1.6 1.1 2.2 1.4 2.4 2.1 1.1 1.5-2.7 2.6-.8 2.3 4.2-.3 6.4-.3 6.3-2 6.3-2.1 0-1.9 1.7.3 2.3 1.4.4 1.4.6-.5 1.2-1.3.4-2.3 1.4-2.3 2.2 0 .8-.4 1.2-.8.9-.4-.2-1.4-.1-2.2.5-1.3.7-1.2.9.3.9 2.4 0 2.1 2.7-.4 3.3-1.2.3-1.8 1-1.4 1.6.3.6 1.1.9 1.6.6.5-.4.9.3.9 1.4 0 2.6-1.7 2.7-4.3.4-1.5-1.3-2.1-1.5-2.4-.6-.3.7-1.4 1.3-2.5 1.3-1.7 0-1.8.3-.8 1.5s1 1.5-.4 1.5c-.9 0-1.6.4-1.6.9s2.4.8 5.2.7c4-.1 5.3.3 5.5 1.4.5 2.6-1.4 4.3-4.6 4.3-3.3 0-3.8.6-2.1 2.3 1.2 1.2.2 4.7-1 3.9-.5-.3-1.1-.1-1.5.5-.3.5.3 1 1.4 1 1.2 0 2.1-.6 2.1-1.3 0-.7.8-1.7 1.9-2.4 2-1.2 2-1.6-.4 9.7-1 4.3-2.3 7-3.5 7-.6 0-.6-.9 0-2.5 1-2.7-.6-4.7-2-2.5-.4.7-1.7 1-2.9.7-2.4-.6-2.9 1.4-.7 3.2 1.2 1 1.2 1.6 0 3.9-2 3.8-1.8 6.3.4 5.5.9-.4 2.3-1.5 3-2.5 2.3-3.2 3.1-2 2.5 4-.6 6.9-3.1 13.2-4.4 11.1-.6-1-.9-.6-.9 1.3 0 3 .9 3.5 2.8 1.6.9-.9 1.2-.8 1.2.5 0 1.6 5.2 1.7 77.3 1.7h77.4l-.5-3c-.3-2.3 0-3.1 1.4-3.6 1.1-.3 2.8-1 3.8-1.6 1.5-.8 1.8-.7 1.3.5-.4 1 0 1.4 1.1 1.3 2-.3 4.1 2.1 4.2 4.6 0 1.8 3 2.6 3 .9 0-.5-1.5-4.6-3.4-9.2-1.8-4.6-5.2-14.2-7.6-21.4-3.7-11.2-4.4-14.7-5-25.5-.8-12-.6-15.8.7-11.2.9 3.6 2.3 2.5 2.3-1.7 0-2.2.5-4.3 1-4.6 1.4-.9 1.2-4.6-.4-9.3-1.1-3-1.2-4-.2-3.6 1 .4 11 19.3 15 28.4 3.8 8.7 21.6 50.9 23.1 54.7 1.6 4 2 4.3 5.5 4.3 3.6 0 4.1-.4 7-5.2 8.9-14.9 12-20.4 12-21.3-.1-1-2.7 1.8-5.7 6-1.3 1.9-1.5 1.9-2.4.2-1.3-2.2-2.9-2.2-2.9 0 0 1.5-.4 1.3-2.2-.7-4.2-4.7-6.9-9.1-7-11.3-.1-1.2-.5-2.7-.8-3.2-1.3-1.9-.9-7.3.6-7.9.9-.3 1.4-1.9 1.4-4.2 0-4.2-3.1-8.2-17.3-22.6-11.8-12-18.3-20.8-17.3-23.4.7-1.9 2.6-1.8 2.6.1 0 .9.6 1.2 1.5.9.8-.4 2.2-.1 3 .6 2.4 2 8.4.2 13.5-4.1 2.5-2.1 5.4-3.9 6.3-3.9 1 0 2-.7 2.3-1.5.4-.8 1.5-1.5 2.6-1.5s2.6-.7 3.5-1.6c.9-.8 2.2-1.3 2.9-1 .7.3 1.6.1 1.9-.4.7-1.2 6.5-4 8.2-4 .7 0 1.3-.8 1.3-1.9 0-1 .7-2.4 1.5-3.1.8-.7 1.5-2.3 1.5-3.6 0-1.5.6-2.4 1.6-2.4 1.1 0 1.3-.6.9-1.9-.4-1.3.1-2.4 1.7-3.5 1.7-1.2 1.8-1.6.6-1.6-2.7 0-2.8-3.7-.2-7.1 1.3-1.8 2.4-4.3 2.4-5.6 0-1.4.6-2.3 1.5-2.3s1.5-.9 1.5-2.3c0-1.3.9-3.2 2.1-4.3 1.4-1.3 1.9-2.7 1.7-4.6-.3-1.8 0-2.8.8-2.8.7 0 1.4-.5 1.6-1.1.2-.7 3.1-1.2 7.1-1.3 4.6-.1 6.7-.5 6.7-1.4 0-.6-.6-1.2-1.2-1.2-.7 0 .3-1 2.2-2.3 3.2-2 3.3-2.2 1.3-2.5-1.2-.2-3.6.7-5.3 2-2.3 1.6-4.4 2.3-7.5 2.2-4.9-.1-7.2-1.5-8.6-5.3-.8-1.8-1.3-2.1-2.1-1.3-1.3 1.3-1.4 2.7-1.7 12.7-.1 3.3-.6 6.7-1.1 7.5-.9 1.3-1.2 1.2-2.5-.4-1.4-1.9-1.5-1.7-1.5 2.2 0 2.3-.4 4.2-.9 4.2s-1.1.9-1.4 2c-.3 1.1-1.9 2.5-3.6 3.1-1.7.6-3.1 1.7-3.1 2.5s-.5 1.4-1 1.4c-.6 0-2 1.6-3.1 3.5-1.2 2-2.9 3.5-4 3.5-1 0-1.9.6-1.9 1.4 0 3-10.8 12.8-17.2 15.6-1.3.6-5.4 3-9.3 5.5-3.8 2.5-8.2 5-9.7 5.6-1.4.6-2.9 1.7-3.2 2.5-.3.8-1.2 1.4-2.1 1.4-.8 0-1.5.3-1.5.8 0 1.3-6.4 3.7-10 3.7-2.4 0-3.5.5-3.5 1.4 0 .8-1.6 1.9-3.5 2.4-4.6 1.2-17.6.2-20.3-1.6-1.2-.8-4.6-2.2-7.5-3.1-6.5-2.2-9.6-6.4-11.4-15.1-.9-4.6-1.9-6.7-4.5-9.1-1.8-1.7-3.6-4.5-3.9-6.1-.3-1.6-1.9-4.4-3.5-6.2-1.6-1.9-2.9-4.2-2.9-5.1 0-1-.7-3.6-1.5-5.9l-1.4-4.1h4.4c2.4 0 4.6.4 5 .9.6 1.1 4.5 1 4.5 0 0-.4 1.5-.5 3.4-.2 4.7.7 10.3-.4 11-2.3.5-1.2.1-1.4-1.7-.7-2.1.8-8.1.8-17.7.1-2.5-.2-6.7 0-9.3.4-4.5.7-5.1.6-7.8-2.1-3.3-3.4-3.9-8.6-1.6-16.2 1.6-5.1 1.4-6.2-1.9-9.4-1.9-2-2.4-3.4-2.4-7.8 0-3-.7-7.4-1.5-9.7-1.9-5.4-1.9-9.3 0-13 .8-1.6 1.4-5 1.3-7.5 0-2.5.1-4.8.4-5.1.3-.3 1.6 1.1 2.8 3 2.1 3.5 4.1 4.3 7.4 3 1.2-.4-.5-2.5-6.6-8.2-4.4-4.3-8.9-7.9-10-8.2-1.1-.3-1.9-1-1.9-1.5.1-1.6-4.9-2.5-7.1-1.2-1.1.7-2.8 2.9-3.9 4.9-2 3.9-5.9 5.4-5.9 2.3 0-.8-.5-1.5-1.1-1.5-.5 0-.9.8-.7 1.8.2 1.1-.1 2-.7 2.1-.5.1-1.1-.7-1.3-1.8-.3-1.6-.9-1.9-3.7-1.4-2.7.4-3.4.2-3.8-1.3-.3-1.3-.5-.9-.7 1.1-.1 1.6-.4 2.4-.7 1.7-.2-.6-1.1-1.2-1.9-1.2-.8 0-1.1-.6-.8-1.5.5-1.2-.2-1.5-3-1.5-3 0-3.6-.4-3.6-2.1 0-1.6-.4-1.9-2-1.4-1.4.5-2 .2-2-1 0-.9-.7-1.5-1.6-1.3-1 .2-1.9-.3-2.2-1.1-.3-1 0-1.2 1.2-.8 1.4.5 1.6.3 1.1-1.2-.8-2.5.5-5.7 1.6-4 .6 1 1.1 1 2.3 0 .9-.8 1.6-1.7 1.6-2.1 0-1.2-5.3-1.9-7-1-.9.5-2.4.1-4.2-1.2-3.4-2.4-2.8-4 1-2.8 1.8.4 3.9.3 5.8-.5 1.6-.6 3.8-.9 4.9-.7 2 .5 2 .5.2-1.6-1.8-2-1.8-2.1 0-4.6 1-1.4 2.4-2.6 3.1-2.6 1.6 0 1.5 1-.3 3.4-1 1.4-1.1 2.4-.4 3.8.6 1 .7 2.8.4 3.9-.6 1.7-.3 2 1.2 1.7 1-.2 1.9-1.3 2.1-2.6.4-2.6 1-2.7 3.2-.7 1.4 1.3 1.8 1.2 3.3-.5.9-1.1 1.2-2.1.7-2.1-.6-.1-1.6-.2-2.2-.3-1.7-.1-2.2-3.4-.9-5 .9-1 .8-1.5-.4-2-.8-.3-1.5-1.2-1.5-2.1 0-1.3-.5-1.3-3.7.2-5.6 2.5-7.3 4.3-7.3 7.5 0 1.5-.4 2.8-.9 2.8s-.8-1.8-.7-4c.2-2.4-.1-4-.8-4.1-.6 0 0-.5 1.4-1.1 2.5-1.1 2.5-1.1.3-1.5-1.3-.3-2.3-.9-2.3-1.5s-.6-.6-1.5.2c-.9.7-1.5 2.9-1.5 5.1 0 3.2-.4 4.1-2.3 4.8-1.3.5-3.5.7-5 .4-2.7-.5-3.9 1.1-1.4 2 .9.3.9.8.1 1.6-.8.9-1.7.7-3.5-.8l-2.4-1.9 2.8-1.1c1.6-.6 3.2-1.1 3.6-1.1.4 0 1.6-.6 2.6-1.4 1.8-1.3 1.5-1.4-2.7-1.1-2.5.1-5.1.6-5.7.9-1.7 1.1-1.3-2 .4-3.8.8-.8 1.5-1.9 1.5-2.5 0-1.4 1.7-1.4 2.5-.1.8 1.4 4.5 1.3 4.5-.1 0-.6.6-.9 1.3-.6.9.3 1.8-.8 2.6-2.9 1.5-4 .5-6.4-1.5-3.7-1.1 1.5-1.3 1.6-1.4.2-.1-4.3-4-8.8-8-9.4-.3 0-1.1-.4-1.8-.9-1.1-.6-1-1 .1-1.9 1.7-1.3 2.9-5.8 2.8-10 0-2.1.3-2.7 1.4-2.3.8.3 1.5.2 1.5-.3s-1.1-1.1-2.5-1.3c-2.3-.5-2.5-.2-2.5 3.4 0 2.4-.4 3.7-1 3.3-.6-.4-1 .6-1 2.2 0 4.1-1.1 5.1-3.8 3.7-1.5-.7-2-1.4-1.3-1.8 1.2-.8 1.4-5.7.5-9.3-.4-1.3-1-2-1.6-1.7-.5.3-1.5 0-2.3-.6-.9-.8-2.5-.9-4.2-.5-2.8.8-2.7.8 1.2 1.7 2.9.6 4.3 1.6 5.2 3.5 1.7 3.6 1.6 5.4-.2 4.7-1-.4-1.5 0-1.5 1.1s-.6 1.5-1.8 1c-1.1-.3-3 .3-4.5 1.5-2.4 1.9-2.6 2-3.6.3s-1-1.7-1.1.1c0 1.7-.3 1.6-2.6-.8-1.5-1.4-3-2.6-3.4-2.6-1 0 0 3.9 1.1 4.6.5.3.9 1.8.9 3.5 0 1.6.5 2.9 1 2.9.6 0 1 .5 1 1 0 .6-.8.5-1.9-.2-1.6-1-2.3-.9-3.9.5-1 .9-2.2 1.7-2.6 1.7-1.3 0-.1-8.3 1.3-8.8 1-.3 1.2 0 .8 1.2-.7 1.7.8 2.3 1.8.7.6-1.1-1.5-6.1-2.6-6.1-.4 0-1.1.4-1.4 1-.9 1.4-6.6 1.2-9.8-.3-3.8-1.7-3.3-2.6 1.1-2.2 2 .3 2.9.2 2-.1-1-.3-1.8-1-1.8-1.6 0-.5-.7-.8-1.5-.5-1.2.5-1.1 0 .3-3 1.5-3.1 1.7-3.3 2-1.5.2 1.2.8 2.2 1.3 2.2s1.8.9 3 2.1c2.6 2.6 3.1 2.1 2-1.9-1.2-4-.6-4.1 1.4-.2 1.6 3.2 5.5 4.2 5.5 1.4 0-.8-.4-1.3-.8-1-.4.2-.9-.4-.9-1.5-.2-2.3 1-2.5 2.7-.4.9 1.1 1.6 1.3 2.4.5 1.2-1.2 2.9-1.4 2.2-.2-.2.4.4 1.3 1.5 2 1.6 1 1.9.9 1.9-.3 0-.8.7-1.5 1.5-1.5s1.5-.5 1.5-1c0-.6-.8-1-1.8-1s-2.4-.9-3.2-2c-.9-1.3-2.6-2-4.7-2-2.3 0-3.3-.5-3.3-1.5 0-.9.9-1.5 2.1-1.5 2 0 2.1-.4 1.5-4.8-.6-4.3-.5-4.6.9-2.8.8 1.1 1.5 2.3 1.5 2.8 0 .4.7.8 1.5.8s1.5-.5 1.5-1c0-.6.9-.1 2 1 1.4 1.4 3.3 2 6.5 2 4.8 0 5.5.9 2.8 3.5-1.6 1.6-1.5 1.7.3 1.4 1-.2 2.4-1.4 2.9-2.7.6-1.5 1.6-2.1 2.8-1.8.9.2 1.7 0 1.7-.6 0-.5.5-.6 1-.3.6.4.4 1.2-.5 2.1-2.2 2.2-1.9 3.7.5 2.4 1.4-.8 2.6-.8 4 0 1.7.9 2 .8 2-1.3 0-1.9.7-2.6 2.6-3 2.1-.4 2.5-.1 2.1 1.4-.4 1.4.2 2 2.8 2.5 1.8.3 4.1.4 5.1.3 1.1-.2 2.5 0 3.2.4.7.5 1.9.2 2.8-.7 1.4-1.5 1.4-1.6-.5-1.6-1.2 0-2.1-.5-2.1-1 0-.6 1.2-1 2.6-1 2.7 0 2.8-.3.9-5.5-.6-1.6-.2-1.5 1.6.6 3.1 3.5 6.9 4.5 6.9 1.8 0-1 .7-1.9 1.5-1.9 2.7 0 1.5-1.9-2.8-4.5-5.3-3-5.7-3.1-5-.5.3 1.1.1 2-.5 2s-1.7.3-2.6.6c-1 .4-1.6.1-1.6-.9 0-.8-1-1.7-2.2-2-2.4-.7-4.8.8-4.8 2.9 0 2.2-2.1 1.6-2.7-.7-.5-1.6-1.2-1.9-4.2-1.7-2.9.2-3.7.8-3.9 2.5-.2 1.3-.6 2.4-1 2.4-2.8.6-10.2.3-10.2-.3 0-1.4-2.3-.9-4.3.9-1.8 1.7-1.8 1.7-.6-1 .7-1.5 1.6-2.7 2-2.7 2 0-1.1-4.4-4.1-5.9-1.8-.9-3.5-2.2-3.8-2.9-.5-1.5 3.4-1.6 4.4-.1.4.8.9.7 1.6-.2.7-1.1 1.1-1.1 1.5-.2.2.7.8 1.3 1.2 1.3 1.1 0 .7-4.3-.7-6.7-1.9-3.3-1.4-5.1.7-2.4l1.8 2.4.7-2.7c.3-1.4 1.2-2.6 1.8-2.6.9 0 .9.3 0 1.2-1.4 1.4-1.6 3.8-.2 3.8.5 0 1.5-.6 2.2-1.3.6-.8 2.2-1.1 3.5-.9 1.6.3 2.3 0 2.3-1.2 0-.9-.6-1.6-1.4-1.6-1.5 0-2.8-2.4-1.9-3.4 1.3-1.3 5.4-.5 7.3 1.4 1.2 1.2 2.6 2 3.3 1.9 2.4-.3 3.7.1 3.7 1.2 0 .5-.5.7-1 .4-.5-.3-1-.2-1 .4 0 1.8 1.8 2.1 2.4.5.3-.9-.1-3.1-1-5-1.9-4-1.2-5.4 1.7-3.5 1.2.7 2.3 1 2.6.7.3-.2-.1-3-.7-6.1-.6-3.1-.9-6.2-.6-7 .7-1.9-3.3-1.6-5.7.3-1.5 1.3-2.3 1.3-5.8.2-3.5-1.2-4.6-1.2-8.5.3-4.3 1.6-6.1.8-2.7-1.2 1.7-.9 1.6-1.1-.3-2.8-1.1-1-2.3-2.5-2.7-3.3-.3-.9-.6-1-.6-.3-.1.7-1 1.3-2.2 1.3-1.5 0-1.9.5-1.5 1.5.4 1.3.2 1.4-1.5.5-1.1-.6-1.7-1.5-1.4-1.9.2-.5-.1-1.4-.9-2-1-.9-2-.9-4 0-2.8 1.3-5 .4-2.6-1.1.8-.5 1.1-1.2.8-1.5-1.1-1.1-2.8.5-2.8 2.6 0 2.5-1.6 2.5-2.3 0-.3-1.4-1.1-1.8-2.6-1.4-2.9.8-2.7-1.5.3-2.7 1.3-.5 2.7-1.4 3.2-2.1.4-.8.3-1-.4-.5-.6.4-2-.2-3-1.2-1.1-1.1-2.5-2.1-3.2-2.4-.9-.3-.9-1 .1-3.1 1.5-3.2 2.5-3.4 3.4-.7.5 1.5 1.2 1.9 2.5 1.5 1-.3 2.1-.1 2.5.5.9 1.4 2.6 1.3 2.4-.3-.1-.6.3-2.5 1-4.1.8-2.1.9-3.2 0-4.2-.6-.8-.9-2.3-.6-3.3.3-1.1-.2-2.9-1-4-1.1-1.7-1.1-2.1-.1-2.1 1.7 0 3.9 5 3.3 7.5-.7 2.7 1.2 5.5 2.4 3.7.5-.9 1 .3 1.5 3.7.4 2.7 1.1 5.3 1.6 5.6 1.6 1 1.2 4.5-.5 4.5-.8 0-1.5.4-1.5 1 0 .5.7 1 1.5 1s1.5-.5 1.5-1c0-.6.7-1 1.5-1 2.1 0 1.9-2.7-.5-4.7-1.4-1.2-2-3-2-5.6 0-3.3.2-3.7 1.4-2.8.8.7 1.7 2.4 2.1 3.9.7 2.9 4.2 7.2 5.8 7.2.5 0 .4-.7-.3-1.5-1.8-2.2-.8-2.7 2.4-1.2 2.2 1 2.6 1.7 2.2 3.9-.3 1.6-.1 2.8.4 2.8.6 0 1 1 1 2.1 0 1.8-.3 1.9-1.5.9-.8-.6-2.5-1.3-3.8-1.4-1.8-.2-2.4.2-2.3 1.6.1 2.1 6.9 5.2 9.4 4.3.7-.2 2.3 0 3.7.5 1.8.7 2.4.6 2.2-.2-.1-.7.7-1.4 1.8-1.6 1.1-.2 2.4-.8 2.8-1.2 1.1-1-5.9-3.4-7.8-2.6-1.8.7-1.9.2-.3-2.4 1.5-2.4.4-3.7-1.7-2-1.2 1-1.5 1-1.5-.4 0-1 .5-1.4 1-1.1 1.6 1 1.1-1.8-.9-5.1-2.1-3.5-3.3-14-1.5-13.7.6.1 1-1.1.9-2.8-.1-1.6.2-2.9.7-2.9.4 0 .8 1.1.8 2.5s.7 2.8 1.5 3.2c1.4.5 1.4.7.1 2.2-1.5 1.6-1.7 5.2-.3 5.1h1.8c.6 0 1-1 .9-2.3-.1-1.2-.2-2.9-.1-3.7.2-2.3 3.1 1.9 3.1 4.5 0 2.1 1.7 4.5 3.2 4.5.5 0 .2-1.3-.6-2.8-2-4-3.1-10.2-1.7-10.2.6 0 1.1.7 1.1 1.5s.4 1.5 1 1.5c.5 0 1 1 1 2.2.3 10 1.1 12.4 2.9 9 .7-1.3 1.7-1.8 3-1.5 1.3.3 2.3-.2 3.1-1.6 1.3-2.6 3-1.9 3 1.3 0 2 .5 2.3 3.9 2.3 3.1 0 4.5.7 6.5 2.9 2 2.3 2.5 2.5 2.6 1.1 0-.9.7-1.7 1.5-1.7.7 0 1.9-.8 2.4-1.8 1-1.6 1.2-1.6 2.6.2 1.5 2 1.5 2 1.6 0 0-1.1.7-.3 1.6 2.1.9 2.2 2 4.2 2.4 4.5.4.3.1 1.3-.6 2.4-1.6 2.2-3.9 1.1-3.2-1.5.4-1.5.2-1.7-1.3-.9-2.4 1.3-5.1 1.4-3.1.1.8-.5.9-1.1.3-1.5-2.2-1.3-2.4 1.7-.3 3.4l2.3 1.6-2.6 1.8c-1.5.9-3.1 1.4-3.6 1.1-.6-.3-1-.2-1 .3 0 .4 1.6 1.6 3.6 2.5 1.9 1 3.2 2.2 2.9 2.8-.4.5-.1 1.7.6 2.5.6.8 1 1.6.7 1.9-.7.7-4.8-.7-4.8-1.6 0-.5-.9-.9-2-.9-2.6 0-4.4 6.1-2.8 9.6.8 1.7 1.4 2.1 1.9 1.2.4-.7.3-1.8-.2-2.5-1.1-1.3-.4-3.3 1.2-3.3.5 0 .9.6.9 1.4 0 .8 1.4 1.9 3.1 2.5 4.1 1.4 4.4 1.4 3-.2-1.3-1.6-.5-2.7 2.1-2.7 2.2 0 2.4-2.5.3-3.4-2.1-.8-1.9-2.9.5-4.4 2.4-1.5 2.6-4 .4-3.8-.9 0-1.9-.6-2.1-1.4-.4-1.2-.3-1.2.5-.2.7 1.1 1 .9 1.5-.7.4-1.8 1.1-2.1 4.1-1.8 2 .3 3.9.1 4.1-.3.2-.4-1.1-2.2-3-3.9-2.9-2.6-3.4-3.7-3.1-6.4.4-3.1.2-3.3-2.9-3.3-4.6 0-10.6-3.4-10-5.5.4-1-.6-2.9-2.6-4.8-2.6-2.7-3.7-3.1-6.1-2.6-2.3.6-3.3.2-4.4-1.4-1.5-2.1-4.1-3-2.9-1 .4.6 0 .9-1.1.7-1.5-.2-1.9.3-1.7 2.4.1 1.6-.2 2.8-.6 2.8-1.1 0-2.9-2.1-3.3-4-.2-.8-.9-2-1.6-2.5-2.5-2-.4-4.1 4.1-4.2 8.5-.1 13.2-4.3 11-9.9-.4-1.1.1-2.2 1.3-3.1 1.9-1.4 1.9-1.4-.1-2.6-2.6-1.5-5.7-1.7-7.2-.5-1 .8-1.3.5-1.3-1.2 0-1.5-.5-2-1.7-1.8-1 .2-1.7 1-1.6 1.6.2.7-.4 1.2-1.2 1.2-.8 0-1.5.4-1.5 1 0 .5.6 1 1.3 1 .8 0 .7.3-.3.9-.8.6-1.8.7-2.2.5-.4-.3-.8 0-.8.7 0 .8-.4.8-1.6-.2-1.2-1-2-1-3.5-.1-1.1.7-1.9.8-1.9.2 0-.5-.7-1-1.5-1-.9 0-1.5-.9-1.5-2.1 0-1.5-.5-1.9-1.6-1.5-.8.3-1.3.2-1-.3.3-.5 0-1.4-.8-2-1.6-1.3-4.9-.4-3.9 1.2.4.6 0 .8-1 .4-.9-.3-2.9-.2-4.6.3-1.6.4-3.2.5-3.4.2-.2-.4-.3-.2-.1.4.1.6-.2 1.7-.8 2.5-.7 1.1-1.1 1.1-1.5.1-.9-2.3-2.5-1.2-2 1.4.3 1.8.1 2.4-.9 2-.8-.3-1.4-.1-1.4.4 0 2.5-3 .6-4-2.5-.7-2.1-1.6-3.2-2.2-2.9-.6.4-1.8-.2-2.5-1.2-1.4-1.9-1.5-1.9-1.1 0 .1 1 1.2 2.4 2.3 3 1.1.6 2.2 1.2 2.5 1.4.2.2-.2.7-1 1.2-1 .6-2.3.4-3.9-.7-2.3-1.5-2.4-1.5-1.9.9.4 2.1.1 2.5-2.4 2.5-3.3 0-3.5-1-.7-3.8 1.1-1.1 1.8-2.7 1.5-3.7-.7-2-5.2-4.3-7.1-3.6-.8.4-2-.8-3-3-1-2-2.1-3.6-2.6-3.6-1.6 0-.9 2.6 1.6 6 1.4 1.9 2.5 4.1 2.5 5 0 .9.5 2.1 1.2 2.8.6.6.8 1.5.4 1.9-.9.9-3.6-2.5-3.6-4.5 0-.9-2.4-3.7-5.2-6.3C13 .5 12 0 7.8 0 4.5 0 3 .4 3 1.3zM12.8 4C14 5.2 15 6.7 15 7.5c0 .8.6 1.5 1.3 1.5.6 0 2.1.8 3.2 1.7 2 1.6 1.6 1.6-3-.3-1-.4-1.5 0-1.5 1.1 0 2.4-2.4.3-4.5-3.8C7.7 2.2 8.9.4 12.8 4zm-5.6 9.2c-.7.7-1.2.8-1.2.2 0-1.4 1.2-2.6 1.9-1.9.2.3-.1 1.1-.7 1.7zm58.5-.2c1.4 1.1 3.2 2 3.9 2 .8 0 1.4.5 1.4 1.1 0 .6-.8.8-1.7.5-1-.2-3.3-.7-5-1.1-3.1-.6-4.2-2.3-2.6-3.8.9-1 1.2-.9 4 1.3zm-55.4 3c-.7 2.8-1.3 2.5-1.3-.6 0-1.4.4-2.3.9-2 .5.3.7 1.5.4 2.6zm10.7-.6c2.1.8 2.8 1.6 2.1 2.1-1.8 1.1-6.1-.3-6.1-2 0-1.8 0-1.8 4-.1zm66.4.1c.3.9 0 1.5-.9 1.5s-1.2-.6-.9-1.5c.4-.8.7-1.5.9-1.5.2 0 .5.7.9 1.5zM58.3 17c1.5.7 2.7 1.9 2.7 2.7 0 .7.5 1.3 1.1 1.3.5 0 .7.5.3 1.1-.5.8-1 .6-1.6-.5-1.2-2.2-2.1-2-6.8.9L50 25l-.6-2.6c-.9-3.6 1.2-5.6 3.2-3 1.2 1.6 1.6 1.8 2.7.7.9-1.1.9-1.4 0-1.8-.7-.3-1.3-1.1-1.3-1.9 0-.9.3-1.4.8-1.2.4.2 1.9 1 3.5 1.8zm18.3.4c1 .8 1.7 1.7 1.4 2-1 1-5-.6-5-2 0-1.8 1.1-1.8 3.6 0zM87 20.1c0 .4-1.1.9-2.4 1.1-1.8.4-2.7-.1-3.5-1.9-.6-1.3-1.1-2.6-1.1-2.8 0-.7 6.9 2.9 7 3.6zm-43.6 2.6c-2.4 2.4-4 1.5-3.6-2l.4-3.4 2.3 2.1c1.9 1.6 2 2.2.9 3.3zM20 21c0 1.1-.2 2-.4 2s-.6-.9-.9-2c-.3-1.1-.1-2 .4-2s.9.9.9 2zm16.6 1.5c2 4.9 1.8 5.1-2 1.3-3.4-3.3-3.7-4.8-1-4.8.8 0 2.2 1.6 3 3.5zM91 20c0 .5-.4 1-.9 1-.6 0-1.3-.5-1.6-1-.3-.6.1-1 .9-1 .9 0 1.6.4 1.6 1zm-23.5 4c.3.5.2 1-.4 1-.5 0-1.3-.5-1.6-1-.3-.6-.2-1 .4-1 .5 0 1.3.4 1.6 1zm10.3.8c.2.7-.2 1-1.2.6-.9-.3-1.6-1.1-1.6-1.6 0-1.3 2.3-.5 2.8 1zM20 27c0 .5-.5 1-1.1 1-.5 0-.7-.5-.4-1 .3-.6.8-1 1.1-1 .2 0 .4.4.4 1zm15.6 2.6c.7 2.8-1.8 6.5-3 4.5-.4-.6-.2-1.1.3-1.1 1.5 0 1.4-3.3-.1-4.8-.9-.9-.8-1.2.5-1.2 1 0 1.9 1.1 2.3 2.6zm19.7-1.9c-.7.2-1.3 1.5-1.3 2.8 0 3.8-4.9 4.1-5 .3 0-1.1 4.3-3.8 6-3.7 1 0 1.1.2.3.6zm8.7.1c0 1-5.9 6.2-7.1 6.2-1.6 0-1-1.2 2.1-4.1 2.9-2.8 5-3.7 5-2.1zm-61 .6c0 .3-.4.8-1 1.1-.5.3-1 .1-1-.4 0-.6.5-1.1 1-1.1.6 0 1 .2 1 .4zm73.8 2.4c1.4 2.1 1.3 2.2-.4 1.6-2.9-1.1-4.4-2.5-3.8-3.6.8-1.3 2.5-.5 4.2 2zM9.7 32.2c-.3.7-.5.2-.5-1.2s.2-1.9.5-1.3c.2.7.2 1.9 0 2.5zM63.5 34c.8 1.3-.5 1.3-2.5 0-1.3-.8-1.3-1 .2-1 .9 0 2 .4 2.3 1zm-57 2c-.3.5-1.4 1-2.3 1-1.5 0-1.5-.2-.2-1 2-1.3 3.3-1.3 2.5 0zm82.2 5.2c.3 1.7.1 1.9-1.1.9-.8-.7-1.2-1.9-.9-2.7.7-1.8 1.6-1 2 1.8zM17 41c0 .5-.4 1-1 1-.5 0-1-.5-1-1 0-.6.5-1 1-1 .6 0 1 .4 1 1zm44.4.4c1.6-.6 4 4 3.3 6-.9 2.2-3.6.9-4.3-2.1-.5-1.8-1.2-2.3-2.5-2-1.2.3-1.9 0-1.9-.8 0-1.6 2.2-2.6 3.4-1.5.5.5 1.4.6 2 .4zm35.6-1c0 .3-.4.8-1 1.1-.5.3-1 .1-1-.4 0-.6.5-1.1 1-1.1.6 0 1 .2 1 .4zm2.6 2.3c-1 1-1.9-.5-1-1.8.6-1.1.8-1.1 1.2 0 .2.7.1 1.5-.2 1.8zM11 44.6c0 .2-.9.4-2.1.4-1.1 0-1.8-.4-1.4-1 .5-.8 3.5-.3 3.5.6zm24-1.2c0 .3-.4.8-1 1.1-.5.3-1 .1-1-.4 0-.6.5-1.1 1-1.1.6 0 1 .2 1 .4zm-14.6 3.5c-.5 2.2-.1 3.2 2 4.8 4.7 3.8 2 4.7-3.8 1.3-4.2-2.5-5.2-4.7-2.5-5.5 1-.4 1.9-1.3 1.9-2.1s.7-1.4 1.5-1.4c1.1 0 1.3.7.9 2.9zm75.6-1c0 .6-.4 1.3-1 1.6-.5.3-1-.1-1-.9 0-.9.5-1.6 1-1.6.6 0 1 .4 1 .9zM3 47.5c0 .8-.2 1.5-.4 1.5s-.6-.7-1-1.5c-.3-.8-.1-1.5.4-1.5.6 0 1 .7 1 1.5zm7.4 1.4c.9 1.3-.5 4.2-1.7 3.8-.6-.2-1.7-1.3-2.5-2.5C4.8 48.1 4.9 48 7.3 48c1.4 0 2.8.4 3.1.9zm13.8 1.3c-.7.7-1.2.8-1.2.2 0-1.4 1.2-2.6 1.9-1.9.2.3-.1 1.1-.7 1.7zm-11.3 6.3c.1.5-.6.2-1.5-.7-1-.9-1.3-2.1-.8-2.9.5-.9.9-.8 1.5.7.4 1 .8 2.3.8 2.9zm-4.8.2c1.2 3.2.9 5.5-.8 6.1-.9.2-1.3-.7-1.3-2.7 0-1.6-.4-3.3-1-3.6-1.5-.9-1.2-2.5.5-2.5.9 0 2 1.2 2.6 2.7zM23.5 62c-.5.8-1.1.8-2.1-.1-1-.8-1.8-.9-2.7 0-1.5 1.2-2.7.5-2.7-1.5 0-.8.6-1.1 1.5-.8 1 .4 1.5 0 1.5-1.4 0-2 .1-2 2.6.3 1.4 1.3 2.3 2.9 1.9 3.5zm6.3-4.8c.7.7 1.2 2.1 1.2 3.2 0 1.9-.1 1.9-2.3-.2-1.3-1.2-2.9-2.2-3.5-2.2-.7 0-1.2-.5-1.2-1 0-1.4 4.3-1.3 5.8.2zM4 60.1c0 .5-.7.9-1.5.9S1 60.3 1 59.5c0-.9.6-1.2 1.5-.9.8.4 1.5 1 1.5 1.5zm8.2 6.1c-.6.6-.7 0-.4-1.9.5-2.1.7-2.3 1-.9.2 1 0 2.2-.6 2.8zm6.1.3c.7 1.6-.8 2.9-2.2 2.1-.5-.3-1.4.1-2.1.9-.7.8-1.6 1.2-2.1.9-.9-.5 3.7-5.4 5.1-5.4.4 0 1 .7 1.3 1.5zM57 66c0 .5-.4 1-1 1-.5 0-1-.5-1-1 0-.6.5-1 1-1 .6 0 1 .4 1 1zm-9 1c0 .5-.2 1-.4 1-.3 0-.8-.5-1.1-1-.3-.6-.1-1 .4-1 .6 0 1.1.4 1.1 1zM9.6 74.5c0 3-.2 3.3-1.4 2.1-1.1-1.1-1.2-1.7 0-3.5C8.9 72 9.5 71 9.5 71c.1 0 .1 1.6.1 3.5zM33.8 76c-.2 2.2 0 4 .4 4s1 1.7 1.3 3.7c.3 2.1 1 4.5 1.5 5.4.7 1.3.4 1.8-1.4 2.1-1.8.4-2.2.1-1.9-1.2.4-1.4-.2-1.7-3.4-1.5-2.1.2-3.2.1-2.5-.2 1.8-.7 1.5-2.5-1.3-5.7-2.3-2.7-3.2-4.6-2-4.6.3 0 2.1 1.8 4.1 4 2 2.2 3.9 3.8 4.2 3.6.3-.3-.1-1.2-.7-2-.9-1.1-1-2-.1-3.6.6-1.1.8-2.5.5-3-.7-1.1.3-5 1.2-5 .3 0 .3 1.8.1 4zm9.2-2c0 .5-.4 1-1 1-.5 0-1-.5-1-1 0-.6.5-1 1-1 .6 0 1 .4 1 1zm10.5 3.1c.5.6.3.9-.6.9-.8 0-1.6 1-1.7 2.5-.1 1.8.2 2.3 1.3 1.9.9-.4 1.5 0 1.5 1 0 .9-.4 1.6-1 1.6-.5 0-1 .6-1 1.3 0 .7-.7 2.2-1.5 3.3-1.2 1.5-1.6 1.6-2.4.5-.6-.9-1-1-1.6-.2-.5.9-1 .9-2.1 0s-1.5-.8-1.9.3c-.8 2.1 0 7.7 1.4 9.1 1 .9 1.1.8.5-.7-.5-1.4-.3-1.7.7-1.4.8.3 1.4 1.8 1.4 3.6 0 1.6.3 2.8.7 2.6.4-.2.9 0 1.3.6.3.6-.1 1.3-.9 1.6-.9.3-1.6 1.4-1.6 2.3 0 1.1-.6.7-1.8-1.2-1-1.5-2.2-2.4-2.6-2-.5.5-.5-.3-.1-1.6.5-1.5.4-2.1-.3-1.7-.6.3-1.3.2-1.7-.4-.7-1.2-3.5-1.3-3.5-.2 0 .5.9 1.3 2.1 1.8 2 .9 2 1-.6 2.4-2.3 1.2-2.8 1.2-3.5 0-1.1-1.8 1.5-6.3 4.4-7.6 1.6-.7 2-1.6 1.8-3.9-.2-1.6-.8-3.5-1.4-4.2-.6-.7-.7-2.4-.4-3.8.5-1.8.2-2.5-.9-2.5-1 0-1.5-.9-1.5-2.6 0-2.2.2-2.4 1.5-1.4 1.1 1 1.8.9 3-.4.9-.9 2.7-1.6 4.1-1.6 1.3 0 2.4-.5 2.4-1 0-1.2 4.9-.3 6.5 1.1zm-34.3 3c-.2.7.2 1.5.9 1.9 1.3.8.4 3-1.2 3-1 0-3.9-6-3.9-8.1 0-.7.8-.6 2.3.4 1.2.8 2.1 2.1 1.9 2.8zm3.3-3.1c.3.5-.1 1-.9 1-.9 0-1.6-.5-1.6-1 0-.6.4-1 .9-1 .6 0 1.3.4 1.6 1zm44.5-.1c0 .5-.6 1.4-1.4 2-.8.7-1.7 2.3-2 3.6-.4 1.4-1.3 2.5-2.1 2.5-1.6 0-2-1.2-.7-2.4.4-.4.7-1.2.7-1.7s.4-.9 1-.8c.5 0 1.2-.9 1.7-2 .7-2.1 2.8-2.9 2.8-1.2zm9.7 2.6c-.4.8-1.2 1.5-1.9 1.4-1 0-1-.2 0-.6.6-.2 1.2-1.2 1.2-2.1 0-.8.3-1.3.6-.9.4.3.4 1.3.1 2.2zM9 79.4c0 .3-.4.8-1 1.1-.5.3-1 .1-1-.4 0-.6.5-1.1 1-1.1.6 0 1 .2 1 .4zM59 84c0 1.3-.5 1.8-1.5 1.4-.8-.4-1.5-1.2-1.5-2s.7-1.4 1.5-1.4 1.5.9 1.5 2zm-34 6c0 1.3-.5 1.8-1.5 1.4-.8-.4-1.5-1.2-1.5-2s.7-1.4 1.5-1.4 1.5.9 1.5 2zm-2 6.6c0 .8-.5 1.2-1 .9-.6-.4-.8-1.1-.5-1.6.9-1.4 1.5-1.1 1.5.7zm4.3 3.1c-.1 2.1 0 2.9.4 1.8.6-2.4 3.7-5.5 5.4-5.5.8 0 .7.6-.4 1.7-.8 1-1.8 3-2.2 4.4-.7 2.8-4.9 4.5-8.1 3.2-.9-.3-2 0-2.4.7-1.1 1.7-3 .4-3-2.1 0-1.5.6-2 2.3-1.7 2.3.4 5.7-2.5 5.7-4.9 0-.7.6-1.3 1.3-1.3.9 0 1.2 1.2 1 3.7zM6.7 104c.6 3.8 1.3 5.5 2.3 5.5.8 0 1.4-.8 1.3-1.8-.1-1.5.4-1.7 2.5-1.2 3.3.8 5.3 2.5 2.9 2.5-2.2 0-2.1 1.2.2 4.2 1.1 1.4 1.6 3 1.2 3.6-1.1 1.7-4.1.4-4.1-1.8 0-1-.7-2.3-1.5-3-1.3-1.1-1.6-.8-2.1 1.9-1.2 6-2.2 3.1-4.8-14.7-.2-1.3 0-2 .4-1.5.5.4 1.2 3.3 1.7 6.3zm47.3 1c0 .5-.4 1-1 1-.5 0-1-.5-1-1 0-.6.5-1 1-1 .6 0 1 .4 1 1zm-23.3 2.6c-.3.3-1.2.4-1.9.1-.8-.3-.5-.6.6-.6 1.1-.1 1.7.2 1.3.5zm-6.3 5.1c-1 4.7-1.4 5.4-2.4 4.8-.5-.3-1-1.7-1-3 0-1.7-.4-2.3-1.4-1.9-.8.3-1.7 0-2.2-.7-.5-.9.1-1.1 2.4-.6 1.9.4 3.2.2 3.2-.3 0-.6.5-1 1-1 .6 0 .8 1.2.4 2.7zm9.6.3c0 .5-.7 1-1.5 1s-1.8 1.2-2.1 2.6c-.4 1.7-.9 2.2-1.4 1.4-.4-.7-1.3-.9-1.9-.6-.6.4-1.1.1-1.1-.6 0-1.4 4.7-4.7 6.8-4.8.6 0 1.2.4 1.2 1zm19 24.9c0 .5-.7 1.4-1.5 2.1-.9.7-1.3 2-1 2.8.7 2-.5 3.7-1.6 2.1-.7-1.1-.9-1.1-.9.1 0 .9.5 2.1 1.1 2.7.7.7.4 2-1.1 4.4l-2 3.4V152c0-1.9-.2-5-.6-6.9-.6-3.1-.5-3.3 1.6-2.6 1.9.6 2.2.4 1.7-.9-.3-.8.1-2.2.9-3.1 1.7-1.7 3.4-2 3.4-.6zm-32 1.5c0 .8-.4 1.7-.9 2-1 .7-2.3-1.9-1.4-2.8 1.1-1.1 2.3-.6 2.3.8zm34.9 8.4c.1 1-.3 1-1.8 0-1.6-1-1.8-1.6-.9-3.2 1.1-2 1.1-2 1.9-.1.4 1.1.8 2.6.8 3.3zm11.5-1.4c1.7-.4 2.2-.1 2.2 1.5 0 1.4-.8 2-3.3 2.3-2.2.3-3 .1-2.3-.6 1.7-1.7 1.1-2.6-1.7-2.6l-2.8-.1 2.5-1.4c2.2-1.2 2.5-1.2 2.8.1.2.9 1.1 1.2 2.6.8zM38 149.2c0 2.5-.3 2.9-1 1.8-1.3-2-1.3-5 0-5 .6 0 1 1.5 1 3.2zm17 1.8c0 .5-.5 1-1.1 1-.5 0-.7-.5-.4-1 .3-.6.8-1 1.1-1 .2 0 .4.4.4 1zm7.8 4.5c0 1.4-.4 2.8-.9 3.1-.5.3-.9-1.1-.9-3.1s.4-3.4.9-3.1c.5.3.9 1.7.9 3.1zM55 154c0 .5-.4 1-1 1-.5 0-1-.5-1-1 0-.6.5-1 1-1 .6 0 1 .4 1 1zm-42 4c0 1-4.1 3.1-4.9 2.4-.1-.1.3-1 1-1.8 1.6-1.8 3.9-2.1 3.9-.6zm13.2 2c.5 3.5-.6 3.9-2.3.9-.9-1.7-.8-2.3.2-3 .8-.5 1.5-.9 1.5-.9.1 0 .4 1.3.6 3zm13.5-.8c-.3.8-.6.5-.6-.6-.1-1.1.2-1.7.5-1.3.3.3.4 1.2.1 1.9zm15.3-.7c.7.9 1.9 1.4 2.5 1.1.7-.2 1.8-.1 2.4.4 1.7 1-1.2 5.7-4.2 6.6-2 .6-2 .7-.2 2 2.9 2.1 1.2 2.6-2.5.8-3-1.6-3.2-1.8-1.5-3 1.6-1.2 1.5-1.3-.9-1-1.5.1-3.3 1.1-4.2 2.2-.8 1-1.2 1.3-.8.5.5-1 .1-1.1-1.5-.6-1.2.4-2.1.2-2.1-.4 0-.6-.8-1.1-1.8-1.1s-2.7-.7-3.8-1.6c-1.9-1.5-1.9-1.6.1-.9 1.1.4 3.3.8 4.8 1 3.5.5 3.2-1.6-.4-2.6-1.3-.4-1.9-.7-1.3-.8.6-.1 2.4-.4 4-.7 2.1-.4 3.6 0 5.3 1.6 2.2 1.9 2.6 1.9 4 .5 1.3-1.3 1.3-1.9.3-3.5-1.4-2.4 0-2.7 1.8-.5zm-21.6 3.7c.7.5.4.8-.6.8s-1.8-.4-1.8-.9-.3-1.8-.6-2.8c-.5-1.5-.3-1.5.7.2.7 1.1 1.7 2.3 2.3 2.7zm17.6-2.6c0 .2-.7.4-1.5.4s-1.5-.4-1.5-1c0-.5.7-.7 1.5-.4.8.4 1.5.8 1.5 1zm-31.1 3.6-.1 4.3-1.2-4c-.8-2.4-1.5-3.4-1.8-2.5-.3.8-.9 1.1-1.4.7-.5-.4-.2-1.2.6-1.7 3-1.9 4-1.1 3.9 3.2zm-12.6 5c-.8 1.6-2.2.7-1.6-.9.5-1.2.2-1.5-1-1-.8.3-2.1-.1-2.7-.9-1-1.1-.9-1.4.3-1.4.9 0 1.9-1 2.3-2.3.6-2 .8-1.8 1.9 1.8.6 2.2 1 4.3.8 4.7zm27.7-1c-.1 2.1-2.7 8-3.1 6.8 0-.3-.3-2.4-.5-4.8-.3-3.7-.1-4.2 1.6-4.2 1.4 0 2 .7 2 2.2zm-18.7 2.1c-.3.5-1 .4-1.5-.1-.6-.6-.7-1.6-.3-2.2.6-.9.9-.9 1.6.1.4.7.5 1.7.2 2.2zM11 168c0 .5-.2 1-.4 1-.3 0-.8-.5-1.1-1-.3-.6-.1-1 .4-1 .6 0 1.1.4 1.1 1zm13.5 3c.4.7 1.2.7 2.5 0 1.4-.8 1.9-.5 2.3 1.2.4 1.2.4 2.4.2 2.7-.3.2-.5-.1-.5-.7 0-.7-.4-1.2-1-1.2-.5 0-1 .5-1 1.1 0 1.7-3.2 3.8-4.7 3.2-2.3-.9-1.5-3.6.8-3 2.1.6 2.1.5-.2-1.9-1.8-1.9-1.9-2.4-.6-2.4.9 0 1.9.5 2.2 1zm26.4 4.3c1.1-.3 2.1.2 2.4 1.1.4.9 1.3 1.3 2.2 1 .8-.3 1.5-.1 1.5.5s.8 1.1 1.8 1.1 2.4.6 3.1 1.2c1 1.1 1.6.8 3.2-1.1 1.9-2.3 2-2.3 3.4-.5.8 1 1.5 2.2 1.5 2.6 0 .5.5.8 1 .8.6 0 1-1.4 1-3 0-1.7.5-3 1-3 .6 0 1 1.5 1 3.4s.4 4.6 1 6c1.2 3.2-.4 3.5-2.1.5-.7-1.4-1.7-1.9-3-1.6-1 .3-2.1.1-2.4-.4-.4-.5-1.6-.8-2.8-.7-1.2 0-3.4-.3-4.9-.7-1.8-.5-2.8-.3-2.8.4 0 .6 1.1 1.1 2.5 1.1 1.6 0 2.5.6 2.5 1.5 0 .8-.4 1.5-1 1.5-.5 0-1-.4-1-.9 0-1.7-8.4-1.8-9.8-.2-1.2 1.4-1.3 1.2-.8-1.2.3-1.5.8-3.9 1.1-5.5l.6-2.7-1.7 2.2c-1.3 1.8-2 2-3.5 1.2-1.6-.8-1.9-.6-1.9 1.1 0 1.1.7 2 1.5 2 2 0 1.9 3.4 0 5-1.3 1.1-1.8 1-3-.6-2.3-3-2.8-5.4-1.5-6.9 1-1.2.8-1.9-1.1-3.5-2-1.6-2.2-2.1-.9-2.9.9-.7 1.7-.6 2.1 0 .3.6.9.2 1.1-.9.4-1.5 1.2-1.9 3.2-1.5 1.7.4 2.7.1 2.8-.8 0-.8.3 0 .5 1.7.3 2.5.8 3.1 2.2 2.7zM61 175c0 2.2-2 2.6-3.8.8-1.8-1.8-1.5-2.3 1.3-2.6 1.9-.1 2.5.3 2.5 1.8zm-25.4 3.1c.4.7-.2.9-1.7.7-1.3-.2-2.5-1.1-2.7-2.1-.3-1.6-.1-1.7 1.7-.8 1.1.6 2.3 1.6 2.7 2.2zM78 177c0 .5-.2 1-.4 1-.3 0-.8-.5-1.1-1-.3-.6-.1-1 .4-1 .6 0 1.1.4 1.1 1zm-49.2 1.3c.6.7.8 2.3.5 3.6-.4 1.7-.8 2-1.5.9-.7-1-1.1-1-1.5-.1-.8 2-2.3 1.5-2.3-.7 0-1.1.5-2 1-2 .6 0 1-.7 1-1.5 0-1.8 1.4-1.9 2.8-.2zM11 179.5c.6-.3 1-.1 1 .5 0 .7-.9 1.4-2.1 1.7-1.7.5-2 1.2-1.7 3.9.5 4.1-.6 4.4-2.6.6-.8-1.5-1.5-2.1-1.6-1.5 0 1.8-2 1.6-2-.2 0-.8.9-1.9 2-2.5 1.1-.6 2-1.7 2-2.6 0-1.2.4-1.3 2-.4 1.1.6 2.5.8 3 .5zm28 5.5c0 .5-.2 1-.4 1-.3 0-.8-.5-1.1-1-.3-.6-.1-1 .4-1 .6 0 1.1.4 1.1 1zm-5.6.9c.3.4-.1 1.7-.9 2.7-1.4 1.8-1.4 1.8-1.5-.9 0-2.6 1.3-3.6 2.4-1.8zm-17.8 3.8c-1 1-1.9-.5-1-1.8.6-1.1.8-1.1 1.2 0 .2.7.1 1.5-.2 1.8zm51.4.3c0 .5-.4 1-1 1-.5 0-1-.5-1-1 0-.6.5-1 1-1 .6 0 1 .4 1 1zm-47.3 3.6c-.7.7-3.7-.7-3.7-1.7 0-.6.9-.5 2.1.1 1.1.7 1.9 1.4 1.6 1.6zm59.3.6c0 1.2-1 .9-2.6-.6-2-2.1-1.7-2.8.6-1.4 1.1.7 2 1.6 2 2zm-68.5 4c.4 2.9 1.1 3.8 2.5 3.8 1.1 0 2 .4 2 1 0 .5-1.3 1-2.8 1-2.5 0-2.9-.4-3-2.8-.1-1.5-.3-3.4-.4-4.2 0-.8 0-2.4.2-3.5.3-2.2.5-1.5 1.5 4.7zm44.3-2.4c.6 1.8-1.5 1.4-2.2-.4-.4-1-.1-1.4.6-1.2.6.2 1.4 1 1.6 1.6zm10.6 1.3c-.6 1.1-2.4.2-2.4-1.1 0-.5.7-.7 1.5-.4.8.4 1.2 1 .9 1.5zM75 196c0 .5-.5 1-1.2 1-.8 0-.6.7.5 1.7 1.5 1.6 1.9 1.6 2.7.3.6-1 .9-.1.8 2.7 0 4.3-1.2 5.5-5.2 5.7-2.8.1-3.1-2.2-.4-2.6 1.5-.2 2.4-1.1 2.6-2.6.3-2 0-2.3-1.7-1.7-2.3.7-2.7-.5-1.1-3.6 1.1-2 3-2.6 3-.9zm-47.7 1c.9 0 1.7.5 1.7 1.1 0 .7-1.1.8-3 .4-3-.7-6 1.1-6 3.4 0 .6-.4 1.1-1 1.1-1.4 0-1.3-1.3.2-2.8.7-.7.9-1.2.5-1.2s-.2-.7.5-1.5 2.2-1.3 3.3-1c1.1.3 2.8.5 3.8.5zm7.7-.2c0 1.3-1.2 2.2-2.2 1.6-1-.6-.1-2.4 1.3-2.4.5 0 .9.4.9.8zm9.3 2.3c-1.8.5-3.3 1.4-3.3 1.9 0 1.5-2.6 1.2-3.9-.4-1.4-1.7.3-2.4 6.4-2.4h4l-3.2.9zm23.7.4c1 1.3.9 1.5-.8 1.5-1.5 0-2-.5-1.6-1.5.4-.8.7-1.5.9-1.5.1 0 .8.7 1.5 1.5zm39.3 1.7c-.3 1.8-1.2 4.4-1.8 5.8-.7 1.4-1.4 4.1-1.6 6-.5 4.8-3.6 8-7.1 7.3-1.8-.3-3.6.2-5.6 1.6-2.7 1.9-3.1 1.9-3.6.4-.4-.9-.2-2.1.4-2.7 1.9-1.9 1.2-3.9-1.3-3.2-1.6.4-2.6-.1-3.5-1.4-1.5-2.4-3.2-2.6-3.2-.4 0 .9-.6 1.4-1.3 1.1-1-.4-1.2.3-.9 2.4.5 3.3 1.6 3.7 3 1.2.9-1.4 1.1-1.4 2.1.6.7 1.2.9 3.1.5 4.4-.5 1.2-.8 2.4-.7 2.7 0 .3.4 1.9.7 3.6.6 2.9.5 3.1-2.2 3.1s-2.9-.3-3-4c-.1-2.7-.9-4.4-2.4-5.7-2.3-1.8-2.3-1.8-3 1.3-.3 1.8-.3 3.4.1 3.7.4.3 1.1 1.4 1.5 2.4.7 1.9.6 1.9-1.4.1-1.1-1-2-1.3-2-.7 0 .7-.5 1.2-1.1 1.2-.7 0-.9-1-.5-2.6.7-2.4.5-2.6-1.9-2-2.3.6-2.6.4-2.3-1.5.2-1.2.9-2.4 1.7-2.7.9-.3 1.1 0 .6.8-.6.9-.3.9 1.5 0 2.1-1.1 2.1-1.2.3-2.7-1.7-1.4-1.7-1.4.4-1 2.1.5 2.3.2 1.7-3.1-.5-3.2-.1-4.1 2.6-7 3.9-3.8 4.7-4 6.1-.8 1.7 3.7 5.3 3.9 6.8.4 2.4-5.3 6.3-5.1 4.1.2-1.4 3.4-1.4 3.5 1.6 4.4 1.4.4 2.8.1 3.7-.8.8-.8 1.7-1.2 2.1-.9.3.4.6-.1.6-1.1 0-.9-.4-1.5-.9-1.2-.5.3-1.2-.1-1.5-1-1.2-3.1-.6-3.5 2.3-1.5 2.4 1.8 3 1.9 3.5.6.3-.9 0-1.5-.9-1.5-1.6 0-2-3.6-.7-5.7.7-1.1 4.6-3.1 6.4-3.2.4-.1.5 1.4.1 3.1zm-45.1-1.5c-.9.3-.7 1.2.9 3.4 1.3 1.9 1.6 2.7.6 2.3-1.7-.6-3.9-4.9-3-5.8.4-.3 1.1-.6 1.7-.5.6 0 .5.3-.2.6zm-9.8 3.3c2.5-2 3.2-.3 1.3 2.9-.9 1.5-1.4 3.7-1 4.9.3 1.3.1 2.2-.6 2.2-.6 0-1.1-1.2-1.1-2.6 0-1.5-.7-3.2-1.7-3.9-1.1-.8-1.4-1.9-.9-3.1.6-1.5.9-1.6 1.6-.4.7 1.1 1.1 1.2 2.4 0zm38.1.9c-.3.6-1.1 1.1-1.7 1.1-.6 0-.6-.6.2-1.5 1.4-1.7 2.6-1.3 1.5.4zm-46 2.1c-.3.5-1 1-1.6 1-.5 0-.9-.5-.9-1 0-.6.7-1 1.6-1 .8 0 1.2.4.9 1zm24.4 6.7c-.1 1.7-.3 2.1-.6 1-.2-.9-1.1-1.7-1.9-1.7-.8 0-1.2-.5-.9-1 1.3-2.1 3.5-1 3.4 1.7zM37 214c0 1.1-.2 2-.4 2s-.6-.9-.9-2c-.3-1.1-.1-2 .4-2s.9.9.9 2zm15.8 3.4c2.3 1.6 4.1 3.4 3.9 4-.8 2.3-3.8 1.6-6.3-1.3C49 218.4 47 217 46 217c-1 0-2-.7-2.4-1.5-.9-2.4 4.3-1.3 9.2 1.9zm-46.9-1.5c2.3 1.5-.2 1.9-2.9.5-2.2-1.2-2.2-1.4-.5-1.4 1.1 0 2.6.4 3.4.9zm60 2.8c1.5 1.1 1.5 1.2 0 1.3-.9 0-2.3 1-3.2 2.2-1.1 1.8-1.8 2-2.7 1.1-.9-.8-.7-1.6.9-3.2 1.2-1.2 2.1-2.9 2.2-3.9 0-1.3.2-1.4.6-.2.4.8 1.3 2 2.2 2.7zm-42.4.3c-.3.5-1.1 1-1.6 1-.6 0-.7-.5-.4-1 .3-.6 1.1-1 1.6-1 .6 0 .7.4.4 1zm13.5 1c0 .5-.5 1-1.1 1-.5 0-.7-.5-.4-1 .3-.6.8-1 1.1-1 .2 0 .4.4.4 1zm-6 3c0 1.2-.7 2-1.7 2-1.4 0-1.5-.2-.4-.9.7-.5 1-1.4.7-2-.4-.6-.2-1.1.3-1.1.6 0 1.1.9 1.1 2zm5.5 1c.3.5-.1 1-1 1s-1.3-.5-1-1c.3-.6.8-1 1-1 .2 0 .7.4 1 1zm55.9.5c-.4.8-1.3 1.5-2.1 1.5-1.3 0-1.3-.3-.3-1.5.7-.8 1.6-1.5 2.1-1.5s.6.7.3 1.5zM59 225.6c0 .8-.4 1.2-1 .9-.5-.3-1-1-1-1.6 0-.5.5-.9 1-.9.6 0 1 .7 1 1.6zm27 1.6c0 1.9-.2 2-1 .8-1.3-1.9-1.3-3 0-3 .6 0 1 1 1 2.2zm-59 1.4c0 .8 1 1.4 2.4 1.4s2.8.5 3.2 1.2c.5.8 0 .9-1.5.5-1.4-.3-2.4 0-2.8.9-.7 2-2.5 1.7-2.2-.4.2-.9-.2-2.7-.9-3.9-1.1-1.9-1-2.2.3-1.7.8.4 1.5 1.2 1.5 2zm8.5-1.6c.3.5-.1 1-1 1s-1.3-.5-1-1c.3-.6.8-1 1-1 .2 0 .7.4 1 1zm17.6 2.6c-.9 2.8-.9 2.9-1 .3-.1-1.4.2-2.9.6-3.2 1.1-1.2 1.3-.2.4 2.9zm-16.4 1c-.3.3-1.2.4-1.9.1-.8-.3-.5-.6.6-.6 1.1-.1 1.7.2 1.3.5zm1.3 5c0 .8-.4 1.2-1 .9-.5-.3-1-1-1-1.6 0-.5.5-.9 1-.9.6 0 1 .7 1 1.6zm7.9-.2c.8 1 .9 1.6.1 2.1-.5.3-1 .1-1-.4 0-.6-.7-1.1-1.5-1.1s-1.5-.5-1.5-1c0-1.5 2.6-1.2 3.9.4zm28.6-.5c.3.6-1.3 1-3.6.9-2.7 0-3.7-.3-2.8-.9 1.9-1.2 5.6-1.1 6.4 0zm-19.9 1.6c-2.3 1.7-5.2 1.9-6.1.5-.4-.7.2-.9 1.8-.5 1.4.4 2.8.2 3.1-.4.4-.6 1.3-1.1 1.9-1.1.7 0 .3.7-.7 1.5zm7.3.4c.8.5 1.5 2.3 1.6 4 .2 2.6 0 2.9-1.1 2-.8-.6-1.4-1.8-1.4-2.5 0-1.7-.5-1.7-3-.2-2.7 1.7-3.5.4-1.3-2 2-2.3 3.2-2.6 5.2-1.3zm11.6 2.1c-.3.5-1.8 1-3.3.9-2.4 0-2.5-.1-.7-.9 2.8-1.2 4.7-1.2 4 0zm-40.1 4.6c-.5 2.8-.4 3.5.5 2.9.9-.5 1.2 0 .9 1.6-.1 1.3-1.1 2.5-2 2.7-1.4.3-1.6-.4-1.4-4.1.3-4.2 1.1-6.7 2.2-6.7.3 0 .2 1.6-.2 3.6zM66 246c0 .5-.2 1-.4 1-.3 0-.8-.5-1.1-1-.3-.6-.1-1 .4-1 .6 0 1.1.4 1.1 1zm-46.6 2.4c-.3.8-1.2 1.2-2.1.9-1.2-.5-1.2-.7-.1-1.4 2-1.3 2.8-1.1 2.2.5zm49.3 1.1c.8.8 1.3 1.9 1.1 2.4-.2.5-1.1-.2-2.1-1.5-2-2.7-1.4-3.2 1-.9zm-40.9 4.3c.5 3.1-1.5 2.7-2.1-.3-.3-1.6 0-2.4.7-2.2.6.2 1.2 1.3 1.4 2.5zm6 4.7c-1 3.9-1 4.9 0 5.3.6.2.9.8.6 1.4-.4.6-.1 1.4.6 1.8 1.6 1 .7 3.6-1.8 4.9-1.4.8-1.9.7-1.9-.5 0-.7.4-1.4.9-1.4.4 0 .8-1.4.8-3 0-1.7-.4-3-1-3-1 0-.4-4.6 1.2-8.9 1.5-4.1 1.9-1.6.6 3.4zm27.7-4.5c.3.5.1 1-.4 1-.6 0-1.1-.5-1.1-1 0-.6.2-1 .4-1 .3 0 .8.4 1.1 1zm13.9.6c.4 1 1.4 1.4 2.6 1.1 1.6-.4 2 0 2 1.9 0 1.3-.5 2.4-1 2.4-1.2 0-5.9-5-6-6.3 0-1.4 1.8-.7 2.4.9zm-3.7.1c-.4.3-.2 1.2.4 2 .9.9.8 1.3 0 1.3-.6 0-1.1-.2-1.1-.4s-.3-1.1-.6-2c-.4-1-.1-1.6.7-1.6.7 0 .9.3.6.7zm-54.6 1.6c-.1 1.2-1.5.9-1.9-.4-.3-.6.1-1 .8-.8.6.3 1.1.8 1.1 1.2zm43 1.5c.6 1.7.4 2.4-1.1 3.2-1.8 1-2 .7-2-2.5 0-4 1.8-4.4 3.1-.7zm-58.4 3.4c-.3.7-.5.2-.5-1.2s.2-1.9.5-1.3c.2.7.2 1.9 0 2.5zM25 261c0 .5-.7 1.5-1.5 2.4-.8.8-1.5 1.9-1.5 2.5 0 .6-.4 1.1-1 1.1-1.3 0-1.3-2.1 0-5.4.6-1.7 1.4-2.4 2.5-2 .8.3 1.5 1 1.5 1.4zm26 3.6c0 .2-.9.4-2.1.4-1.1 0-1.8-.4-1.4-1 .5-.8 3.5-.3 3.5.6zm28 .4c.7-1.1 1-.2 1 3 0 2.5.4 6 .9 7.8.6 1.8.6 4.5.1 6.2-.5 1.8-.5 3.2.1 3.5 1.6 1 1.1 7.2-.7 7.9-2.1.8-3.4-.1-3.4-2.5 0-1-.6-1.9-1.2-2-.7 0-2.1-.2-3-.4-1-.2-1.8.1-1.8.7 0 .5-.9 2.3-2 3.8-2 2.9-2 2.9-.1 3.9 2.9 1.6 3.2 1.4 2.5-1.6l-.7-2.6 2.6 1.9c1.7 1.3 2.1 2 1.1 2.2-2.2.5-1.6 2.1 1.1 2.8 4.2 1 2.9 2.9-2 2.9-4.7.1-5.3-.3-3.4-2.2.8-.8.2-1.3-2.3-1.8-2.6-.5-7.7-2.5-10.7-4.2-.2-.2.2-.9.9-1.8 1-1.3.9-1.5-.9-1.5-1.2 0-2.1.6-2.1 1.5 0 .8-.5 1.5-1 1.5-.6 0-.8-1.1-.4-2.5.5-1.9.2-2.5-1.1-2.5-1.1 0-1.5.6-1 1.9.7 2.3-1.5 4.2-4.6 3.9-1.8-.2-2.3.1-2.1 1.5.4 2.1-.5 2.5-8.8 3.6-3.6.4-7.2 1.1-8 1.5-1.1.5-1.6.1-1.6-1.4 0-1.2.5-1.9 1.3-1.6.7.3 1.5.1 1.8-.4.4-.6 1.7-.7 3-.4 1.2.3 2.6.1 2.9-.5.4-.5 1.3-.8 2-.5.7.3 1.6-.2 1.9-1 .4-.9.3-1.6-.2-1.6s-1.1-.9-1.4-1.9c-.5-1.9-2.8-2.3-4.3-.8-1.4 1.4-2.4.6-2.2-1.7.2-2.1.8-2.4 5.5-2.8 5.8-.5 7.6-1.5 5.3-2.8-.8-.4-2.6-1.8-3.9-2.9-1.3-1.1-3.2-2.3-4.2-2.6-1.1-.4-1.9-1.1-1.9-1.6 0-1.4 1.3-1.1 5 1.5 1.9 1.2 5 2.3 6.9 2.4 2.6.1 4.1.9 6.2 3.3 2.6 3.1 2.9 3.2 5.6 1.9 2.6-1.3 6.2-1.9 12.2-2 2.7 0 6.4-2.8 5.5-4.1-.3-.5-1-.7-1.5-.4-.5.4-1.8.3-2.9 0-2.4-.8-2.8-5.5-.5-5.5.8 0 1.5.7 1.5 1.5s.2 1.5.4 1.5 1.1.3 2 .6c2.1.8 2.1-1.7.1-5.6-.9-1.7-1.1-3-.6-3 .5 0 1.4-1.4 2.2-3.1 1.2-3 1.3-3 2.6-1.3 1.2 1.6 1.5 1.7 2.3.4zm-50.2 4.7c-.2 2.3-.8 2.8-3 2.8-2.5.1-5.7 2.7-5.8 4.7 0 .5-.4.8-1 .8-1.2 0-3.6-5-3.6-7.4.1-2 2.6-3.6 2.6-1.7 0 .6-.4 1.1-.9 1.1-.4 0-.6 1.1-.3 2.5.6 3.3 2.1 3.2 3.5-.4 1.2-3.3 4.3-4.7 5.1-2.4.3.8 1 1.2 1.5.8.6-.3.8-1.2.4-2-.3-.8 0-1.5.7-1.5.6 0 1 1.1.8 2.7zm-15.8.4c0 1.6-5.2 3.1-6.4 1.9-.8-.8-.6-.9.8-.4 1.5.6 1.7.3 1.2-1.3-.6-1.7-.3-2 1.9-1.5 1.4.2 2.5.8 2.5 1.3zm33.4 1.4c-1 .8-2.5 1.5-3.1 1.5-.7 0-1.3.5-1.3 1.1 0 .5-.5.7-1 .4-1.5-.9.6-3.3 3.3-3.8 4-.8 4.1-.7 2.1.8zm19.1 1.6c-.3.4-1.6.2-2.9-.4-1.3-.7-2.2-1.5-2-1.9.3-.4 1.6-.2 2.9.4 1.3.6 2.2 1.4 2 1.9zm71.7 5.6c3.2 2.8 2.2 4.5-1.3 2.4-2.4-1.5-3.8-1.7-5.5-1-1.8.6-2.4.5-2.4-.5 0-.7.3-1.6.7-1.9 1.2-1.3 6.7-.7 8.5 1zM34 282.3c0 .8-1.1 2-2.5 2.7-1.4.7-2.5 1.7-2.5 2.2 0 .5-.4.7-.9.3-.5-.3-1.2-.1-1.6.5-.3.5-1.4 1-2.3 1-.9 0 .4-1.2 3-2.6 3-1.7 4.5-3.1 4.1-4-.3-.8.1-1.4 1.1-1.4.9 0 1.6.6 1.6 1.3zm-23 6.2c0 .8-.2 1.5-.4 1.5s-.6-.7-1-1.5c-.3-.8-.1-1.5.4-1.5.6 0 1 .7 1 1.5zm16 3.6c0 .6-.4.7-1 .4-.5-.3-1-1.1-1-1.6 0-.6.5-.7 1-.4.6.3 1 1.1 1 1.6zm-18.7 1.7c-.2.6 1 1 2.5.9 2.6-.2 2.7 0 2.4 4.1-.3 4.8 1.8 5.6 2.8 1.2.3-1.3 1.2-2.6 1.9-2.8 1-.3 1.2.1.8 1.7-.4 1.7 0 2.4 2.1 3.3 2 .7 2.3 1.2 1.2 1.6-2.4.8-3.1 2.6-1.2 3.3 1.6.6 1.6.7-.1 1.4-1.2.5-2.4 0-3.8-1.6-1.2-1.3-3.1-2.4-4.2-2.4-1.9 0-2.2-.7-2.5-4.3-.2-2.8-.8-4.2-1.8-4.2-.8 0-1.4-.2-1.4-.4s-.3-1.2-.7-2.2c-.4-1.2-.2-1.5.8-1.2.8.3 1.3 1 1.2 1.6zm16.1 3.3c-1.1 1.8-3.2.9-3.6-1.6-.3-1.3-.2-2.7.1-3 .8-.9 4.2 3.5 3.5 4.6zm-17 .5c2.4 2.4 1.9 3-1.9 2.6-2.6-.3-3.5-.9-3.5-2.3 0-2.4 3.2-2.5 5.4-.3zm39.6 2.8c0 .3-.4.8-1 1.1-.5.3-1 .1-1-.4 0-.6.5-1.1 1-1.1.6 0 1 .2 1 .4zm33.4 4.4c-.9 2.7-1 2.7-2.6 1-1.5-1.5-1.5-1.8-.3-1.8.9 0 1.5-.9 1.5-2.2 0-1.7.3-1.9 1.2-1 .7.7.8 2 .2 4zm-38.9-.9c-.6.5-2.5-1-2.5-2 0-.5.6-.4 1.4.3.8.7 1.2 1.5 1.1 1.7zm8.8-.4c-.3.8-.9 1.5-1.4 1.5-1 0-1.2-2.4-.3-3.3 1.1-1.1 2.4.3 1.7 1.8zm14.7.5c0 .5-1.2 1-2.7 1-2.2 0-2.5-.2-1.3-1 2-1.3 4-1.3 4 0zm11.5 4c2.8 3.1 3.6 7 2.4 11.1-1.4 4.4-3.2 4.9-6 1.6-2.7-3.3-2.2-4.7.6-1.5 1.3 1.6 2.7 2.3 3 1.8.3-.6.2-1-.4-1-.6 0-.8-.6-.5-1.4.3-.9-.5-2-2.3-3-2.7-1.5-2.7-1.5-.5-1.6 1.4 0 2.2-.5 2-1.3-.3-.6-1.8-1.2-3.4-1.2-2.7 0-2.9.3-2.6 3.2.4 3.9-1.3 5.1-3.9 2.7-2.6-2.3-4.8-.5-2.4 2 1.2 1.2 1.3 1.6.3 1.6-.7 0-2.6-1.4-4-3.1-2.4-2.6-3-2.9-4.9-1.9-1.5.9-2.4.9-3.2.1-.8-.8-.6-1.1.6-1.1.9 0 1.7-.6 1.7-1.4 0-1.4 2.9-2.6 6.4-2.6 1.2 0 1.6.5 1.3 1.5-1 2.3 1.2 2.8 4 .9l2.7-1.7-2.7-2.2c-1.4-1.3-2.3-2.6-2-2.9 1-1 4.1-.7 4.5.4.2.6 1.7.8 3.6.4 2.3-.5 3.2-1.2 3.3-2.8.1-2 .2-2 .6-.1.3 1.1 1.1 2.7 1.8 3.5zm-19.5-.4c0 1.4-.4 2.3-1 1.9-.5-.3-1-1.5-1-2.6 0-1 .5-1.9 1-1.9.6 0 1 1.2 1 2.6zm-43.6-.4c.2.7.8 2.8 1.4 4.5.6 2 .7 3.5.1 3.9-.5.3-.9-.2-.9-1 0-.9-.8-1.6-1.9-1.6-1.1 0-2.3-.4-2.6-1-.4-.6.1-.7 1.1-.3 1.5.5 1.6.2 1.1-2.5-.6-3 1-4.8 1.7-2zm15.5 1.9c1.8 1.7 3 3.3 2.8 3.6-.3.2-2.3-1.1-4.4-3.1-2.1-1.9-3.3-3.6-2.7-3.6.6 0 2.6 1.4 4.3 3.1zm-22.6 2.6c-.7.2-2.1.2-3 0-1-.3-.5-.5 1.2-.5s2.4.2 1.8.5zm12.7 9.8c.8 2.3 1.6 3.2 2.6 2.8.7-.3 1.7.2 2 1.1.8 2 2.4 2.1 2.4.1 0-.9 1-2.6 2.3-3.9 1.3-1.3 2.1-2.9 1.9-3.7-.4-1.1-.2-1.2.9-.2.7.7 2.1 1.3 3.1 1.3s1.8.5 1.8 1.1c0 .6-.6.9-1.4.6-2-.8-5.8 2.2-5.2 4 .6 1.5-1.5 4.3-3.2 4.3-.5 0-1.5-.6-2.2-1.4-.6-.8-1.7-1.3-2.5-1-.7.3-1.6 0-2-.5-.3-.6-1.1-.9-1.6-.5-1.4.8-.1 2.4 2.1 2.4 2.1 0 3.5 2.9 2 4.4-.8.8-1.2.5-1.6-1-.4-1.6-1.2-2-3.9-1.8-3.3.3-3.4.2-2.2-1.8.9-1.6.9-2.2 0-2.5-.7-.3-1.3-.9-1.3-1.4 0-.6.5-.7 1-.4 1.9 1.2 2.9-.5 2-3.4-1.2-4.3 1.6-2.9 3 1.4zm28-2.5c-1.9 1.2-3 1.2-3 .1 0-1 3.1-2 4-1.4.2.2-.2.8-1 1.3zm-33 1.7c0 1-.9 1.3-2.7 1.1-2-.2-2.8.2-2.8 1.2 0 .8-.8 1.4-1.6 1.2-.9-.1-2.2.5-2.9 1.3-1.4 1.7-3 2-3 .6 0-.5 2.1-2.5 4.8-4.3 4.7-3.4 8.2-3.9 8.2-1.1zm-2.9 6c-.9 1.6-1 1.4-1.1-1.2 0-2.1.3-2.6 1.1-1.8s.8 1.6 0 3zm47.6-1.5c-.2.7-1.1 1.2-1.9 1-.8-.1-3.4 1.8-5.7 4.3-3.7 4-4.1 4.8-2.9 6.3 1.1 1.3 1.1 1.4-.1.7-.9-.5-1.8-.2-2.6.8-1.2 1.7-5.5 1.3-5.5-.5 0-.5.6-.8 1.2-.6.7.3 2.6-1.5 4.2-3.9s4.5-5.5 6.5-6.9c3.8-2.6 7.6-3.2 6.8-1.2zm18.7 1.7c1 1.6-2.1 2-4.1.6-1.7-1.3-1.6-1.4.9-1.5 1.5 0 2.9.4 3.2.9zM10 330.2c0 1.3-3.2.6-3.7-.9-.3-.7.3-.9 1.6-.6 1.2.3 2.1 1 2.1 1.5zm23 2c0 .6.9 2.1 2 3.3 2.5 2.7 3.9 8.8 1.8 8-.7-.3-1.4-1.8-1.3-3.2 0-2-.8-3.1-3-4.2-1.6-.9-3.2-1.7-3.4-1.8-.6-.4 2.1-3.3 3-3.3.5 0 .9.5.9 1.2zM8 334c0 .5-.4 1-1 1-.5 0-1-.5-1-1 0-.6.5-1 1-1 .6 0 1 .4 1 1zm65 2c0 .5-.4 1-1 1-.5 0-1-.5-1-1 0-.6.5-1 1-1 .6 0 1 .4 1 1zm46.5 5.1c1.1 1.7-.1 2.1-1.5.4-.8-.9-.8-1.5-.2-1.5.6 0 1.4.5 1.7 1.1zm-68.9 3.1c.4.7.3.8-.4.4s-1.2-.3-1.2.3c0 1.7 2 2.3 3.5 1.1 2-1.7 1.9.4-.1 2.4-1.9 2-3.4 2.1-3.4.2 0-.7-.7-1.9-1.5-2.6-.8-.7-1.2-1.6-.9-2.1.7-1.3 3.2-1.1 4 .3zm-11.7 2.2c.8.9.8 1.6.2 2-.6.4-1.5-.3-2.1-1.4-1.2-2.3.2-2.7 1.9-.6zm-26.8 9.9c1.6 2.1 1.6 2.3-.1 2.3-1.1 0-2-.9-2.3-2.3-.5-2.9.3-2.9 2.4 0zm24.4 3.7c.3.5.1 1-.4 1-.6 0-1.1-.5-1.1-1 0-.6.2-1 .4-1 .3 0 .8.4 1.1 1zM5 381c0 .5-.4 1-1 1-.5 0-1-.5-1-1 0-.6.5-1 1-1 .6 0 1 .4 1 1zm176.6 6.5c2.7 2.4 5.2 4.4 5.6 4.5 2.4.1 12.8 19.3 11.3 20.8-.2.3-.9-.8-1.5-2.4-2.9-7.5-5-10.5-13.1-18.7-9.2-9.3-10.5-11.6-2.3-4.2zM5.5 386c.3.5.1 1-.4 1-.6 0-1.1-.5-1.1-1 0-.6.2-1 .4-1 .3 0 .8.4 1.1 1zm5.5 2.6c0 .8-.4 1.2-1 .9-.5-.3-1-1-1-1.6 0-.5.5-.9 1-.9.6 0 1 .7 1 1.6zm172 13.9c0 1.6-.6 2.5-1.5 2.5s-1.5-.9-1.5-2.5.6-2.5 1.5-2.5 1.5.9 1.5 2.5zm37 2.4c0 .6-.4 1.3-1 1.6-.5.3-1-.1-1-.9 0-.9.5-1.6 1-1.6.6 0 1 .4 1 .9z"/><path d="M45.7 163.1c.3 1 .9 1.6 1.4 1.3 1.3-.8 1.1-2.1-.5-2.7-1-.4-1.2 0-.9 1.4zM44 176c0 .5.5 1 1.1 1 .5 0 .7-.5.4-1-.3-.6-.8-1-1.1-1-.2 0-.4.4-.4 1zM53.2 181.1c.2.7 1 1.5 1.7 1.7.8.3 1.2-.1.9-.9-.2-.7-1-1.5-1.7-1.7-.8-.3-1.2.1-.9.9zM101.6 204.5c.4.8.8 1.5 1 1.5.2 0 .4-.7.4-1.5s-.4-1.5-1-1.5c-.5 0-.7.7-.4 1.5zM76 212.6c0 .8.5 1.2 1 .9.6-.3 1-1 1-1.6 0-.5-.4-.9-1-.9-.5 0-1 .7-1 1.6zM22.1 261.6c0 1.1.3 1.4.6.6.3-.7.2-1.6-.1-1.9-.3-.4-.6.2-.5 1.3zM76.2 268.9c-1 .6-1 1 .2 2 1 .9 1.6.9 2.1.1 1-1.6-.7-3.1-2.3-2.1zM75.8 275.7c-.7 2.5.1 4.3 1.8 4.3 1.1 0 1.4-.8 1.2-2.7-.4-3.1-2.3-4.2-3-1.6zM44.2 284.2c.3.7 1.3 1.5 2.2 1.6 1.2.3 1.7-.1 1.4-1-.3-.7-1.3-1.5-2.2-1.6-1.2-.3-1.7.1-1.4 1zM76.5 285c-.3.5-.1 1 .4 1 .6 0 1.1-.5 1.1-1 0-.6-.2-1-.4-1-.3 0-.8.4-1.1 1zM57.5 287c-.3.5-.1 1 .4 1 .6 0 1.1-.5 1.1-1 0-.6-.2-1-.4-1-.3 0-.8.4-1.1 1zM62.7 287.7c-.3.5-.8 2.3-1.2 4-.5 2.8-.4 3.3 1.2 3.3 3.7 0 4.7-1.5 3.3-4.9-1.2-3-2.4-3.9-3.3-2.4zm2.7 4.4c-.3.5-1 .7-1.5.3-.5-.3-.7-1-.3-1.5.3-.5 1-.7 1.5-.3.5.3.7 1 .3 1.5zM42 289c0 .5 1 1 2.3 1 1.8 0 1.9-.2.7-1-1.9-1.3-3-1.3-3 0zM40.2 293.5c.2 2.6 2.2 3.4 3.1 1.2.3-.7-.3-1.9-1.4-2.5-1.7-1.1-1.9-.9-1.7 1.3zM34.4 1.5c1 .8 2.3 1.2 2.8.9C38.6 1.5 37 0 34.7 0c-2.1.1-2.1.1-.3 1.5zM39.5 1.3c-.4 1-.5 2.1-.1 2.4 1 1 1.8-.4 1.3-2.4-.4-1.7-.4-1.7-1.2 0zM46.7 2.2c-.5 1.7-.9 1.9-2.1.9-2.2-1.9-2.7.2-1.1 4.9.8 2.3 1.3 4.6 1 5-.3.5-.1 1.1.5 1.5 1.1.7 2.4-3.9 1.6-6-.4-1.2.3-1.5 3.3-1.5 3.4 0 4-.4 5.1-3 1.5-3.5.7-4.9-1.9-3.3-1.1.7-2.3.8-3.2.2-2.1-1.3-2.6-1.1-3.2 1.3zM107 1c0 .5.7 1 1.5 1s1.5-.5 1.5-1c0-.6-.7-1-1.5-1s-1.5.4-1.5 1zM75.2 4.3c-1.6 3.7-1.5 5.2.2 6.6 2.1 1.7 2.7 0 1.7-5l-.8-4.4-1.1 2.8zM98.4 3.4c1 .8 1.9 2.4 2 3.6.1 2.8 1.9 2.6 2.3-.4.2-1.5-.3-2.6-1.4-3-1-.3-2.5-.9-3.3-1.2-.9-.3-.7.1.4 1zM94 6c0 .5.5 1 1 1 .6 0 1-.5 1-1 0-.6-.4-1-1-1-.5 0-1 .4-1 1zM116.8 6.2c-1.6.5-2.8 1.4-2.8 1.9s-1.2.6-2.7.3l-2.7-.7 1.7 2.6c.9 1.4 1.4 3.3 1.1 4.1-.4 1-.1 1.6.9 1.6.9 0 1.8-.9 2.2-1.9.4-1.3 1.2-1.8 2.2-1.4 1.3.5 1.5 0 1.1-2.5-.2-1.8-.2-3.2.1-3.2.3 0 2 1.4 3.8 3.2 3.7 3.6 5.4 3.2 2.9-.6-2.2-3.5-4.6-4.5-7.8-3.4zM138.6 7.7c-.9 2.3-.7 4.3.4 4.3.6 0 1-.6 1-1.4 0-.8.7-1.7 1.6-2 1.8-.7 1.2-1.9-1.1-2.2-.7-.1-1.6.5-1.9 1.3zM135.1 8.6c0 1.1.3 1.4.6.6.3-.7.2-1.6-.1-1.9-.3-.4-.6.2-.5 1.3zM147.5 8c-.7 1.2.2 3 1.5 3 .5 0 .8-.9.7-2-.1-2.1-1.2-2.6-2.2-1zM158.6 9.4c.3.9 1.1 1.6 1.6 1.6 1.3 0 .5-2.3-1-2.8-.7-.2-1 .2-.6 1.2zM351.7 9.5c-.4.8-.2 1.7.3 2 .6.4 1-.3 1-1.4 0-2.5-.6-2.7-1.3-.6zM127 10c0 .5.5 1 1.1 1 .5 0 .7-.5.4-1-.3-.6-.8-1-1.1-1-.2 0-.4.4-.4 1zM152 10c0 .5.9 1 2.1 1 1.1 0 1.7-.5 1.4-1-.3-.6-1.3-1-2.1-1s-1.4.4-1.4 1zM167 11.5c0 .8.5 1.5 1 1.5.6 0 1-.7 1-1.5s-.4-1.5-1-1.5c-.5 0-1 .7-1 1.5zM360 11c0 .5 1.1 1.7 2.6 2.6 3.4 2.3 5.6.4 2.3-2-2.6-1.8-4.9-2.1-4.9-.6zM162 12c0 .5.5 1 1.1 1 .5 0 .7-.5.4-1-.3-.6-.8-1-1.1-1-.2 0-.4.4-.4 1zM99.5 13.3c-2.3 1.8-3.1 7.7-1 7.7s.9 5-1.6 7c-2.7 2.2-1 4.7 2 2.9 1.1-.8 2.1-1.7 2.1-2.1 0-.5.6-.8 1.4-.8 2.3 0 3.1-2.2 1.4-3.4-.9-.6-1.7-2-2-3.1-.2-1.3-1-1.9-2.2-1.7-1.1.2-1.6-.1-1.3-1 .2-.7 1.3-1.2 2.4-1.1 1.3.1 2.4-.7 3.1-2.1 1.6-3.6-.7-4.9-4.3-2.3z"/><path d="M106 14.2c0 2 .1 2.1 2.4 1.2 2.3-.9 2-3-.4-3-1.3 0-2 .7-2 1.8zM195 15.8c0 1.2.4 2.2.9 2.2 1 0 .9-2.6-.2-3.6-.4-.4-.7.2-.7 1.4zM331 15.9c0 .5.5 1.3 1 1.6.6.3 1 .2 1-.4 0-.5-.4-1.3-1-1.6-.5-.3-1-.2-1 .4zM249 19.1c-3 1.2-6.3 2.3-7.2 2.6-1 .3-1.8 1-1.8 1.6 0 .6-.3.7-.6.4-.4-.3-1.5-.2-2.6.4-1.1.6-2.2.8-2.5.6-.2-.3 1.6-1.4 4.1-2.6 2.5-1.1 4.6-2.5 4.6-3.2 0-2.6-18.1 1.2-24 5.1-1.4.9-4.7 2.7-7.5 4-5 2.5-6.2 3.3-9 5.8-.8.7-1.5 1-1.5.5 0-.4-.7.3-1.6 1.5-.8 1.2-2 2.2-2.5 2.2-.6 0-2.6 1.2-4.5 2.6-3.4 2.6-3.4 2.6-3.4.4 0-1.6.4-2.1 1.6-1.6 1.2.4 1.5.2 1-.9-.4-1 .8-2.5 3.6-4.5 4.8-3.5 3.5-3.9-2.5-.9-4.1 2.1-15.7 13.3-15.7 15.2 0 .5-.9.7-2 .4-1.2-.3-2-.1-1.9.6.3 2-1.2 4.7-2.6 4.7-.7 0-1.5.4-1.7.9-.1.5-2.2 3-4.5 5.4-2.3 2.5-3.9 4.7-3.6 5 .3.3-.4 1.8-1.6 3.3-1.1 1.5-2.1 3.4-2.1 4.3 0 1.3-.2 1.3-.9.2-.7-1-1.4.2-2.7 4.3-1 3.1-2.1 5.6-2.6 5.6-.4 0-.8.8-.8 1.7 0 .9-.9 4.2-1.9 7.2-1 3.1-2.2 6.9-2.5 8.6l-.6 3 2.5-2.8c1.4-1.5 2.5-3.6 2.5-4.6 0-1 .6-2.4 1.4-3 .7-.6 1.6-2.4 1.9-3.9.4-1.5 1.7-4.5 3.1-6.7l2.5-4 1.1 2.9c1.2 3.3.3 6.4-3.5 12-1.2 1.8-2.5 4.4-2.9 5.9-.3 1.5-1.1 2.7-1.6 2.7-.6 0-1 .8-1 1.8 0 2.5-2.3 7.2-3.6 7.2-.5 0-1.5-.5-2.2-1.2-.9-.9-1.2-.9-1.2.1 0 .7-.5.9-1 .6-.6-.4-1.7-.1-2.5.5-1.1 1-1.5 1-1.5.1 0-.7-.5-.9-1-.6-1.4.9 1.4 3.5 3.7 3.5 2.5 0 4.3 1.9 4.3 4.4 0 1.2.3 1.6.8 1 1.4-2.1 4-2.3 4.5-.4.3 1.3 1.1 1.7 2.4 1.4 1.5-.4 1.8-1.2 1.5-3.5-.3-2.4-.1-2.8 1.2-2.3 1.2.5 1.6 0 1.6-1.9 0-1.4.5-2.9 1-3.2.6-.4 2.8-4.1 4.9-8.3 3.7-7.3 9.1-14.8 9.1-12.7 0 .9-7.8 17.4-11.6 24.7-.8 1.4-1.4 3.4-1.4 4.3 0 .9-.4 1.4-.9 1-.5-.3-1.2-.1-1.6.5-.3.5.8 2.5 2.4 4.2 1.7 1.8 3.1 3.6 3.1 4 0 .5 1.9.8 4.3.8s4.7.4 5.2.9c.6.6 2.5.6 4.5.2 1.9-.4 4.7-.3 6.3.2 2 .7 3.4.5 5.2-.7 3.3-2.2 4.5-2 4.5.6 0 2.1 0 2.1 1.5.2 1.4-1.9 1.4-1.8 1.5.3 0 1.3.5 2.3 1.1 2.3.6 0 .9-.9.6-2-.3-1.1-.1-2 .4-2s.9.7.9 1.5c0 1.9 2.4 2 4.2.1.8-.7 2.7-1.6 4.3-1.9 6.9-1.2 14.8-3.6 15.8-4.6.6-.6 2.1-1.1 3.3-1.1 1.3 0 2.6-.5 2.9-1 .3-.6 1.6-1 2.9-1 1.3 0 3.1-.9 4.1-2 1-1.1 2.9-2 4.2-2 1.6 0 2.3-.6 2.3-1.8 0-2.9 3.8-5.8 13-9.8 4.7-2.1 9.2-4.3 10-5 .8-.7 3.6-2.2 6.3-3.3 2.6-1.1 4.7-2.5 4.7-3.1 0-.5.5-1 1.1-1 .5 0 2.4-1.3 4.2-2.9 1.7-1.7 4.2-3.3 5.6-3.6 1.3-.3 3.8-1.7 5.4-3.1 1.6-1.3 3.6-2.4 4.6-2.4 1 0 2.8-1.1 4.1-2.5 1.3-1.4 2.9-2.4 3.6-2.1.6.2 2.1-.4 3.3-1.5 2.3-2.2 6.6-4.1 7.4-3.3.3.3-.4 1.7-1.6 3.1-1.2 1.3-2.5 3.2-2.9 4.2-.5 1.5 0 1.8 3 1.9 5.2.2 6.3 2.2 5.8 10.4-.3 3.8-.1 9.1.3 11.8.8 4.7 0 7.3-1.4 5-1.2-1.9-3.1-1-4.2 2-.8 2.1-.8 3 .1 3.4.7.3.1 1.4-1.5 2.8-1.4 1.3-2.4 2.9-2.1 3.6.2.7-.1 1.2-.7 1.2-.5 0-1.1 1.2-1.3 2.7-.2 2.2-.9 2.9-3.1 3.1-1.9.2-2.7.8-2.3 1.7.7 1.9-.5 2.7-2 1.4-1.8-1.5-3.7-.1-3.1 2.3.5 1.6.2 1.9-1.3 1.5-1.9-.5-3.5 1.7-2.5 3.3.7 1.2-2.7 2.2-3.8 1.1-1.1-1.1-3.7 1-3.7 3 0 1 .3 1 1.2.1 2-2 2.8-1.4 2.6 1.7-.1 2-.9 3.1-2.1 3.5-1.4.3-1.7 1-1.2 2.5.5 1.7.2 2.1-1.4 2.1-2.3 0-2.8 1.6-.8 2.3.9.4.9.7 0 1.7-1 1.1-1.5 1.1-2.8 0-1.2-1-1.5-1-1.5.5 0 1 .7 2.7 1.7 3.7.9 1 1.2 1.8.6 1.8s-1.6 2.7-2.3 6.1c-1.3 6.2-1.5 6.4-7.7 8.3-1.7.6-2.3.3-2.3-.8 0-2.5-1.7-1.9-3.6 1.4-2.1 3.5-4.4 4.6-4.5 2.2 0-.9-.5-.2-1 1.7-.7 2.3-1.9 3.7-4 4.4-2.3.9-2.9 1.8-3 4.2-.2 3.1.2 10.5.7 14 .1 1.1.3 2.5.3 3.1.1.6 1.1 2.3 2.4 3.7 2.6 3 13.6 6.5 14.8 4.6.8-1.4 4.9.6 4.9 2.4 0 .7.6.3 1.2-.8s2.6-3.4 4.4-5.2c1.9-1.8 3.4-3.7 3.4-4.3 0-1.9 9.8-11 11.9-11 1.1 0 2.3-.5 2.6-1 .4-.6 1-.8 1.5-.5.4.2 2-.5 3.4-1.6 2.3-1.8 3.1-1.9 5.8-1 1.7.6 4.7 1.1 6.6 1.1 2.6 0 4.3.9 7.2 3.7 3.1 3.2 3.9 5 5 10.6 1.4 7.7 1 12.3-2.1 23.5-2.9 10.7-3.1 11.1-3.6 8.9-.6-2.4-1.3-2.1-5.2 2.4-3.3 3.9-3.4 4-1.5 6.2 1.1 1.2 1.2 1.7.4 1.1-.9-.7-2.3-.8-3.5-.3-1.1.4-1.5.8-.8.8.6.1.9 1 .6 2-.3 1.3.2 2.1 1.6 2.6 3 .9 2.6 2.5-.5 2.5h-2.7l2.6 2c1.4 1.1 3 2 3.6 2 1.5 0 1.4 2.7-.2 4.2-1 .8-1.2 2.2-.7 4.4.4 1.8.3 5.2-.2 7.6-.5 2.4-1.1 6.5-1.4 9.3-.2 2.7-1.1 5.9-1.9 7.2-.8 1.2-1.5 2.7-1.5 3.4 0 1.4-3.2 8.2-4.1 8.9-.4.3-1.3 1.8-1.8 3.3-.6 1.6-1.5 2.6-2 2.3-1.5-.9-2.9 1.7-3.3 6.1-.2 2.9 0 4.3.8 4.3.7 0 1 .8.7 2-.3 1.1-.9 1.8-1.3 1.5-.5-.3-1.2.4-1.5 1.6-.4 1.2-.2 2.4.4 2.8.6.4.7 1.8.3 3.6-.6 2.2-1.8 3.3-4.3 4.2-3.2 1.1-3.2 1.2-.7 1.2 1.5.1 2.9.5 3.2 1 1.1 1.8-1.3 5.9-3.6 6.3-1.3.2-2.7 1.3-3.3 2.6-1.2 2.7-2.9 2.4-3.3-.6-.4-2.8-2.3-2.9-1.9-.1.3 2.8-1.9 3.6-2.6.9-.8-3.1-9.5-3.1-13.9 0-1.5 1.1-4.6 2.3-7 2.6-2.4.4-4.6 1.2-5 1.8-.5.8-.8.7-.8-.2 0-.6-.7-1.2-1.5-1.2-2.4 0-1.7 1.7 1.3 2.9 1.5.7 5.8 3 9.7 5.2 5.8 3.3 8.3 4.1 15 4.8 4.4.5 8.3.6 8.8.4 1.1-.7.8 1.1-.9 5.2-.8 2-1.3 3.9-1 4.2.3.3 4.5-4.9 9.3-11.5 4.8-6.7 9.1-12.1 9.4-12.2 1.7-.1-.9 26.9-3 30.9-.8 1.4-1 4.1-.6 7.4.4 3 .2 6.4-.5 8.1-1 2.8-15.5 17.6-17.2 17.6-.4 0-.8.4-.8 1 0 .7 21.8 1 63.5 1H415V179.4l-5-4.4c-2.7-2.4-5-4.8-5-5.3 0-.4.5-.5 1-.2 1.9 1.2 1-2.1-1.1-3.8-1.9-1.7-2.2-1.7-3.3-.2-1.1 1.5-1.6 1.3-4.9-1.9-2.1-2-4.1-3.6-4.6-3.6s-1.5-.7-2.2-1.7c-.8-.9-5-3.3-9.4-5.4-4.4-2.1-8.7-4.3-9.5-4.8-.8-.5-3.6-1.9-6.2-3.1-2.6-1.2-6.3-3.2-8.2-4.5-1.9-1.3-3.7-2.1-3.9-1.8-1.4 1.4-2.7-4.7-3.1-14.8-.2-6.3-.7-13.2-1.1-15.5-.5-3-.2-5 1-7.3 2.1-4.2 4.7-17.6 4-21.5-.2-1.7-.7-4.5-.9-6.1-1.5-9.8-9.3-25.7-15-30.9C330.9 36.7 327 34 325 34c-2.5 0-4.9-2.5-5-5.2 0-1.7-2.2-2.7-6.7-3.1-1.2 0-1.9-.5-1.6-1 .7-1.1-1.6-3.7-3.3-3.7-.7 0-1.8.8-2.3 1.8-1.3 2.5-.2 7.2 1.7 7.2 1.5 0 1.5.2 0 1.7-1.6 1.5-1.6 1.7-.1 2.8 1 .8 1.3 1.9.9 3.3-.6 1.9-.9 2-2.1.8-.8-.7-2.5-1.2-3.9-1.1-1.9.2-2.6-.1-2.6-1.4 0-.9-.5-2.2-1.2-2.9-1.7-1.7-.2-2.7 1.7-1.2 1.2 1 1.9 1 2.8.1.9-.9.9-1.4-.3-2.1-2-1.3-4.7-1.2-5.5 0-.5.8-1.1.8-2 0-.7-.6-2.6-.8-4.2-.4l-2.8.6 2.3-1.7c1.3-.9 2.9-1.4 3.7-1.1 2.3.8 1.8-.7-.6-2.3-1.2-.7-2.4-.9-2.8-.4-.5.7-4 .9-7.9.5-.7-.1-1-.7-.6-1.3.5-.9-.1-1-2.2-.4-5.1 1.3-5.9 1.1-5.7-1.1.2-1.8-.7-2.4-5.5-3.8-7.7-2.1-13.5-2-20.2.5zm23.5 4.9c.3.5-.1 1-.9 1-.9 0-1.6.4-1.6 1 0 .5-.9 1-2.1 1-2.1 0-2.1 0 .2-2 2.7-2.2 3.5-2.4 4.4-1zm43.5 7c0 1.7-.5 1.9-2.6 1.6-3.4-.7-4.3-1.6-1.5-1.6 1.2 0 1.9-.4 1.6-1-.3-.6.1-1 .9-1 .9 0 1.6.9 1.6 2zm-20 1.4c0 .3-.4.8-1 1.1-.5.3-1 .1-1-.4 0-.6.5-1.1 1-1.1.6 0 1 .2 1 .4zm22 12.9c1.6 2.2 3 5.2 3 6.6-.1 2.2-.3 1.9-1.5-1.4-1.3-3.7-5.4-8-6.5-6.8-.3.3.1.8.8 1 .7.3 1.7 1.3 2.2 2.4 1.8 3.2-1.3 2.3-3.3-1-2.2-3.7-2.1-4.6.3-4.8 1.2-.1 3 1.3 5 4zm-8-2.1c0 .7-.5 2-1 2.8-.8 1.2-1 .9-1-1.3 0-1.5.5-2.7 1-2.7.6 0 1 .6 1 1.2zm-125 4.3c-.7.8-1.7 1.5-2.3 1.5-.5 0-.2-.9.8-2 2.1-2.3 3.5-1.9 1.5.5zm157 6.2c0 1-5.9-7-6-8.1 0-.5 1.4 1 3 3.2 1.7 2.3 3 4.5 3 4.9zm-161.3-2.2c-1.5 1.6-1.9 1.3-1.1-.9.3-.9 1-1.3 1.5-1 .5.3.3 1.1-.4 1.9zM177 56c0 .5-.5 1-1.1 1-.5 0-.7-.5-.4-1 .3-.6.8-1 1.1-1 .2 0 .4.4.4 1zm146.7 4.2c-.3.8-.6.5-.6-.6-.1-1.1.2-1.7.5-1.3.3.3.4 1.2.1 1.9zm-152.3 2.5c-1 1.5-2.1 3-2.5 3.3-.8.7-3.4 5.4-3.2 6 0 .3-1.1 1.6-2.4 3l-2.5 2.5.7-2.5c.4-1.4 1.3-3 2.1-3.6.8-.6 1.4-1.4 1.4-1.8 0-.4.5-1.2 1-1.9 4.6-5.4 6-7.3 6-8.1 0-.5.3-.7.6-.4.3.4-.3 1.9-1.2 3.5zM323 69c0 .5-.7.7-1.5.4-.8-.4-1.5-.8-1.5-1 0-.2.7-.4 1.5-.4s1.5.4 1.5 1zm10.1 4.2c1.6 2.3 2.9 4.6 2.9 5.2 0 .6-1-.5-2.2-2.4-1.2-1.9-3-4.2-4-5.1-1-.9-1.8-1.9-1.8-2.3 0-1.4 2.2.6 5.1 4.6zM166 76.4c0 .3-.4.8-1 1.1-.5.3-1 .1-1-.4 0-.6.5-1.1 1-1.1.6 0 1 .2 1 .4zM325.5 79c.3.5.1 1-.6 1-.8 0-.6.6.4 1.8 1.9 2.1 2.2 3.8.8 4.7-1.3.7-4.1-5.2-3.4-7.1.6-1.6 1.9-1.8 2.8-.4zM175 84.4c0 .3-.4.8-1 1.1-.5.3-1 .1-1-.4 0-.6.5-1.1 1-1.1.6 0 1 .2 1 .4zM323.5 90c.3.5-.1 1-1 1s-1.3-.5-1-1c.3-.6.8-1 1-1 .2 0 .7.4 1 1zm-141.5.3c0 .5-2.8 6.6-4.1 8.9-1.2 2.3-1.2 2.4.5 4.1 1 1 1.2 2.3.6 4.8l-.8 3.4-.1-3c-.2-3-.2-3-1.6.9-.7 2.1-2 4.3-2.7 4.7-4.5 3-6.5-3.9-2.5-8.7 2.9-3.5 6-9.4 5-9.4-.5 0-.1-.5.7-1 .8-.5 1.6-1.5 1.6-2.2.1-.7.2-1.6.3-2.1.1-.7 3.1-1.1 3.1-.4zm-23 13.4c-1.9 6.2-3.2 8.5-4.2 7.1-.4-.7-.8-2-.8-2.8 0-1.3.1-1.3 1 0 .8 1.2 1 1.1 1-.8 0-1.2.5-2.2 1.1-2.2.5 0 .8-.4.4-1-.6-.9 1.6-5.2 2.3-4.5.2.2-.1 2.1-.8 4.2zm22.8-1.7c1.2 1.9 1.1 2-.8.8-2-1.3-2.7-2.8-1.2-2.8.4 0 1.3.9 2 2zm138.5 16.5c.4.8.2 1.7-.3 2-.6.4-1-.3-1-1.4 0-2.5.6-2.7 1.3-.6zm88.7 135c-.7.9-1.5 1.3-1.9 1-.3-.3.1-1 .9-1.5 2.1-1.4 2.4-1.2 1 .5zm-66.8 5.7c-.9.9-1.2.7-1.2-1.2s.3-2.1 1.2-1.2c.9.9.9 1.5 0 2.4zm58.6-1.1c-.5 1.6-5.6 4.4-6.5 3.5-.9-.9 3.5-4.5 5.5-4.6.8 0 1.2.5 1 1.1zm3.2 4.9c0 .6-.8 1.4-1.7 1.7-1 .4-2.1 1.1-2.5 1.7-.5.8-.8.7-.8-.1 0-.6 1-1.9 2.2-2.7 2.7-1.9 2.8-1.9 2.8-.6zm-12 1.3c0 1.8-5.7 5-6.5 3.7-.7-1.2 3.3-4.9 5.3-5 .6 0 1.2.6 1.2 1.3zm4 5.7c0 .6-.8 1.4-1.7 1.7-1 .4-2.1 1.1-2.5 1.7-.4.6-1 .7-1.4.3-.4-.3.4-1.5 1.7-2.6 2.7-2.3 3.9-2.6 3.9-1.1zm-15.3 1.6c.4 1.3-8.6 7.9-9.5 7-.8-.9 7-8.6 8.2-8.2.6.1 1.1.7 1.3 1.2zm1.6 7.4c-1 1.1-2.7 2-3.9 2-1.2 0-2.5.6-2.7 1.2-.4.9-.6.9-.6.1-.1-.6 1.6-2 3.7-3.1 4.8-2.6 5.6-2.7 3.5-.2zM334 311c0 1.5-.7 2-2.7 2-2.5 0-2.6 0-.8-2 1-1.1 2.2-2 2.7-2 .4 0 .8.9.8 2zm0 6.4c0 .3-.4.8-1 1.1-.5.3-1 .1-1-.4 0-.6.5-1.1 1-1.1.6 0 1 .2 1 .4zm17 8c0 .3-.4.8-1 1.1-.5.3-1 .1-1-.4 0-.6.5-1.1 1-1.1.6 0 1 .2 1 .4zm-6.9 2.4c-1.3.2-2.7 0-3.2-.5-.6-.6.3-.7 2.3-.4 2.8.4 2.9.6.9.9zm18.4 7.7c-2.2 1.9-4.4 3.5-5 3.5-.5 0 .8-1.6 2.9-3.5 2.2-1.9 4.4-3.5 5-3.5.6.1-.7 1.6-2.9 3.5zm13.5 5.7c3.2 3.4 2.3 4.5-1 1.3-1.6-1.6-3-3-3-3.2 0-1 2.2 0 4 1.9zm-22 1.5c-.1 1.2-10 10.7-10.6 10.1-.3-.3 1.7-2.9 4.3-5.7 4.4-4.8 6.3-6.1 6.3-4.4zm-1.4 25.8c1.1 2.7-.1 3.9-1.9 2.1-1.7-1.7-1.5-3.6.4-3.6.5 0 1.2.7 1.5 1.5z"/><path d="M175.2 107c0 1.4.2 1.9.5 1.2.2-.6.2-1.8 0-2.5-.3-.6-.5-.1-.5 1.3zM111.6 18.8c-.3.6-.1 1.4.5 1.7 1.4.9 2 .2 1-1.4-.6-.8-1.1-.9-1.5-.3zM120.5 19c.3.5 1.3 1 2.1 1s1.2-.5.9-1c-.3-.6-1.3-1-2.1-1s-1.2.4-.9 1zM149.5 19c.3.5.8 1 1.1 1 .2 0 .4-.5.4-1 0-.6-.5-1-1.1-1-.5 0-.7.4-.4 1zM130.8 19.7c-1.1.3-1.8 1.4-1.8 2.7 0 1.8.5 2.2 2.8 2 4.8-.3 5.2-.4 5.2-1.5s-3-3.9-4-3.8c-.3.1-1.3.3-2.2.6zM183.5 21c.3.5.8 1 1.1 1 .2 0 .4-.5.4-1 0-.6-.5-1-1.1-1-.5 0-.7.4-.4 1zM187.5 21c-.3.5-.1 1 .4 1 .6 0 1.1-.5 1.1-1 0-.6-.2-1-.4-1-.3 0-.8.4-1.1 1zM107.7 21.7c-.5.7-.5 1.8-.2 2.3.4.6.1 1.8-.6 2.6-1.4 1.7-.4 3.3 1.2 1.7.6-.6.9-2.6.7-4.4-.2-2.2-.6-3-1.1-2.2zM139 24.1c0 .5.5.7 1 .4.6-.3 1-.8 1-1.1 0-.2-.4-.4-1-.4-.5 0-1 .5-1 1.1zM338.7 24.1c-1 .6-2.7.9-3.8.6-1.6-.4-1.9 0-1.9 2.5v3.1l2.6-2.7c1.5-1.4 3.3-2.6 4-2.6.8 0 1.4-.5 1.4-1 0-1.2 0-1.2-2.3.1zM121 26c0 1.1-.7 2-1.5 2s-1.5.4-1.5.9c0 2 1.6 1.8 4.5-.5 2.5-2 2.8-2.6 1.5-3.4-2.3-1.5-3-1.2-3 1zM329.2 26c0 1.4.2 1.9.5 1.2.2-.6.2-1.8 0-2.5-.3-.6-.5-.1-.5 1.3zM353 25.5c0 .8.5 1.5 1 1.5.6 0 1-.7 1-1.5s-.4-1.5-1-1.5c-.5 0-1 .7-1 1.5zM165 26.2c0 1-.4 1.8-1 1.8-2 0-1 2.8 1.6 4.5 1.4.9 2.7 1.5 2.9 1.3.1-.2.8-1.3 1.4-2.6 1-1.9.9-2.3-.6-2.9-1-.4-2.3-1.4-3-2.2-1.1-1.4-1.2-1.4-1.3.1zM171 25.4c0 .2.7.7 1.6 1 .8.3 1.2.2.9-.4-.6-1-2.5-1.4-2.5-.6zM176.5 26c.3.5.8 1 1.1 1 .2 0 .4-.5.4-1 0-.6-.5-1-1.1-1-.5 0-.7.4-.4 1z"/><path d="M112.7 29.9c.3 1.1-.2 2.1-1.1 2.4-1.8.7-2.2 3.7-.4 3.7.6 0 .9.3.5.6-.3.3-2-.1-3.8-1-3.9-2-3.9-2-3.9-.1 0 .8.8 1.5 1.8 1.5 1.8 0 5.2 2.9 5.2 4.4 0 1.2 2.7 3.6 3.3 2.9.4-.3.2-1.3-.2-2.2-1-1.7-.3-7.1.8-7.1.3 0 1.4 1.2 2.3 2.7l1.7 2.8.1-3c.1-2.5.2-2.7 1.1-1.3 1.3 2.2 2.5 2.3 3.3.2 1-2.5-1.1-4.3-4.5-3.9-2.4.3-3.2 0-3.9-2-1.1-2.9-3-3.4-2.3-.6zM150 29c0 .5.7 1 1.5 1s1.5-.5 1.5-1c0-.6-.7-1-1.5-1s-1.5.4-1.5 1zM323 29c2 1.3 3.3 1.3 2.5 0-.3-.6-1.4-1-2.3-1-1.5 0-1.5.2-.2 1zM141.7 29.7c-.4.3-.7 1.3-.7 2.1 0 1.2.3 1.2 1.5.2.8-.7 1.5-1.6 1.5-2.1 0-1.1-1.4-1.2-2.3-.2zM154 32.5c0 .9.7 1.8 1.6 2.2 1.8.7 6.6-1.6 5.8-2.9-.3-.4-1.5-.3-2.7.3-1.6.9-2.2.9-2.5 0-.5-1.6-2.2-1.3-2.2.4zM150.6 34.7c-.4.9-.1 2 .6 2.5 1.4.8.5 1.1-2.4.9-1.5-.2-1.8.6-1.8 3.8 0 2.3.5 4.1 1 4.1.6 0 1-1 1-2.2 0-1.7.3-1.9 1.2-1 .7.7 2.1 1.2 3.2 1.2 1.7 0 1.8-.2.5-1.8-.8-.9-1.4-3.4-1.3-5.5.1-3.8-.9-4.9-2-2zM135.1 35.6c0 1.1.3 1.4.6.6.3-.7.2-1.6-.1-1.9-.3-.4-.6.2-.5 1.3zM128 36.6c0 .3.4 1.4 1 2.4.8 1.5.6 2-1 2.5-2.3.7-2.7 3-.7 3.8 1.9.7 3.3-.4 4.1-3.1.5-1.4.3-2.2-.4-2.2s-1-.8-.7-2c.3-1.3 0-2-.9-2-.8 0-1.4.3-1.4.6zM157.5 38c.3.5.8 1 1.1 1 .2 0 .4-.5.4-1 0-.6-.5-1-1.1-1-.5 0-.7.4-.4 1zM164 37.9c0 .6.5 1.3 1 1.6.6.3 1-.1 1-.9 0-.9-.4-1.6-1-1.6-.5 0-1 .4-1 .9zM123.3 39.8c-.8.5-.9 1.3-.3 2.2.7 1.2 1 1.2 1.6-.3.8-2.1.3-2.9-1.3-1.9zM134.2 41.2c.6 1.8 2.8 2.1 2.8.4 0-.9-.7-1.6-1.6-1.6-.9 0-1.4.5-1.2 1.2zM167 43.2c0 1-.4 1.8-1 1.8-.5 0-1 .9-1 2s.6 2 1.3 2c2.1 0 6-4.7 5.4-6.4-.8-2.1-4.7-1.6-4.7.6zM380.2 42.9c.4 1.3 1.8 1.6 1.9.4 0-.4-.5-.9-1.1-1.2-.7-.2-1.1.2-.8.8zM160 43.4c0 .2.7.7 1.6 1 .8.3 1.2.2.9-.4-.6-1-2.5-1.4-2.5-.6zM47.1 48.1c0 1.5-.8 3.2-1.6 3.9-2 1.6-1.9 3.4.2 5.1 1.5 1.3 1.5 1.2.3-1-1.1-2.1-1-2.6.4-3.7 1.2-.8 1.6-2.2 1.3-4.1-.4-2.8-.4-2.8-.6-.2zM84.7 49.7c-1.2 1.1-.8 2.3.8 2.3.8 0 1.5-.7 1.5-1.5 0-1.6-1.2-2-2.3-.8zM72 50.7c.1 1.4 2.7 4.3 3.9 4.3.6 0 1.1-1.1 1.1-2.5 0-2-.5-2.5-2.5-2.5-1.4 0-2.5.3-2.5.7zM119.7 50.6c-1.4 1.4-.6 2.4 1.9 2.4 1.6 0 2.4-.5 2.2-1.3-.5-1.4-3.1-2.1-4.1-1.1zM156 51.5c0 1.7.2 1.8 2.4.9 2.3-.9 2-2.4-.4-2.4-1.1 0-2 .7-2 1.5zM80 52.5c0 .8-.4 1.5-.9 1.5-1.4 0-2.3 3.2-1.1 4.4 1.3 1.3 3.1-1 2.3-3-.2-.6 0-1.5.6-1.9 1.4-.8 1.4-2.5.1-2.5-.5 0-1 .7-1 1.5zM146.5 52c-.3.5-.1 1 .4 1 .6 0 1.1-.5 1.1-1 0-.6-.2-1-.4-1-.3 0-.8.4-1.1 1zM49 53.9c0 .5.5 1.3 1 1.6.6.3 1 .2 1-.4 0-.5-.4-1.3-1-1.6-.5-.3-1-.2-1 .4zM91 54c0 .5.5 1 1 1 .6 0 1-.5 1-1 0-.6-.4-1-1-1-.5 0-1 .4-1 1zM87 55c0 .5.3 1 .8 1 .4 0 1.5 1.4 2.4 3 1.3 2.3 2.4 3 4.8 3 2 0 3-.5 3-1.5 0-1.7-3.6-3.9-5.1-3-.5.4-1.8-.3-2.8-1.4-2-2.3-3.1-2.7-3.1-1.1zM385.7 54.9c-1.7.6-1.8.8-.3 2 1.8 1.5 2.9 1 3.2-1.4.2-1.6-.2-1.7-2.9-.6zM144.2 56.3c-2.6 1.5-1.9 2.7 1.5 2.7 1.6 0 2.3-.6 2.3-2 0-2.3-.6-2.4-3.8-.7zM61 56.9c0 .6.5 1.3 1 1.6.6.3 1-.1 1-.9 0-.9-.4-1.6-1-1.6-.5 0-1 .4-1 .9zM151.5 57.1c-.9 1.4-.2 2 1.4 1 .8-.6.9-1.1.3-1.5-.6-.3-1.4-.1-1.7.5zM126 58.5c.7.9 1.5 1.3 1.7 1.1.7-.7-.7-2.6-1.9-2.6-.6 0-.6.6.2 1.5zM82 64.5c.7.9 1.5 1.3 1.7 1.1.7-.7-.7-2.6-1.9-2.6-.6 0-.6.6.2 1.5zM97.7 64.6c-.3.4-.2 1.5.3 2.5 1.1 1.9-.2 3.5-1.9 2.5-.5-.3-1.2.4-1.6 1.7-.7 1.9-.9 1.6-1.5-1.8-.7-4.6-1.6-3.2-2.3 3.7-.6 6.3 1 7.8 6 5.4 3.1-1.5 3.5-2 3-4.5-.3-1.5-.1-3.3.4-3.8.6-.6.9-2.1.7-3.4-.3-2.3-1.9-3.5-3.1-2.3zM139.4 65.1c-.3.6-.1 1.6.5 2.2.8.8 1.1.5 1.1-1.1 0-2.4-.5-2.8-1.6-1.1zM85.6 66.9c-.9 1.4 1.2 9.1 2.4 9.1.6 0 1-1.1 1-2.4 0-3.1-2.6-8.1-3.4-6.7zM125.5 67c.3.5 1 1 1.6 1 .5 0 .9-.5.9-1 0-.6-.7-1-1.6-1-.8 0-1.2.4-.9 1zM153 67c0 .5.5 1 1 1 .6 0 1-.5 1-1 0-.6-.4-1-1-1-.5 0-1 .4-1 1zM354.2 68.1c.2.6 1.8 1.7 3.7 2.5 2 .9 3.1 1 2.9.3-.2-.6-1.8-1.7-3.7-2.5-2-.9-3.1-1-2.9-.3zM145 70c0 .5.5 1 1 1 .6 0 1-.5 1-1 0-.6-.4-1-1-1-.5 0-1 .4-1 1zM119.6 72.8c-.9 1.4.7 6.2 2 6.2 1.5 0 3.7-3.6 3-4.9-.7-1.1-4.5-2.1-5-1.3zM411 72.9c0 .8-.7 1.1-1.5.7-1.6-.6-2.1.9-.6 1.8 1.1.7 3.6-2.2 2.7-3.1-.3-.3-.6-.1-.6.6zM386 76.1c0 .5.5.7 1 .4.6-.3 1-.8 1-1.1 0-.2-.4-.4-1-.4-.5 0-1 .5-1 1.1zM413.1 77.7c.7 1 1.5 2 1.6 2.2.2.2.3-.3.3-1.1 0-.9-.7-1.9-1.6-2.2-1.5-.6-1.5-.4-.3 1.1zM379 80.4c0 2 .5 3.6 1 3.6.6 0 1-1.1 1-2.5s0-2.8.1-3.2c0-.4-.4-.9-1-1.1-.7-.2-1.1 1.1-1.1 3.2zM87.5 81c.4 1.1.2 2-.4 2-.6 0-1.1.7-1.1 1.5 0 2.3 1.7 1.8 2.4-.8.9-3.3.7-4.7-.5-4.7-.6 0-.8.9-.4 2zM116.6 80.5c.4.8 1 1.2 1.5.9 1.4-.8 1-2.4-.6-2.4-.9 0-1.2.6-.9 1.5zM386.5 81.2c-.6 1.6-.1 4.5.8 5.4.4.4.7-.2.7-1.4 0-1.1.5-2.4 1-2.7.6-.3 1-1 1-1.6 0-1.4-3-1.1-3.5.3zM121 84c0 .5.5 1 1 1 .6 0 1-.5 1-1 0-.6-.4-1-1-1-.5 0-1 .4-1 1zM123.7 84.5c-.4.8-.2 1.7.3 2 .6.4 1-.3 1-1.4 0-2.5-.6-2.7-1.3-.6zM367.8 85.7c-4 1-.1 4.3 5 4.3 2.3 0 4.5.6 5.2 1.5 1.9 2.3 4.3 2 3.1-.3-.7-1.3-.7-2.2.1-3 1.4-1.4-1.4-2.7-3.7-1.9-.8.4-1.7.2-2-.3-.6-1-4.5-1.1-7.7-.3zM389 88c-1.1 1.1-2 2.4-2 3 0 1.9 1.6 1 3.3-2 2.1-3.5 1.6-3.9-1.3-1zM72.5 90c-.6 1 4.4 3.5 5.3 2.6.6-.7-2.4-3.6-3.7-3.6-.5 0-1.3.5-1.6 1zM114.5 90c-.3.5-.1 1 .4 1 .6 0 1.1-.5 1.1-1 0-.6-.2-1-.4-1-.3 0-.8.4-1.1 1zM408.2 94.5c-2.6 3-2.7 3.5-.7 3.5.8 0 1.5-.5 1.5-1 0-.6.9-1 2-1 2.3 0 2.6-1.3.7-2.9-1.1-.8-1.9-.5-3.5 1.4zM117.5 94c.3.5 1 1 1.6 1 .5 0 .9-.5.9-1 0-.6-.7-1-1.6-1-.8 0-1.2.4-.9 1zM367 96c0 .5.5 1 1.1 1 .5 0 .7-.5.4-1-.3-.6-.8-1-1.1-1-.2 0-.4.4-.4 1zM108.7 96.7c-.8 1.7-.6 6.3.2 6.3 1.3 0 4.1-2.9 4.1-4.1 0-.6-.9-.7-2.2-.4-1.7.6-2 .4-1.5-.9.6-1.6.2-2.3-.6-.9zM98 101.1c.7 1.1 1.4 1.9 1.6 1.6.7-.7-.7-3.7-1.7-3.7-.6 0-.5.9.1 2.1zM392.2 104.2c.7 2.1 4.6 2.8 6.3 1.1 1.9-1.9 1.1-3.1-.9-1.4-1 .8-1.6.9-2.1.1-.9-1.4-3.8-1.3-3.3.2zM100 105.4c0 .9.5 1.6 1 1.6.6 0 1-.4 1-.9 0-.6-.4-1.3-1-1.6-.5-.3-1 .1-1 .9zM63.5 105.8c-.9.9-.5 2.2.7 2.2.6 0 2 .7 3 1.7 1.6 1.4 1.8 1.4 1.8 0 0-.8.2-2.2.5-3 .4-1-.2-1.4-2.5-1.4-1.6 0-3.2.3-3.5.5zM106.9 109.2c-.7 1.3-.7 2.4-.1 3 1.6 1.6 4.7.5 5-1.8.4-3-3.4-3.9-4.9-1.2zm1.8 2c-.3.8-.6.5-.6-.6-.1-1.1.2-1.7.5-1.3.3.3.4 1.2.1 1.9zM410 107.8c0 .6.7 1.2 1.5 1.6.8.3 1.5 1.2 1.5 2.1 0 .8.5 1.5 1.1 1.5.6 0 .9-1.2.7-2.8-.2-1.9-.9-2.8-2.5-3-1.3-.2-2.3.1-2.3.6zM127 111c0 .5.5 1 1.1 1 .5 0 .7-.5.4-1-.3-.6-.8-1-1.1-1-.2 0-.4.4-.4 1zM386.3 111.8c-.7.4-.9 1.3-.4 2.1.6.9 1 .7 1.4-.8.3-1.2.4-2.1.4-2.1-.1 0-.7.4-1.4.8zM117.8 112.7c-2.5.6-2.2 2 .5 2.7 3.4.9 3.7.8 3.7-1.4 0-2-.8-2.2-4.2-1.3zM395 114c0 .5.7 1 1.6 1 .8 0 1.2-.5.9-1-.3-.6-1-1-1.6-1-.5 0-.9.4-.9 1zM96.1 116.6c0 1.1.3 1.4.6.6.3-.7.2-1.6-.1-1.9-.3-.4-.6.2-.5 1.3zM103.3 118.5c0 .8.6 1.6 1.4 1.9 1.1.4 1.1.1.3-1.4-1.3-2.4-1.7-2.5-1.7-.5zM396 118c0 .5.5 1 1.1 1 .5 0 .7-.5.4-1-.3-.6-.8-1-1.1-1-.2 0-.4.4-.4 1zM125 119.4c0 .8-.3 2.1-.6 3-.9 2.4 2.2 3.1 5.1 1.2 2.1-1.4 2.4-2 1.5-3.6-1.2-2.3-6-2.8-6-.6zM381 118.9c0 .5.5 1.3 1 1.6.6.3 1 .2 1-.4 0-.5-.4-1.3-1-1.6-.5-.3-1-.2-1 .4zM399 119c0 .5.5 1 1.1 1 .5 0 .7-.5.4-1-.3-.6-.8-1-1.1-1-.2 0-.4.4-.4 1zM50 120c-1.3.8-1.2 1 .3 1 .9 0 1.7-.5 1.7-1 0-1.2-.1-1.2-2 0zM408.8 119.7c.7.3 1.6.2 1.9-.1.4-.3-.2-.6-1.3-.5-1.1 0-1.4.3-.6.6zM109.8 120.7c-3.5.9-1.8 2.9 2.1 2.4.7-.2 1.1.1.8.6-.3.5 1.2.9 3.3.9 2.8.1 3.7-.2 3.6-1.3-.4-2.2-3.6-3.8-4.6-2.3-.5.9-.9.9-1.4.1-.7-1.1-1-1.2-3.8-.4zM376.3 122.8c0 3.5 1 4.8 2.8 3.7.7-.5.6-1.2-.4-2.3-.8-1-1.7-2.4-2-3.2-.2-.8-.5 0-.4 1.8zM102.7 126.1c-1.3.8-1.5 1.4-.7 3 1.2 2.1 4 2.5 5.8.7 1.4-1.4 1.6-3.2.3-2.4-.5.3-1.1-.1-1.5-.9-.6-1.7-1.4-1.8-3.9-.4zM87.3 128.1c.9.5 1.7 1.7 1.7 2.4 0 .8.5 1.5 1 1.5.6 0 1-.4 1-.9 0-1.4-2.9-4.1-4.3-4.1-.7 0-.4.5.6 1.1zM97.3 128.8c1 1.1 1.7 2.6 1.6 3.4-.4 3 .2 4.3 1.1 2.3 1.5-3.5 1.1-5.1-1.7-6.4-2.7-1.2-2.7-1.2-1 .7zM112.6 129.5c1.4 4.4 4.5 4.5 3.7.1-.4-1.7-1.1-2.4-2.4-2.3-1.4.1-1.7.6-1.3 2.2zM125.6 131.1c-.9 5.6-.1 5.9 2.2 1 1.1-2.2 1.7-4.2 1.4-4.5-1.5-1.6-3-.2-3.6 3.5zM396 131.6c0 .8.5 1.2 1 .9.6-.4.8-1.1.5-1.6-.9-1.4-1.5-1.1-1.5.7zM14 132.4c0 .8-.3 2.1-.6 3-.3.9-.1 1.6.6 1.6.6 0 .9-.4.5-.9-.3-.5-.1-1.2.5-1.6 1.3-.8 1.3-3.5 0-3.5-.5 0-1 .6-1 1.4zM82.7 131.7c-.5.7-1.7 1.3-2.9 1.3-1.8 0-2 .4-1.4 3.1.3 1.7.6 3.7.6 4.3 0 .6.9 1.7 2.1 2.4 1.9 1.2 2 1.1 1.9-1-.3-3.7-.1-5 .9-4.4.5.3.7 3 .6 5.8-.3 3.5-.1 4.4.4 2.8.5-1.6 1.3-2.4 2.4-2.2 1.1.2 1.7-.4 1.7-1.8 0-1.1.5-2 1-2 .6 0 1-.9 1-2 0-2.7-1.8-2.6-2.2.2-.6 4-2.3 2.9-3.8-2.4-1-3.4-1.8-4.8-2.3-4.1zM374.5 132c-.8 1.3.5 1.3 2.5 0 1.3-.8 1.3-1-.2-1-.9 0-2 .4-2.3 1zM400 133c0 .5.5 1 1 1 .6 0 1-.5 1-1 0-.6-.4-1-1-1-.5 0-1 .4-1 1zM410.4 134.7c.6 3 2.2 5 3.3 4 .4-.4.1-1.3-.5-1.9-.7-.7-1.2-2-1.2-3s-.5-1.8-1-1.8c-.6 0-.8 1.2-.6 2.7zM59 134.6c0 .8.5 1.2 1 .9.6-.3 1-1 1-1.6 0-.5-.4-.9-1-.9-.5 0-1 .7-1 1.6zM105.7 134.4c-.4.9.4 1.3 2.4 1.4 3.1.1 3.9-1.2 1.3-2.2-2.3-.9-3.1-.7-3.7.8zM0 137c0 2.3 2.5 2.6 6.5.8 3.8-1.7 3-2.8-2-2.8-3.8 0-4.5.3-4.5 2zM397.5 139.7c.4 2.5.2 3.3-.8 3.3s-1.3.8-.9 2.5c.3 2 .7 2.3 1.8 1.4.8-.6 1.4-2.4 1.4-4s.5-2.9 1-2.9c.6 0 1-.8 1-1.8 0-1.1-.7-1.8-2.1-1.8-1.8 0-2 .5-1.4 3.3zM402.5 138c.4 1.1.2 2-.4 2-.6 0-1.1 1-1.1 2.3 0 1.3-.5 2.8-1.1 3.4-.6.6-.9 1.7-.7 2.3.3.9.9.8 2.1-.4.9-1 2.1-1.4 2.7-1.1 1.2.7 1.2-.2.1-3-.5-1.1-.4-2.5.1-3.2 1.2-1.5.4-4.3-1.2-4.3-.7 0-.9.8-.5 2zM406 137.9c0 1.1.5 2.3 1 2.6 1.1.7.9 9-.3 10.1-1.3 1.3-.7 2.2 1.1 1.7 1.4-.3 1.7-1.2 1.4-3.9-.3-2.6.1-3.9 1.4-4.9 1.8-1.3 1.8-1.4-.3-3.5-1.3-1.1-2.3-2.5-2.3-3 0-.6-.4-1-1-1-.5 0-1 .9-1 1.9zM74.5 138.2c-.8 2.1 0 4.8 1.5 4.8 1.2 0 1.2-1.7 0-4.5-.7-1.8-.8-1.9-1.5-.3zM386 140.4c0 .8.5 1.8 1 2.1.6.3 1-.1 1-.9s-.4-1.8-1-2.1c-.5-.3-1 .1-1 .9zM106 141.5c0 .8.8 1.1 2 .8 1.1-.3 2-.7 2-.8 0-.1-.9-.5-2-.8-1.2-.3-2 0-2 .8zM91.6 142.5c-.3.9 0 1.5.9 1.5.8 0 1.5-.7 1.5-1.5s-.4-1.5-.9-1.5-1.1.7-1.5 1.5zM98.3 141.7c-1.3.5-.7 3.3.7 3.3 1.1 0 2.1-2.8 1.2-3.3-.4-.3-1.2-.2-1.9 0zM378.9 142.3c-.9.7-1.9 2.5-2.3 4.2-.3 1.6-.3 2.5.1 2 1.3-1.6 5.3-3.6 6.2-3.1.4.3.8-.1.8-.8 0-.8-.9-1.2-2.1-1-1.2.3-1.5.2-.8-.2 1.3-.6 1.7-2.4.5-2.4-.5 0-1.5.6-2.4 1.3zM78.5 145c-1.1 1.8.3 5.7 2.4 6.3 2.1.5 2-.3-.5-5.1-.8-1.5-1.4-1.9-1.9-1.2zM102.5 145.1c-.4.6-.5 1.3-.2 1.6.7.7 2.7-.6 2.7-1.8 0-1.2-1.7-1.2-2.5.2z"/><path d="M411.2 145.7c.5 2.6 3.8 2.9 3.8.4 0-1.5-.6-2.1-2.1-2.1-1.4 0-1.9.5-1.7 1.7zM108.8 146.7c.7.3 1.6.2 1.9-.1.4-.3-.2-.6-1.3-.5-1.1 0-1.4.3-.6.6zM98.9 148.2c-.1.2-.3 1.3-.4 2.6-.2 1.6.6 2.7 2.5 3.7 2.6 1.4 2.8 1.3 3.3-1 .3-1.9 0-2.5-1.4-2.5-1.1 0-1.9-.7-1.9-1.5 0-1.2-1.6-2.2-2.1-1.3zM383 148.9c0 .5.6 1.4 1.4 2 1.1.9 1.5.8 2-.5.9-2.3.8-2.4-1.4-2.4-1.1 0-2 .4-2 .9zM88.7 149.7c-.4.3-.7 1.1-.7 1.7 0 .6.5.5 1.2-.2.6-.6.9-1.4.7-1.7-.3-.3-.9-.2-1.2.2zM395.8 149.5c-1 1 .5 7.5 1.8 7.5.8 0 1.4-.6 1.4-1.4 0-1.8-2.6-6.7-3.2-6.1zM401.6 153c-1 3.1-1.5 9.5-.7 8.1.7-1.1 1-1.1 1.7.1 1 1.7 6.2 2.9 7 1.7.9-1.6 2.3-.9 2.6 1.3.2 1.2.9 2.3 1.6 2.6.8.2 1.2-1 1.2-4 0-4.6-1.4-5.5-4.9-3.4-.8.5-1.7.3-2.2-.5-.7-1.1-.9-1-.9.4 0 1.6-.2 1.6-2.5.1-1.9-1.2-2.2-2-1.6-3.3.6-1 .6-2.3.1-3.1-.8-1.2-1-1.2-1.4 0zM411.7 152.7c-.4.3-.7 1.3-.7 2.2.1 1.3.3 1.3 1.1-.2 1.1-1.9.8-3.3-.4-2zM98.9 158.4c.9 1.1.9 1.5 0 1.8-.9.3-.5 1.4 1 3.5 1.3 1.7 2.1 3.6 1.7 4.1-.8 1.4 1.8 2.2 3.5 1.1 1.1-.7 1.1-1.1.1-1.7-.7-.5-1-1.6-.7-2.5.4-1-.1-2-1.4-2.7-1.2-.6-2.1-2-2.1-3 0-1.2-.7-2-1.6-2-1.3 0-1.4.3-.5 1.4zM120.4 159.2c.3 1.3.6 3.1.6 4.1 0 1 .5 1.5 1 1.2.6-.3 1-2.2 1-4.1 0-2.5-.4-3.4-1.6-3.4-1.2 0-1.5.6-1 2.2zM278.7 157.7c-1.2 1.1-.8 2.3.8 2.3.8 0 1.5-.7 1.5-1.5 0-1.6-1.2-2-2.3-.8zM105.2 159.5c-1.1 1.3-.9 1.7 1.3 2.5 1.5.6 2.9 1 3.2 1 .3 0 1.1.7 1.8 1.7 1 1.3 1.1 1.1.7-1.5-.2-1.8-1-3.2-1.8-3.2s-1.4-.5-1.4-1c0-1.5-2.3-1.1-3.8.5zM113.6 158.8c-.3.6-.1 1.4.5 1.7 1.5 1 2.5-.3 1.2-1.6-.7-.7-1.3-.7-1.7-.1zM117.1 169.6c0 1.1.3 1.4.6.6.3-.7.2-1.6-.1-1.9-.3-.4-.6.2-.5 1.3zM272 169c0 .5.4 1 .9 1 .6 0 1.3-.5 1.6-1 .3-.6-.1-1-.9-1-.9 0-1.6.4-1.6 1zM412.8 170.5c-1.5 1.9-1.5 2.5-.3 4.1 1.2 1.7 1.4 1.7 2 .2.4-.9.5-2.8.3-4.1l-.3-2.5-1.7 2.3zM121 171.1c0 .7-1.2 2.3-2.6 3.6-1.4 1.3-2.3 2.7-2 3.1.4.3 1.1 0 1.6-.7.4-.8 1.5-1.1 2.4-.8 1.3.5 1.6-.1 1.6-2.8 0-1.9-.2-3.5-.5-3.5s-.5.5-.5 1.1zM105.8 172.7c.7.3 1.6.2 1.9-.1.4-.3-.2-.6-1.3-.5-1.1 0-1.4.3-.6.6zM94 174.1c0 .5.5.7 1 .4.6-.3 1-.8 1-1.1 0-.2-.4-.4-1-.4-.5 0-1 .5-1 1.1zM83 180.5c0 .8.5 1.5 1 1.5.6 0 1-.7 1-1.5s-.4-1.5-1-1.5c-.5 0-1 .7-1 1.5zM108 184c.8.5 2 1 2.5 1 .6 0 .3-.5-.5-1s-1.9-1-2.5-1c-.5 0-.3.5.5 1zM89 185.1c0 .5.5.7 1 .4.6-.3 1-.8 1-1.1 0-.2-.4-.4-1-.4-.5 0-1 .5-1 1.1zM251.5 193c.3.5 1.3 1 2.1 1s1.4-.5 1.4-1c0-.6-.9-1-2.1-1-1.1 0-1.7.4-1.4 1zM307 204c-2.2 2.2-2.6 4-.9 4 .5 0 .7-.5.4-1-.3-.6 0-1 .7-1s1.9-.9 2.6-2c.7-1.2.8-2 .2-2-.5 0-1.9.9-3 2zM161.7 209.1c-1 .6-2.5.8-3.3.5-1.8-.7-1.8.4.2 3.2.8 1.2 2.4 2.2 3.4 2.2s2.1.4 2.5.9c.3.5 3.1 1.5 6.3 2.2 3.1.7 6.2 1.7 6.7 2.4.6.7 2 1.5 3.3 1.9 1.6.6 2.2.3 2.2-.8 0-2.2 2.9-2 3.7.1 1 3 4.5 6.3 6.7 6.3 1.1 0 3-1 4.3-2.2 1.3-1.2 2.3-1.6 2.3-1 0 .7 1.4 1.2 3 1.2 2.5 0 3 .4 3 2.4 0 2.3 0 2.3 3.5.8 5.7-2.6 4.2-5.3-4.5-8.5-1.6-.6 2-1.1 5.3-.8 2.7.3 2-2.5-1-3.8-10.4-4.1-19.2-6.1-31.4-7-15.6-1.3-14-1.3-16.2 0zm30.8 7.9c.3.5 1.7 1 2.9 1 1.3 0 2.9.6 3.5 1.4 1.1 1.3.7 1.3-2.6.5-3.8-1.1-7.9-3.9-5.6-3.9.7 0 1.5.4 1.8 1zM301.6 212.9c-.4.5-.2 2.1.4 3.6 1.3 3.4 1.3 3.5-.5 3.5-.8 0-1.5-.7-1.5-1.6 0-.9-.5-1.2-1.1-.8-1.3.7-.6 8.1.8 9.5.5.5 2.4.6 4.1.3 2.4-.5 3.2-1.2 3.2-2.8 0-1.2-.6-2.8-1.2-3.5-1.1-1-.9-1.5.6-2.7 1.1-.8 2.6-1.4 3.3-1.4 2.5 0 1.3-1.6-2.5-3.3-4.5-2-4.9-2-5.6-.8zM297.5 236c-2.1 1.4-2.5 2-1.3 2 2.3 0 6.8-2.1 6.8-3.2 0-1.4-2.4-.9-5.5 1.2zM289 243.1c0 .5.5.7 1 .4.6-.3 1-.8 1-1.1 0-.2-.4-.4-1-.4-.5 0-1 .5-1 1.1zM283.7 254c-.3 1.1-.1 2 .4 2s.9-.9.9-2-.2-2-.4-2-.6.9-.9 2zM161 293c0 .5.8 1 1.8 1s2.2.4 2.8 1c1.6 1.6 16.6 5.3 20.9 5.1 7.6-.4 5.9-2.3-2.3-2.7-3.1-.1-9.2-1.4-13.5-2.8-8.6-2.9-9.7-3.1-9.7-1.6zM281.1 298.6c0 1.1.3 1.4.6.6.3-.7.2-1.6-.1-1.9-.3-.4-.6.2-.5 1.3zM172 304.8c0 2.2 9 3.6 11.5 1.8 1.9-1.4 1.8-1.5-1.5-1.5-1.9.1-5-.2-6.7-.6-2.1-.5-3.3-.3-3.3.3zM273.2 337.2c.6 1.8 2.5 2 3.1.3.5-1 0-1.5-1.4-1.5-1.2 0-1.9.5-1.7 1.2zM251 339.5c-1.5 1.8-.5 3.5 2.3 3.5 3 0 5.1-1.5 4.5-3.2-.8-1.8-5.3-2.1-6.8-.3zM63.8 347.1c-1 .5-1.8 1.6-1.8 2.4 0 1.1.6 1.2 2.5.5 2.1-.8 2.5-.7 2.5.8s.2 1.5 1 .2c.6-1 .6-1.6 0-1.8-.6-.2-1-1-1-1.8 0-1.6-.8-1.7-3.2-.3zM58.1 348.9c-.6 1-.7 2.1-.4 2.5 1.2 1.2 1.8.6 1.8-1.9 0-3-.1-3.1-1.4-.6zM24.4 350.8c-1.8 1.2-2.6 4.5-1.2 5.4 1.1.6 1.1 1 0 1.6-.7.5-1 1.6-.6 2.5.7 1.9 2 2.2 2.9.7.5-.7 1.1-.8 1.9-.1.8.7 1.5.4 2.4-.9 1.5-2.5-.3-3.7-2.4-1.6-2.1 2.2-2.2 2.1-2-2.3 0-2.2.4-3.7.8-3.5.4.3.5-.2.2-1-.7-1.8-.6-1.8-2-.8zM40 355.5c-.7.9-.8 1.5-.2 1.5.5 0 1.2-.7 1.6-1.5.3-.8.4-1.5.2-1.5s-.9.7-1.6 1.5zM44.9 355.2c-.4 1.3-.5 5.5-.2 6.1.3.4 1.3-.2 2.4-1.4 1.4-1.7 1.6-2.5.8-3.6-1-1.1-2.7-1.8-3-1.1zM18.7 357.5c.6 1.7 2.5 1.5 3.1-.3.2-.7-.5-1.2-1.7-1.2-1.4 0-1.9.5-1.4 1.5zM56.5 360.7c.3 4.1.4 4.5 1.3 3.9.5-.3.8-1.5.6-2.8-.1-1.3-.3-2.6-.3-3.1-.1-.4-.5-.7-1-.7-.4 0-.7 1.2-.6 2.7zM18 362c0 1.1.6 2 1.4 2 2.1 0 3.1-2.1 1.5-3.1-2.2-1.4-2.9-1.1-2.9 1.1zM220 364c-3.5 3.5-1.8 8.9 3.7 11.5 3.9 1.9 6.8 1.3 8.9-2 2.1-3.2.9-7-3.1-9.5-4.1-2.5-7-2.5-9.5 0zM39 365.7c-1.4 1.4-2 2.3-1.4 1.9.7-.3 1.5.1 1.8 1 .8 2.1 3.5.1 3.1-2.4-.1-.9 0-1.1.2-.5.3.7.9 1.3 1.4 1.3.6 0 .8.4.5.8-.2.4-.1 1.4.5 2.2.7 1.3.9 1.2.9-.3 0-1.4.9-1.7 4.6-1.7 2.7 0 4.3-.4 3.9-1-.3-.6-1.8-1-3.3-1-1.5-.1-3.8-.7-5.2-1.5-3.4-1.9-4.1-1.8-7 1.2zM25.1 366.6c0 1.1.3 1.4.6.6.3-.7.2-1.6-.1-1.9-.3-.4-.6.2-.5 1.3zM31 369c-1 2.4-1.9 3-4.2 3-2.5 0-2.8.3-2.3 2 .4 1.2.2 2-.5 2-.6 0-.9.8-.6 1.8.6 1.8-3 4.9-4.2 3.7-.4-.3-.1-1 .6-1.4 1.8-1.1.4-4-1.7-3.4-1.4.3-1.7 1.6-1.6 7.1 0 6.2.2 6.7 2.5 7.3 4.9 1.4 5.8 1 6.5-2.4.4-1.7 1.2-3.5 1.8-3.9.6-.4.8-1 .4-1.4-.3-.4-1.3-.2-2 .5-1.1.9-1.7.7-2.8-.6-1.2-1.5-1.2-1.6.4-1 .9.3 1.7.2 1.7-.3 0-.6.3-.9.8-.9.4.1 1.2 0 1.7-.1.6-.1 1.9-.3 2.9-.4 1.1 0 2.1-.7 2.4-1.5.4-1.1-.2-1.3-2.7-.8-2.3.5-3.1.3-3.1-.8 0-1.3.8-1.5 7.1-1.6 1.8 0 3-.8 3.7-2.4 1-2.1.8-2.8-1.4-5-3.2-3.2-3.9-3.2-5.4.5zM56.5 371.1c-1.2 1.9.5 2.3 2.2.6 1.6-1.6 1.6-1.7.1-1.7-.9 0-2 .5-2.3 1.1zM49.3 371.7c-1.3.2-2.3 1.1-2.3 1.9 0 .8-.4 1.2-1 .9-.5-.3-1-.1-1 .4 0 .6-.4 1.1-1 1.1-.5 0-1-.7-1-1.5s-.4-1.5-.9-1.5c-1.7 0-2.6 2.4-2.6 6.5 0 3.9-.1 4-3.2 3.9-2.7-.2-3.3.2-3.3 1.7 0 1.1 1.1 3.1 2.5 4.5 2.6 2.6 3.3 4 1.4 2.8-.6-.3-1.6 0-2.1.7-.8 1.1-.9 1-.4-.4 1-3.3-.4-1.7-2.8 3.2-1.4 2.6-3.9 6-5.6 7.4-3.8 3.2-3.8 5.3 0 7.5 1.6.9 3 2.3 3 2.9 0 1.5 1.6 1.7 2.4.4.3-.4-.7-1.8-2.3-3-2-1.5-2.7-2.8-2.4-4.2.3-1 .9-1.9 1.4-1.9.5 0 .6.8.2 1.7-.6 1.6-.4 1.6 1.5-.1 1.2-1.1 3.6-1.9 5.2-1.9 1.8 0 2.9-.5 2.7-1.1-.2-.6-1.4-1-2.6-.9-1.6.2-2.1-.3-2.1-2.1s.8-2.7 2.9-3.4c1.6-.6 3.1-.8 3.4-.6.2.3.2-.7 0-2.1-.3-1.5-.1-2.5.6-2.5.6 0 1.1.7 1.1 1.5 0 1.8.2 1.8 3.4.3 3.5-1.5 4-4 1.7-8.1-1.6-2.9-1.7-3.6-.5-4.1.8-.3 1.4-1 1.4-1.6 0-.6-.4-.8-1-.5-1.2.8-1.3-.5-.1-2.4.7-1.1 1.3-1.1 3.2 0 2 1.1 2.1 1.4.7 1.7-1.9.4-1.5 2.4 1.1 5.8 1.3 1.6 1.9 1.8 2.8.9 1.9-2 2.5-5.5 1.3-7-1-1.2-.9-1.5.8-1.5 1.5 0 2-.5 1.6-1.5-.4-.8-1.2-1.5-1.9-1.5s-1.5-.7-1.9-1.5c-.3-.8-.9-1.4-1.3-1.4-.4.1-1.8.4-3 .6zm4.2 9.3c.3.5.1 1-.4 1-.6 0-1.1-.5-1.1-1 0-.6.2-1 .4-1 .3 0 .8.4 1.1 1zM43 383.1c0 .5-.4.9-1 .9-.5 0-1-.7-1-1.6 0-.8.5-1.2 1-.9.6.3 1 1 1 1.6zm1.5 5.9c.3.5.1 1-.4 1-.6 0-1.1-.5-1.1-1 0-.6.2-1 .4-1 .3 0 .8.4 1.1 1z"/><path d="M35.3 378.5c-1.7 1.9-1.6 2.2.7 3.5 1.8 1 2 .8 2-2 0-3.3-.8-3.7-2.7-1.5zM27.7 390.1c-.3 1.2-.2 3.1.3 4.2.8 2.1.8 2.1 1.9-.6.6-1.6 1.1-3.5 1.1-4.3 0-2.2-2.7-1.7-3.3.7zM52.4 388.8c-1.1.7-1.2 7.8-.1 8.9 1.1 1.1 1.6-.1 2.2-5 .6-4.6.1-5.4-2.1-3.9zM21.8 397.6c-.3 2.1-.5 4-.4 4.1.1.1 1.2-.6 2.4-1.6 2.3-1.7 2.3-1.7.4-4.1l-1.9-2.4-.5 4zM47 395c0 .5.7 1 1.5 1s1.5-.5 1.5-1c0-.6-.7-1-1.5-1s-1.5.4-1.5 1zM45.7 400c-.4 1.7-.2 2 1.5 1.4 1.7-.5 1.9-.3 1.3 1.7-.7 2.1-.6 2.2.9 1 2.4-2 2.1-5.5-.4-4.8-1.1.3-1.8.1-1.4-.4.3-.5.1-.9-.4-.9s-1.2.9-1.5 2zM40.9 401.9c2 1.3-1.9 5.4-4.2 4.5-1.2-.4-1.7-.1-1.7 1.1 0 1-.7 2.3-1.6 2.9-.8.6-1.2 1.8-.9 2.7.4 1.1 2.4 1.5 8.4 1.5 7.9.1 7.9.1 4.8-1.5-2.2-1.1-3.2-2.3-3.1-3.9 0-1.2-.3-2.2-.8-2.2s-.6-.5-.3-1c.4-.7 1.3-.7 2.6 0 2.2 1.3 2.6-.2.4-2-.8-.7-1.2-1.6-.9-2.1.3-.5-.5-.9-1.8-.9-1.7 0-1.9.3-.9.9z"/><path d="m49.1 408.4-2.2 2.4 3.4 2.1c4.5 2.7 5.7 2.7 5.7-.4 0-1.4-.4-2.5-.9-2.5s-1.3-.9-1.6-2c-.8-2.6-1.7-2.5-4.4.4zM55 408c0 .5.5 1 1 1 .6 0 1-.5 1-1 0-.6-.4-1-1-1-.5 0-1 .4-1 1zM1.1 410.7c-.6 1.1-.4 2.1.4 3 2.1 2 3.5 1.6 3.5-1.1 0-2.9-2.6-4.2-3.9-1.9zM12.8 414.7c.6.2 1.8.2 2.5 0 .6-.3.1-.5-1.3-.5-1.4 0-1.9.2-1.2.5z"/></svg>