<?xml version="1.0" standalone="no"?>
<!DOCTYPE svg PUBLIC "-//W3C//DTD SVG 20010904//EN"
 "http://www.w3.org/TR/2001/REC-SVG-20010904/DTD/svg10.dtd">
<svg version="1.0" xmlns="http://www.w3.org/2000/svg"
 width="415.000000pt" height="415.000000pt" viewBox="0 0 415.000000 415.000000"
 preserveAspectRatio="xMidYMid meet">
<metadata>
Created by potrace 1.11, written by Peter Selinger 2001-2013
</metadata>
<g transform="translate(0.000000,415.000000) scale(0.100000,-0.100000)"
fill="#000000" stroke="none">
<path d="M30 4137 c0 -7 6 -19 13 -26 10 -11 7 -13 -16 -9 l-27 5 0 -245 c0
-221 2 -246 17 -258 17 -13 17 -13 1 -14 -17 0 -18 -16 -18 -187 0 -163 2
-189 18 -206 9 -11 12 -17 5 -14 -19 12 -27 -15 -9 -29 10 -7 15 -18 11 -24
-6 -9 -10 -9 -16 1 -6 10 -9 10 -9 2 0 -6 5 -15 10 -18 8 -5 7 -11 -1 -21 -8
-10 -8 -22 -1 -44 7 -18 7 -32 1 -35 -5 -4 -9 -28 -9 -56 0 -50 13 -62 38 -37
6 6 27 17 46 23 30 10 41 9 77 -6 50 -23 46 -23 52 -1 3 9 4 -2 4 -25 -2 -33
-7 -45 -24 -54 -16 -9 -23 -22 -23 -41 0 -43 -17 -70 -41 -63 -10 4 -19 2 -19
-3 0 -5 -13 -7 -29 -4 -16 2 -32 -1 -35 -7 -4 -6 -16 -11 -27 -11 -18 0 -19
-9 -19 -270 0 -250 1 -270 18 -270 16 -1 16 -1 -1 -14 -15 -12 -17 -34 -17
-210 l0 -196 28 0 c30 0 55 -13 52 -26 -2 -5 10 -16 26 -24 15 -9 29 -21 30
-28 1 -7 0 -8 -3 -2 -2 5 -11 10 -19 10 -10 0 -13 -7 -8 -24 5 -21 2 -23 -25
-22 -31 1 -46 26 -16 26 8 0 15 5 15 10 0 21 -44 70 -62 70 -17 0 -18 -14 -18
-200 0 -193 1 -200 20 -200 11 0 20 -4 20 -10 0 -5 -9 -10 -20 -10 -20 0 -20
-5 -19 -405 1 -387 2 -405 19 -405 20 0 33 -13 23 -23 -3 -4 -14 -2 -24 4 -16
8 -19 6 -19 -10 0 -13 9 -21 33 -25 26 -5 32 -11 34 -33 1 -27 1 -27 -15 -6
-10 11 -25 23 -34 26 -16 6 -18 0 -18 -46 0 -29 5 -58 11 -64 8 -8 8 -13 0
-17 -6 -4 -11 -31 -11 -60 0 -42 5 -57 23 -74 26 -24 45 -19 21 5 -8 9 -12 18
-9 21 3 3 13 -1 22 -10 14 -15 18 -15 40 -1 28 19 46 7 19 -12 -11 -9 -16 -20
-12 -31 4 -12 2 -15 -9 -11 -20 8 -28 -8 -11 -22 11 -9 15 -9 19 1 3 7 6 3 6
-9 1 -17 -3 -20 -22 -15 -18 5 -20 3 -10 -9 7 -8 10 -24 7 -36 -5 -19 0 -22
47 -28 44 -6 55 -5 66 11 15 21 12 66 -5 72 -18 6 -27 -28 -13 -49 14 -23 3
-25 -46 -7 -38 14 -42 25 -10 30 23 3 24 10 13 68 l-7 35 24 -27 c23 -25 25
-25 30 -7 5 18 -15 49 -32 49 -5 0 -6 12 -4 27 4 21 2 24 -6 13 -5 -8 -13 -11
-17 -8 -10 11 4 40 16 33 5 -3 10 0 10 8 0 8 -13 17 -28 20 -38 8 -92 56 -85
75 5 12 9 11 22 -6 9 -11 29 -22 44 -26 26 -6 27 -5 18 13 -6 11 -8 27 -5 35
5 12 2 15 -12 9 -14 -5 -16 -3 -11 11 4 10 7 19 7 21 0 8 48 -11 73 -29 l28
-21 19 25 c22 28 23 30 12 47 -10 16 -48 18 -90 5 -30 -10 -34 -9 -44 14 -13
27 0 44 33 44 11 0 19 12 23 33 6 29 2 36 -35 70 -22 20 -44 37 -47 37 -8 0
-44 61 -39 66 2 2 17 -9 34 -25 28 -25 31 -26 41 -10 7 10 20 23 31 29 18 9
20 7 18 -17 -2 -20 -8 -28 -22 -28 -11 0 -20 -6 -19 -13 2 -29 4 -35 11 -29 3
4 13 -2 21 -14 18 -25 50 -21 70 9 15 24 15 24 -21 17 -36 -7 -37 -6 -29 16 5
13 14 25 20 27 8 2 10 -3 5 -15 -6 -16 -5 -17 13 -3 40 31 52 73 28 98 -8 7
-14 19 -14 25 0 7 5 4 11 -6 7 -12 14 -15 22 -9 9 8 13 -2 14 -36 1 -25 7 -50
12 -55 5 -5 7 -25 4 -44 -5 -27 -2 -37 16 -49 27 -19 48 -56 28 -48 -9 3 -17
-3 -20 -16 -4 -15 0 -23 16 -29 32 -13 42 -12 43 2 0 6 4 20 8 29 9 21 0 38
-20 38 -8 0 -14 3 -14 6 0 12 49 52 71 59 15 5 18 10 10 18 -13 13 -15 47 -3
47 14 0 40 -33 57 -72 8 -20 23 -42 32 -47 10 -6 13 -11 6 -11 -16 0 -11 -52
5 -58 6 -2 13 1 13 7 1 6 3 16 4 21 1 6 3 17 4 25 1 11 13 15 41 15 28 0 40 4
40 14 0 11 -8 12 -33 6 -34 -7 -96 8 -67 17 47 14 45 13 30 24 -13 8 -13 11 2
23 10 7 18 21 18 30 0 19 4 20 31 6 29 -16 24 6 -7 26 -17 11 -22 20 -15 27 7
7 18 4 35 -7 30 -19 32 -13 12 27 -8 15 -11 27 -6 27 15 0 42 60 35 78 -5 13
-2 12 13 -3 17 -17 18 -22 6 -36 -8 -8 -14 -23 -14 -32 0 -9 -5 -19 -10 -22
-6 -3 -10 -12 -10 -18 1 -14 70 -91 76 -84 3 3 7 20 9 38 3 18 12 37 20 42 14
7 13 13 -11 44 -19 24 -23 38 -16 45 8 8 15 3 23 -16 11 -22 14 -24 21 -11 15
27 26 8 23 -42 -3 -64 -3 -63 -20 -63 -21 0 -19 -17 3 -23 14 -4 14 -6 -5 -12
-13 -4 -23 -14 -23 -22 0 -8 -4 -12 -8 -9 -4 2 -14 1 -22 -5 -13 -7 -12 -9 3
-9 24 0 21 -27 -4 -33 -12 -3 -18 -10 -14 -16 3 -6 11 -9 16 -6 5 4 9 -3 9
-14 0 -26 -17 -27 -43 -4 -15 13 -21 15 -24 6 -3 -7 -14 -13 -25 -13 -17 0
-18 -3 -8 -15 10 -12 10 -15 -4 -15 -9 0 -16 -4 -16 -9 0 -5 24 -8 52 -7 40 1
53 -3 55 -14 5 -26 -14 -43 -46 -43 -33 0 -38 -6 -21 -23 12 -12 2 -47 -10
-39 -5 3 -11 1 -15 -5 -3 -5 3 -10 14 -10 12 0 21 6 21 13 0 7 8 17 19 24 20
12 20 16 -4 -97 -10 -43 -23 -70 -35 -70 -6 0 -6 9 0 25 10 27 -6 47 -20 25
-4 -7 -17 -10 -29 -7 -24 6 -29 -14 -7 -32 12 -10 12 -16 0 -39 -20 -38 -18
-63 4 -55 9 4 23 15 30 25 23 32 31 20 25 -40 -6 -69 -31 -132 -44 -111 -6 10
-9 6 -9 -13 0 -30 9 -35 28 -16 9 9 12 8 12 -5 0 -16 52 -17 773 -17 l774 0
-5 30 c-3 23 0 31 14 36 11 3 28 10 38 16 15 8 18 7 13 -5 -4 -10 0 -14 11
-13 20 3 41 -21 42 -46 0 -18 30 -26 30 -9 0 5 -15 46 -34 92 -18 46 -52 142
-76 214 -37 112 -44 147 -50 255 -8 120 -6 158 7 112 9 -36 23 -25 23 17 0 22
5 43 10 46 14 9 12 46 -4 93 -11 30 -12 40 -2 36 10 -4 110 -193 150 -284 38
-87 216 -509 231 -547 16 -40 20 -43 55 -43 36 0 41 4 70 52 89 149 120 204
120 213 -1 10 -27 -18 -57 -60 -13 -19 -15 -19 -24 -2 -13 22 -29 22 -29 0 0
-15 -4 -13 -22 7 -42 47 -69 91 -70 113 -1 12 -5 27 -8 32 -13 19 -9 73 6 79
9 3 14 19 14 42 0 42 -31 82 -173 226 -118 120 -183 208 -173 234 7 19 26 18
26 -1 0 -9 6 -12 15 -9 8 4 22 1 30 -6 24 -20 84 -2 135 41 25 21 54 39 63 39
10 0 20 7 23 15 4 8 15 15 26 15 11 0 26 7 35 16 9 8 22 13 29 10 7 -3 16 -1
19 4 7 12 65 40 82 40 7 0 13 8 13 19 0 10 7 24 15 31 8 7 15 23 15 36 0 15 6
24 16 24 11 0 13 6 9 19 -4 13 1 24 17 35 17 12 18 16 6 16 -27 0 -28 37 -2
71 13 18 24 43 24 56 0 14 6 23 15 23 9 0 15 9 15 23 0 13 9 32 21 43 14 13
19 27 17 46 -3 18 0 28 8 28 7 0 14 5 16 11 2 7 31 12 71 13 46 1 67 5 67 14
0 6 -6 12 -12 12 -7 0 3 10 22 23 32 20 33 22 13 25 -12 2 -36 -7 -53 -20 -23
-16 -44 -23 -75 -22 -49 1 -72 15 -86 53 -8 18 -13 21 -21 13 -13 -13 -14 -27
-17 -127 -1 -33 -6 -67 -11 -75 -9 -13 -12 -12 -25 4 -14 19 -15 17 -15 -22 0
-23 -4 -42 -9 -42 -5 0 -11 -9 -14 -20 -3 -11 -19 -25 -36 -31 -17 -6 -31 -17
-31 -25 0 -8 -5 -14 -10 -14 -6 0 -20 -16 -31 -35 -12 -20 -29 -35 -40 -35
-10 0 -19 -6 -19 -14 0 -30 -108 -128 -172 -156 -13 -6 -54 -30 -93 -55 -38
-25 -82 -50 -97 -56 -14 -6 -29 -17 -32 -25 -3 -8 -12 -14 -21 -14 -8 0 -15
-3 -15 -8 0 -13 -64 -37 -100 -37 -24 0 -35 -5 -35 -14 0 -8 -16 -19 -35 -24
-46 -12 -176 -2 -203 16 -12 8 -46 22 -75 31 -65 22 -96 64 -114 151 -9 46
-19 67 -45 91 -18 17 -36 45 -39 61 -3 16 -19 44 -35 62 -16 19 -29 42 -29 51
0 10 -7 36 -15 59 l-14 41 44 0 c24 0 46 -4 50 -9 6 -11 45 -10 45 0 0 4 15 5
34 2 47 -7 103 4 110 23 5 12 1 14 -17 7 -21 -8 -81 -8 -177 -1 -25 2 -67 0
-93 -4 -45 -7 -51 -6 -78 21 -33 34 -39 86 -16 162 16 51 14 62 -19 94 -19 20
-24 34 -24 78 0 30 -7 74 -15 97 -19 54 -19 93 0 130 8 16 14 50 13 75 0 25 1
48 4 51 3 3 16 -11 28 -30 21 -35 41 -43 74 -30 12 4 -5 25 -66 82 -44 43 -89
79 -100 82 -11 3 -19 10 -19 15 1 16 -49 25 -71 12 -11 -7 -28 -29 -39 -49
-20 -39 -59 -54 -59 -23 0 8 -5 15 -11 15 -5 0 -9 -8 -7 -18 2 -11 -1 -20 -7
-21 -5 -1 -11 7 -13 18 -3 16 -9 19 -37 14 -27 -4 -34 -2 -38 13 -3 13 -5 9
-7 -11 -1 -16 -4 -24 -7 -17 -2 6 -11 12 -19 12 -8 0 -11 6 -8 15 5 12 -2 15
-30 15 -30 0 -36 4 -36 21 0 16 -4 19 -20 14 -14 -5 -20 -2 -20 10 0 9 -7 15
-16 13 -10 -2 -19 3 -22 11 -3 10 0 12 12 8 14 -5 16 -3 11 12 -8 25 5 57 16
40 6 -10 11 -10 23 0 9 8 16 17 16 21 0 12 -53 19 -70 10 -9 -5 -24 -1 -42 12
-34 24 -28 40 10 28 18 -4 39 -3 58 5 16 6 38 9 49 7 20 -5 20 -5 2 16 -18 20
-18 21 0 46 10 14 24 26 31 26 16 0 15 -10 -3 -34 -10 -14 -11 -24 -4 -38 6
-10 7 -28 4 -39 -6 -17 -3 -20 12 -17 10 2 19 13 21 26 4 26 10 27 32 7 14
-13 18 -12 33 5 9 11 12 21 7 21 -6 1 -16 2 -22 3 -17 1 -22 34 -9 50 9 10 8
15 -4 20 -8 3 -15 12 -15 21 0 13 -5 13 -37 -2 -56 -25 -73 -43 -73 -75 0 -15
-4 -28 -9 -28 -5 0 -8 18 -7 40 2 24 -1 40 -8 41 -6 0 0 5 14 11 25 11 25 11
3 15 -13 3 -23 9 -23 15 0 6 -6 6 -15 -2 -9 -7 -15 -29 -15 -51 0 -32 -4 -41
-23 -48 -13 -5 -35 -7 -50 -4 -27 5 -39 -11 -14 -20 9 -3 9 -8 1 -16 -8 -9
-17 -7 -35 8 l-24 19 28 11 c16 6 32 11 36 11 4 0 16 6 26 14 18 13 15 14 -27
11 -25 -1 -51 -6 -57 -9 -17 -11 -13 20 4 38 8 8 15 19 15 25 0 14 17 14 25 1
8 -14 45 -13 45 1 0 6 6 9 13 6 9 -3 18 8 26 29 15 40 5 64 -15 37 -11 -15
-13 -16 -14 -2 -1 43 -40 88 -80 94 -3 0 -11 4 -18 9 -11 6 -10 10 1 19 17 13
29 58 28 100 0 21 3 27 14 23 8 -3 15 -2 15 3 0 5 -11 11 -25 13 -23 5 -25 2
-25 -34 0 -24 -4 -37 -10 -33 -6 4 -10 -6 -10 -22 0 -41 -11 -51 -38 -37 -15
7 -20 14 -13 18 12 8 14 57 5 93 -4 13 -10 20 -16 17 -5 -3 -15 0 -23 6 -9 8
-25 9 -42 5 -28 -8 -27 -8 12 -17 29 -6 43 -16 52 -35 17 -36 16 -54 -2 -47
-10 4 -15 0 -15 -11 0 -11 -6 -15 -18 -10 -11 3 -30 -3 -45 -15 -24 -19 -26
-20 -36 -3 -10 17 -10 17 -11 -1 0 -17 -3 -16 -26 8 -15 14 -30 26 -34 26 -10
0 0 -39 11 -46 5 -3 9 -18 9 -35 0 -16 5 -29 10 -29 6 0 10 -5 10 -10 0 -6 -8
-5 -19 2 -16 10 -23 9 -39 -5 -10 -9 -22 -17 -26 -17 -13 0 -1 83 13 88 10 3
12 0 8 -12 -7 -17 8 -23 18 -7 6 11 -15 61 -26 61 -4 0 -11 -4 -14 -10 -9 -14
-66 -12 -98 3 -38 17 -33 26 11 22 20 -3 29 -2 20 1 -10 3 -18 10 -18 16 0 5
-7 8 -15 5 -12 -5 -11 0 3 30 15 31 17 33 20 15 2 -12 8 -22 13 -22 5 0 18 -9
30 -21 26 -26 31 -21 20 19 -12 40 -6 41 14 2 16 -32 55 -42 55 -14 0 8 -4 13
-8 10 -4 -2 -9 4 -9 15 -2 23 10 25 27 4 9 -11 16 -13 24 -5 12 12 29 14 22 2
-2 -4 4 -13 15 -20 16 -10 19 -9 19 3 0 8 7 15 15 15 8 0 15 5 15 10 0 6 -8
10 -18 10 -10 0 -24 9 -32 20 -9 13 -26 20 -47 20 -23 0 -33 5 -33 15 0 9 9
15 21 15 20 0 21 4 15 48 -6 43 -5 46 9 28 8 -11 15 -23 15 -28 0 -4 7 -8 15
-8 8 0 15 5 15 10 0 6 9 1 20 -10 14 -14 33 -20 65 -20 48 0 55 -9 28 -35 -16
-16 -15 -17 3 -14 10 2 24 14 29 27 6 15 16 21 28 18 9 -2 17 0 17 6 0 5 5 6
10 3 6 -4 4 -12 -5 -21 -22 -22 -19 -37 5 -24 14 8 26 8 40 0 17 -9 20 -8 20
13 0 19 7 26 26 30 21 4 25 1 21 -14 -4 -14 2 -20 28 -25 18 -3 41 -4 51 -3
11 2 25 0 32 -4 7 -5 19 -2 28 7 14 15 14 16 -5 16 -12 0 -21 5 -21 10 0 6 12
10 26 10 27 0 28 3 9 55 -6 16 -2 15 16 -6 31 -35 69 -45 69 -18 0 10 7 19 15
19 27 0 15 19 -28 45 -53 30 -57 31 -50 5 3 -11 1 -20 -5 -20 -6 0 -17 -3 -26
-6 -10 -4 -16 -1 -16 9 0 8 -10 17 -22 20 -24 7 -48 -8 -48 -29 0 -22 -21 -16
-27 7 -5 16 -12 19 -42 17 -29 -2 -37 -8 -39 -25 -2 -13 -6 -24 -10 -24 -28
-6 -102 -3 -102 3 0 14 -23 9 -43 -9 -18 -17 -18 -17 -6 10 7 15 16 27 20 27
20 0 -11 44 -41 59 -18 9 -35 22 -38 29 -5 15 34 16 44 1 4 -8 9 -7 16 2 7 11
11 11 15 2 2 -7 8 -13 12 -13 11 0 7 43 -7 67 -19 33 -14 51 7 24 l18 -24 7
27 c3 14 12 26 18 26 9 0 9 -3 0 -12 -14 -14 -16 -38 -2 -38 5 0 15 6 22 13 6
8 22 11 35 9 16 -3 23 0 23 12 0 9 -6 16 -14 16 -15 0 -28 24 -19 34 13 13 54
5 73 -14 12 -12 26 -20 33 -19 24 3 37 -1 37 -12 0 -5 -5 -7 -10 -4 -5 3 -10
2 -10 -4 0 -18 18 -21 24 -5 3 9 -1 31 -10 50 -19 40 -12 54 17 35 12 -7 23
-10 26 -7 3 2 -1 30 -7 61 -6 31 -9 62 -6 70 7 19 -33 16 -57 -3 -15 -13 -23
-13 -58 -2 -35 12 -46 12 -85 -3 -43 -16 -61 -8 -27 12 17 9 16 11 -3 28 -11
10 -23 25 -27 33 -3 9 -6 10 -6 3 -1 -7 -10 -13 -22 -13 -15 0 -19 -5 -15 -15
4 -13 2 -14 -15 -5 -11 6 -17 15 -14 19 2 5 -1 14 -9 20 -10 9 -20 9 -40 0
-28 -13 -50 -4 -26 11 8 5 11 12 8 15 -11 11 -28 -5 -28 -26 0 -25 -16 -25
-23 0 -3 14 -11 18 -26 14 -29 -8 -27 15 3 27 13 5 27 14 32 21 4 8 3 10 -4 5
-6 -4 -20 2 -30 12 -11 11 -25 21 -32 24 -9 3 -9 10 1 31 15 32 25 34 34 7 5
-15 12 -19 25 -15 10 3 21 1 25 -5 9 -14 26 -13 24 3 -1 6 3 25 10 41 8 21 9
32 0 42 -6 8 -9 23 -6 33 3 11 -2 29 -10 40 -11 17 -11 21 -1 21 17 0 39 -50
33 -75 -7 -27 12 -55 24 -37 5 9 10 -3 15 -37 4 -27 11 -53 16 -56 16 -10 12
-45 -5 -45 -8 0 -15 -4 -15 -10 0 -5 7 -10 15 -10 8 0 15 5 15 10 0 6 7 10 15
10 21 0 19 27 -5 47 -14 12 -20 30 -20 56 0 33 2 37 14 28 8 -7 17 -24 21 -39
7 -29 42 -72 58 -72 5 0 4 7 -3 15 -18 22 -8 27 24 12 22 -10 26 -17 22 -39
-3 -16 -1 -28 4 -28 6 0 10 -10 10 -21 0 -18 -3 -19 -15 -9 -8 6 -25 13 -38
14 -18 2 -24 -2 -23 -16 1 -21 69 -52 94 -43 7 2 23 0 37 -5 18 -7 24 -6 22 2
-1 7 7 14 18 16 11 2 24 8 28 12 11 10 -59 34 -78 26 -18 -7 -19 -2 -3 24 15
24 4 37 -17 20 -12 -10 -15 -10 -15 4 0 10 5 14 10 11 16 -10 11 18 -9 51 -21
35 -33 140 -15 137 6 -1 10 11 9 28 -1 16 2 29 7 29 4 0 8 -11 8 -25 0 -14 7
-28 15 -32 14 -5 14 -7 1 -22 -15 -16 -17 -52 -3 -51 4 0 12 0 18 0 6 0 10 10
9 23 -1 12 -2 29 -1 37 2 23 31 -19 31 -45 0 -21 17 -45 32 -45 5 0 2 13 -6
28 -20 40 -31 102 -17 102 6 0 11 -7 11 -15 0 -8 4 -15 10 -15 5 0 10 -10 10
-22 3 -100 11 -124 29 -90 7 13 17 18 30 15 13 -3 23 2 31 16 13 26 30 19 30
-13 0 -20 5 -23 39 -23 31 0 45 -7 65 -29 20 -23 25 -25 26 -11 0 9 7 17 15
17 7 0 19 8 24 18 10 16 12 16 26 -2 15 -20 15 -20 16 0 0 11 7 3 16 -21 9
-22 20 -42 24 -45 4 -3 1 -13 -6 -24 -16 -22 -39 -11 -32 15 4 15 2 17 -13 9
-24 -13 -51 -14 -31 -1 8 5 9 11 3 15 -22 13 -24 -17 -3 -34 l23 -16 -26 -18
c-15 -9 -31 -14 -36 -11 -6 3 -10 2 -10 -3 0 -4 16 -16 36 -25 19 -10 32 -22
29 -28 -4 -5 -1 -17 6 -25 6 -8 10 -16 7 -19 -7 -7 -48 7 -48 16 0 5 -9 9 -20
9 -26 0 -44 -61 -28 -96 8 -17 14 -21 19 -12 4 7 3 18 -2 25 -11 13 -4 33 12
33 5 0 9 -6 9 -14 0 -8 14 -19 31 -25 41 -14 44 -14 30 2 -13 16 -5 27 21 27
22 0 24 25 3 34 -21 8 -19 29 5 44 24 15 26 40 4 38 -9 0 -19 6 -21 14 -4 12
-3 12 5 2 7 -11 10 -9 15 7 4 18 11 21 41 18 20 -3 39 -1 41 3 2 4 -11 22 -30
39 -29 26 -34 37 -31 64 4 31 2 33 -29 33 -46 0 -106 34 -100 55 4 10 -6 29
-26 48 -26 27 -37 31 -61 26 -23 -6 -33 -2 -44 14 -15 21 -41 30 -29 10 4 -6
0 -9 -11 -7 -15 2 -19 -3 -17 -24 1 -16 -2 -28 -6 -28 -11 0 -29 21 -33 40 -2
8 -9 20 -16 25 -25 20 -4 41 41 42 85 1 132 43 110 99 -4 11 1 22 13 31 19 14
19 14 -1 26 -26 15 -57 17 -72 5 -10 -8 -13 -5 -13 12 0 15 -5 20 -17 18 -10
-2 -17 -10 -16 -16 2 -7 -4 -12 -12 -12 -8 0 -15 -4 -15 -10 0 -5 6 -10 13
-10 8 0 7 -3 -3 -9 -8 -6 -18 -7 -22 -5 -4 3 -8 0 -8 -7 0 -8 -4 -8 -16 2 -12
10 -20 10 -35 1 -11 -7 -19 -8 -19 -2 0 5 -7 10 -15 10 -9 0 -15 9 -15 21 0
15 -5 19 -16 15 -8 -3 -13 -2 -10 3 3 5 0 14 -8 20 -16 13 -49 4 -39 -12 4 -6
0 -8 -10 -4 -9 3 -29 2 -46 -3 -16 -4 -32 -5 -34 -2 -2 4 -3 2 -1 -4 1 -6 -2
-17 -8 -25 -7 -11 -11 -11 -15 -1 -9 23 -25 12 -20 -14 3 -18 1 -24 -9 -20 -8
3 -14 1 -14 -4 0 -25 -30 -6 -40 25 -7 21 -16 32 -22 29 -6 -4 -18 2 -25 12
-14 19 -15 19 -11 0 1 -10 12 -24 23 -30 11 -6 22 -12 25 -14 2 -2 -2 -7 -10
-12 -10 -6 -23 -4 -39 7 -23 15 -24 15 -19 -9 4 -21 1 -25 -24 -25 -33 0 -35
10 -7 38 11 11 18 27 15 37 -7 20 -52 43 -71 36 -8 -4 -20 8 -30 30 -10 20
-21 36 -26 36 -16 0 -9 -26 16 -60 14 -19 25 -41 25 -50 0 -9 5 -21 12 -28 6
-6 8 -15 4 -19 -9 -9 -36 25 -36 45 0 9 -24 37 -52 63 -48 44 -58 49 -100 49
-33 0 -48 -4 -48 -13z m98 -27 c12 -12 22 -27 22 -35 0 -8 6 -15 13 -15 6 0
21 -8 32 -17 20 -16 16 -16 -30 3 -10 4 -15 0 -15 -11 0 -24 -24 -3 -45 38
-28 55 -16 73 23 37z m-56 -92 c-7 -7 -12 -8 -12 -2 0 14 12 26 19 19 2 -3 -1
-11 -7 -17z m585 2 c14 -11 32 -20 39 -20 8 0 14 -5 14 -11 0 -6 -8 -8 -17 -5
-10 2 -33 7 -50 11 -31 6 -42 23 -26 38 9 10 12 9 40 -13z m-554 -30 c-7 -28
-13 -25 -13 6 0 14 4 23 9 20 5 -3 7 -15 4 -26z m107 6 c21 -8 28 -16 21 -21
-18 -11 -61 3 -61 20 0 18 0 18 40 1z m664 -1 c3 -9 0 -15 -9 -15 -9 0 -12 6
-9 15 4 8 7 15 9 15 2 0 5 -7 9 -15z m-291 -15 c15 -7 27 -19 27 -27 0 -7 5
-13 11 -13 5 0 7 -5 3 -11 -5 -8 -10 -6 -16 5 -12 22 -21 20 -68 -9 l-40 -25
-6 26 c-9 36 12 56 32 30 12 -16 16 -18 27 -7 9 11 9 14 0 18 -7 3 -13 11 -13
19 0 9 3 14 8 12 4 -2 19 -10 35 -18z m183 -4 c10 -8 17 -17 14 -20 -10 -10
-50 6 -50 20 0 18 11 18 36 0z m104 -27 c0 -4 -11 -9 -24 -11 -18 -4 -27 1
-35 19 -6 13 -11 26 -11 28 0 7 69 -29 70 -36z m-436 -26 c-24 -24 -40 -15
-36 20 l4 34 23 -21 c19 -16 20 -22 9 -33z m-234 17 c0 -11 -2 -20 -4 -20 -2
0 -6 9 -9 20 -3 11 -1 20 4 20 5 0 9 -9 9 -20z m166 -15 c20 -49 18 -51 -20
-13 -34 33 -37 48 -10 48 8 0 22 -16 30 -35z m544 25 c0 -5 -4 -10 -9 -10 -6
0 -13 5 -16 10 -3 6 1 10 9 10 9 0 16 -4 16 -10z m-235 -40 c3 -5 2 -10 -4
-10 -5 0 -13 5 -16 10 -3 6 -2 10 4 10 5 0 13 -4 16 -10z m103 -8 c2 -7 -2
-10 -12 -6 -9 3 -16 11 -16 16 0 13 23 5 28 -10z m-578 -22 c0 -5 -5 -10 -11
-10 -5 0 -7 5 -4 10 3 6 8 10 11 10 2 0 4 -4 4 -10z m156 -26 c7 -28 -18 -65
-30 -45 -4 6 -2 11 3 11 15 0 14 33 -1 48 -9 9 -8 12 5 12 10 0 19 -11 23 -26z
m197 19 c-7 -2 -13 -15 -13 -28 0 -38 -49 -41 -50 -3 0 11 43 38 60 37 10 0
11 -2 3 -6z m87 -1 c0 -10 -59 -62 -71 -62 -16 0 -10 12 21 41 29 28 50 37 50
21z m-610 -6 c0 -3 -4 -8 -10 -11 -5 -3 -10 -1 -10 4 0 6 5 11 10 11 6 0 10
-2 10 -4z m738 -24 c14 -21 13 -22 -4 -16 -29 11 -44 25 -38 36 8 13 25 5 42
-20z m-671 -14 c-3 -7 -5 -2 -5 12 0 14 2 19 5 13 2 -7 2 -19 0 -25z m538 -18
c8 -13 -5 -13 -25 0 -13 8 -13 10 2 10 9 0 20 -4 23 -10z m-570 -20 c-3 -5
-14 -10 -23 -10 -15 0 -15 2 -2 10 20 13 33 13 25 0z m822 -52 c3 -17 1 -19
-11 -9 -8 7 -12 19 -9 27 7 18 16 10 20 -18z m-717 2 c0 -5 -4 -10 -10 -10 -5
0 -10 5 -10 10 0 6 5 10 10 10 6 0 10 -4 10 -10z m444 -4 c16 6 40 -40 33 -60
-9 -22 -36 -9 -43 21 -5 18 -12 23 -25 20 -12 -3 -19 0 -19 8 0 16 22 26 34
15 5 -5 14 -6 20 -4z m356 10 c0 -3 -4 -8 -10 -11 -5 -3 -10 -1 -10 4 0 6 5
11 10 11 6 0 10 -2 10 -4z m26 -23 c-10 -10 -19 5 -10 18 6 11 8 11 12 0 2 -7
1 -15 -2 -18z m-886 -19 c0 -2 -9 -4 -21 -4 -11 0 -18 4 -14 10 5 8 35 3 35
-6z m240 12 c0 -3 -4 -8 -10 -11 -5 -3 -10 -1 -10 4 0 6 5 11 10 11 6 0 10 -2
10 -4z m-146 -35 c-5 -22 -1 -32 20 -48 47 -38 20 -47 -38 -13 -42 25 -52 47
-25 55 10 4 19 13 19 21 0 8 7 14 15 14 11 0 13 -7 9 -29z m756 10 c0 -6 -4
-13 -10 -16 -5 -3 -10 1 -10 9 0 9 5 16 10 16 6 0 10 -4 10 -9z m-930 -16 c0
-8 -2 -15 -4 -15 -2 0 -6 7 -10 15 -3 8 -1 15 4 15 6 0 10 -7 10 -15z m74 -14
c9 -13 -5 -42 -17 -38 -6 2 -17 13 -25 25 -14 21 -13 22 11 22 14 0 28 -4 31
-9z m138 -13 c-7 -7 -12 -8 -12 -2 0 14 12 26 19 19 2 -3 -1 -11 -7 -17z
m-113 -63 c1 -5 -6 -2 -15 7 -10 9 -13 21 -8 29 5 9 9 8 15 -7 4 -10 8 -23 8
-29z m-48 -2 c12 -32 9 -55 -8 -61 -9 -2 -13 7 -13 27 0 16 -4 33 -10 36 -15
9 -12 25 5 25 9 0 20 -12 26 -27z m154 -53 c-5 -8 -11 -8 -21 1 -10 8 -18 9
-27 0 -15 -12 -27 -5 -27 15 0 8 6 11 15 8 10 -4 15 0 15 14 0 20 1 20 26 -3
14 -13 23 -29 19 -35z m63 48 c7 -7 12 -21 12 -32 0 -19 -1 -19 -23 2 -13 12
-29 22 -35 22 -7 0 -12 5 -12 10 0 14 43 13 58 -2z m-258 -29 c0 -5 -7 -9 -15
-9 -8 0 -15 7 -15 15 0 9 6 12 15 9 8 -4 15 -10 15 -15z m82 -61 c-6 -6 -7 0
-4 19 5 21 7 23 10 9 2 -10 0 -22 -6 -28z m61 -3 c7 -16 -8 -29 -22 -21 -5 3
-14 -1 -21 -9 -7 -8 -16 -12 -21 -9 -9 5 37 54 51 54 4 0 10 -7 13 -15z m387
5 c0 -5 -4 -10 -10 -10 -5 0 -10 5 -10 10 0 6 5 10 10 10 6 0 10 -4 10 -10z
m-90 -10 c0 -5 -2 -10 -4 -10 -3 0 -8 5 -11 10 -3 6 -1 10 4 10 6 0 11 -4 11
-10z m-384 -75 c0 -30 -2 -33 -14 -21 -11 11 -12 17 0 35 7 11 13 21 13 21 1
0 1 -16 1 -35z m242 -15 c-2 -22 0 -40 4 -40 4 0 10 -17 13 -37 3 -21 10 -45
15 -54 7 -13 4 -18 -14 -21 -18 -4 -22 -1 -19 12 4 14 -2 17 -34 15 -21 -2
-32 -1 -25 2 18 7 15 25 -13 57 -23 27 -32 46 -20 46 3 0 21 -18 41 -40 20
-22 39 -38 42 -36 3 3 -1 12 -7 20 -9 11 -10 20 -1 36 6 11 8 25 5 30 -7 11 3
50 12 50 3 0 3 -18 1 -40z m92 20 c0 -5 -4 -10 -10 -10 -5 0 -10 5 -10 10 0 6
5 10 10 10 6 0 10 -4 10 -10z m105 -31 c5 -6 3 -9 -6 -9 -8 0 -16 -10 -17 -25
-1 -18 2 -23 13 -19 9 4 15 0 15 -10 0 -9 -4 -16 -10 -16 -5 0 -10 -6 -10 -13
0 -7 -7 -22 -15 -33 -12 -15 -16 -16 -24 -5 -6 9 -10 10 -16 2 -5 -9 -10 -9
-21 0 -11 9 -15 8 -19 -3 -8 -21 0 -77 14 -91 10 -9 11 -8 5 7 -5 14 -3 17 7
14 8 -3 14 -18 14 -36 0 -16 3 -28 7 -26 4 2 9 0 13 -6 3 -6 -1 -13 -9 -16 -9
-3 -16 -14 -16 -23 0 -11 -6 -7 -18 12 -10 15 -22 24 -26 20 -5 -5 -5 3 -1 16
5 15 4 21 -3 17 -6 -3 -13 -2 -17 4 -7 12 -35 13 -35 2 0 -5 9 -13 21 -18 20
-9 20 -10 -6 -24 -23 -12 -28 -12 -35 0 -11 18 15 63 44 76 16 7 20 16 18 39
-2 16 -8 35 -14 42 -6 7 -7 24 -4 38 5 18 2 25 -9 25 -10 0 -15 9 -15 26 0 22
2 24 15 14 11 -10 18 -9 30 4 9 9 27 16 41 16 13 0 24 5 24 10 0 12 49 3 65
-11z m-343 -30 c-2 -7 2 -15 9 -19 13 -8 4 -30 -12 -30 -10 0 -39 60 -39 81 0
7 8 6 23 -4 12 -8 21 -21 19 -28z m33 31 c3 -5 -1 -10 -9 -10 -9 0 -16 5 -16
10 0 6 4 10 9 10 6 0 13 -4 16 -10z m445 1 c0 -5 -6 -14 -14 -20 -8 -7 -17
-23 -20 -36 -4 -14 -13 -25 -21 -25 -16 0 -20 12 -7 24 4 4 7 12 7 17 0 5 4 9
10 8 5 0 12 9 17 20 7 21 28 29 28 12z m97 -26 c-4 -8 -12 -15 -19 -14 -10 0
-10 2 0 6 6 2 12 12 12 21 0 8 3 13 6 9 4 -3 4 -13 1 -22z m-677 1 c0 -3 -4
-8 -10 -11 -5 -3 -10 -1 -10 4 0 6 5 11 10 11 6 0 10 -2 10 -4z m500 -46 c0
-13 -5 -18 -15 -14 -8 4 -15 12 -15 20 0 8 7 14 15 14 8 0 15 -9 15 -20z
m-340 -60 c0 -13 -5 -18 -15 -14 -8 4 -15 12 -15 20 0 8 7 14 15 14 8 0 15 -9
15 -20z m-20 -66 c0 -8 -5 -12 -10 -9 -6 4 -8 11 -5 16 9 14 15 11 15 -7z m43
-31 c-1 -21 0 -29 4 -18 6 24 37 55 54 55 8 0 7 -6 -4 -17 -8 -10 -18 -30 -22
-44 -7 -28 -49 -45 -81 -32 -9 3 -20 0 -24 -7 -11 -17 -30 -4 -30 21 0 15 6
20 23 17 23 -4 57 25 57 49 0 7 6 13 13 13 9 0 12 -12 10 -37z m-206 -43 c6
-38 13 -55 23 -55 8 0 14 8 13 18 -1 15 4 17 25 12 33 -8 53 -25 29 -25 -22 0
-21 -12 2 -42 11 -14 16 -30 12 -36 -11 -17 -41 -4 -41 18 0 10 -7 23 -15 30
-13 11 -16 8 -21 -19 -12 -60 -22 -31 -48 147 -2 13 0 20 4 15 5 -4 12 -33 17
-63z m473 -10 c0 -5 -4 -10 -10 -10 -5 0 -10 5 -10 10 0 6 5 10 10 10 6 0 10
-4 10 -10z m-233 -26 c-3 -3 -12 -4 -19 -1 -8 3 -5 6 6 6 11 1 17 -2 13 -5z
m-63 -51 c-10 -47 -14 -54 -24 -48 -5 3 -10 17 -10 30 0 17 -4 23 -14 19 -8
-3 -17 0 -22 7 -5 9 1 11 24 6 19 -4 32 -2 32 3 0 6 5 10 10 10 6 0 8 -12 4
-27z m96 -3 c0 -5 -7 -10 -15 -10 -8 0 -18 -12 -21 -26 -4 -17 -9 -22 -14 -14
-4 7 -13 9 -19 6 -6 -4 -11 -1 -11 6 0 14 47 47 68 48 6 0 12 -4 12 -10z m190
-249 c0 -5 -7 -14 -15 -21 -9 -7 -13 -20 -10 -28 7 -20 -5 -37 -16 -21 -7 11
-9 11 -9 -1 0 -9 5 -21 11 -27 7 -7 4 -20 -11 -44 l-20 -34 0 35 c0 19 -2 50
-6 69 -6 31 -5 33 16 26 19 -6 22 -4 17 9 -3 8 1 22 9 31 17 17 34 20 34 6z
m-320 -15 c0 -8 -4 -17 -9 -20 -10 -7 -23 19 -14 28 11 11 23 6 23 -8z m349
-84 c1 -10 -3 -10 -18 0 -16 10 -18 16 -9 32 11 20 11 20 19 1 4 -11 8 -26 8
-33z m115 14 c17 4 22 1 22 -15 0 -14 -8 -20 -33 -23 -22 -3 -30 -1 -23 6 17
17 11 26 -17 26 l-28 1 25 14 c22 12 25 12 28 -1 2 -9 11 -12 26 -8z m-294
-28 c0 -25 -3 -29 -10 -18 -13 20 -13 50 0 50 6 0 10 -15 10 -32z m170 -18 c0
-5 -5 -10 -11 -10 -5 0 -7 5 -4 10 3 6 8 10 11 10 2 0 4 -4 4 -10z m78 -45 c0
-14 -4 -28 -9 -31 -5 -3 -9 11 -9 31 0 20 4 34 9 31 5 -3 9 -17 9 -31z m-78
15 c0 -5 -4 -10 -10 -10 -5 0 -10 5 -10 10 0 6 5 10 10 10 6 0 10 -4 10 -10z
m-420 -40 c0 -10 -41 -31 -49 -24 -1 1 3 10 10 18 16 18 39 21 39 6z m132 -20
c5 -35 -6 -39 -23 -9 -9 17 -8 23 2 30 8 5 15 9 15 9 1 0 4 -13 6 -30z m135 8
c-3 -8 -6 -5 -6 6 -1 11 2 17 5 13 3 -3 4 -12 1 -19z m153 7 c7 -9 19 -14 25
-11 7 2 18 1 24 -4 17 -10 -12 -57 -42 -66 -20 -6 -20 -7 -2 -20 29 -21 12
-26 -25 -8 -30 16 -32 18 -15 30 16 12 15 13 -9 10 -15 -1 -33 -11 -42 -22 -8
-10 -12 -13 -8 -5 5 10 1 11 -15 6 -12 -4 -21 -2 -21 4 0 6 -8 11 -18 11 -10
0 -27 7 -38 16 -19 15 -19 16 1 9 11 -4 33 -8 48 -10 35 -5 32 16 -4 26 -13 4
-19 7 -13 8 6 1 24 4 40 7 21 4 36 0 53 -16 22 -19 26 -19 40 -5 13 13 13 19
3 35 -14 24 0 27 18 5z m-216 -37 c7 -5 4 -8 -6 -8 -10 0 -18 4 -18 9 0 5 -3
18 -6 28 -5 15 -3 15 7 -2 7 -11 17 -23 23 -27z m176 26 c0 -2 -7 -4 -15 -4
-8 0 -15 4 -15 10 0 5 7 7 15 4 8 -4 15 -8 15 -10z m-311 -36 l-1 -43 -12 40
c-8 24 -15 34 -18 25 -3 -8 -9 -11 -14 -7 -5 4 -2 12 6 17 30 19 40 11 39 -32z
m-126 -50 c-8 -16 -22 -7 -16 9 5 12 2 15 -10 10 -8 -3 -21 1 -27 9 -10 11 -9
14 3 14 9 0 19 10 23 23 6 20 8 18 19 -18 6 -22 10 -43 8 -47z m277 10 c-1
-21 -27 -80 -31 -68 0 3 -3 24 -5 48 -3 37 -1 42 16 42 14 0 20 -7 20 -22z
m-187 -21 c-3 -5 -10 -4 -15 1 -6 6 -7 16 -3 22 6 9 9 9 16 -1 4 -7 5 -17 2
-22z m-53 13 c0 -5 -2 -10 -4 -10 -3 0 -8 5 -11 10 -3 6 -1 10 4 10 6 0 11 -4
11 -10z m135 -30 c4 -7 12 -7 25 0 14 8 19 5 23 -12 4 -12 4 -24 2 -27 -3 -2
-5 1 -5 7 0 7 -4 12 -10 12 -5 0 -10 -5 -10 -11 0 -17 -32 -38 -47 -32 -23 9
-15 36 8 30 21 -6 21 -5 -2 19 -18 19 -19 24 -6 24 9 0 19 -5 22 -10z m264
-43 c11 3 21 -2 24 -11 4 -9 13 -13 22 -10 8 3 15 1 15 -5 0 -6 8 -11 18 -11
10 0 24 -6 31 -12 10 -11 16 -8 32 11 19 23 20 23 34 5 8 -10 15 -22 15 -26 0
-5 5 -8 10 -8 6 0 10 14 10 30 0 17 5 30 10 30 6 0 10 -15 10 -34 0 -19 4 -46
10 -60 12 -32 -4 -35 -21 -5 -7 14 -17 19 -30 16 -10 -3 -21 -1 -24 4 -4 5
-16 8 -28 7 -12 0 -34 3 -49 7 -18 5 -28 3 -28 -4 0 -6 11 -11 25 -11 16 0 25
-6 25 -15 0 -8 -4 -15 -10 -15 -5 0 -10 4 -10 9 0 17 -84 18 -98 2 -12 -14
-13 -12 -8 12 3 15 8 39 11 55 l6 27 -17 -22 c-13 -18 -20 -20 -35 -12 -16 8
-19 6 -19 -11 0 -11 7 -20 15 -20 20 0 19 -34 0 -50 -13 -11 -18 -10 -30 6
-23 30 -28 54 -15 69 10 12 8 19 -11 35 -20 16 -22 21 -9 29 9 7 17 6 21 0 3
-6 9 -2 11 9 4 15 12 19 32 15 17 -4 27 -1 28 8 0 8 3 0 5 -17 3 -25 8 -31 22
-27z m101 3 c0 -22 -20 -26 -38 -8 -18 18 -15 23 13 26 19 1 25 -3 25 -18z
m-254 -31 c4 -7 -2 -9 -17 -7 -13 2 -25 11 -27 21 -3 16 -1 17 17 8 11 -6 23
-16 27 -22z m424 11 c0 -5 -2 -10 -4 -10 -3 0 -8 5 -11 10 -3 6 -1 10 4 10 6
0 11 -4 11 -10z m-492 -13 c6 -7 8 -23 5 -36 -4 -17 -8 -20 -15 -9 -7 10 -11
10 -15 1 -8 -20 -23 -15 -23 7 0 11 5 20 10 20 6 0 10 7 10 15 0 18 14 19 28
2z m-178 -12 c6 3 10 1 10 -5 0 -7 -9 -14 -21 -17 -17 -5 -20 -12 -17 -39 5
-41 -6 -44 -26 -6 -8 15 -15 21 -16 15 0 -18 -20 -16 -20 2 0 8 9 19 20 25 11
6 20 17 20 26 0 12 4 13 20 4 11 -6 25 -8 30 -5z m280 -55 c0 -5 -2 -10 -4
-10 -3 0 -8 5 -11 10 -3 6 -1 10 4 10 6 0 11 -4 11 -10z m-56 -9 c3 -4 -1 -17
-9 -27 -14 -18 -14 -18 -15 9 0 26 13 36 24 18z m-178 -38 c-10 -10 -19 5 -10
18 6 11 8 11 12 0 2 -7 1 -15 -2 -18z m514 -3 c0 -5 -4 -10 -10 -10 -5 0 -10
5 -10 10 0 6 5 10 10 10 6 0 10 -4 10 -10z m-473 -36 c-7 -7 -37 7 -37 17 0 6
9 5 21 -1 11 -7 19 -14 16 -16z m593 -6 c0 -12 -10 -9 -26 6 -20 21 -17 28 6
14 11 -7 20 -16 20 -20z m-685 -40 c4 -29 11 -38 25 -38 11 0 20 -4 20 -10 0
-5 -13 -10 -28 -10 -25 0 -29 4 -30 28 -1 15 -3 34 -4 42 0 8 0 24 2 35 3 22
5 15 15 -47z m443 24 c6 -18 -15 -14 -22 4 -4 10 -1 14 6 12 6 -2 14 -10 16
-16z m106 -13 c-6 -11 -24 -2 -24 11 0 5 7 7 15 4 8 -4 12 -10 9 -15z m96 11
c0 -5 -5 -10 -12 -10 -8 0 -6 -7 5 -17 15 -16 19 -16 27 -3 6 10 9 1 8 -27 0
-43 -12 -55 -52 -57 -28 -1 -31 22 -4 26 15 2 24 11 26 26 3 20 0 23 -17 17
-23 -7 -27 5 -11 36 11 20 30 26 30 9z m-477 -10 c9 0 17 -5 17 -11 0 -7 -11
-8 -30 -4 -30 7 -60 -11 -60 -34 0 -6 -4 -11 -10 -11 -14 0 -13 13 2 28 7 7 9
12 5 12 -4 0 -2 7 5 15 7 8 22 13 33 10 11 -3 28 -5 38 -5z m77 2 c0 -13 -12
-22 -22 -16 -10 6 -1 24 13 24 5 0 9 -4 9 -8z m93 -23 c-18 -5 -33 -14 -33
-19 0 -15 -26 -12 -39 4 -14 17 3 24 64 24 l40 0 -32 -9z m237 -4 c10 -13 9
-15 -8 -15 -15 0 -20 5 -16 15 4 8 7 15 9 15 1 0 8 -7 15 -15z m393 -17 c-3
-18 -12 -44 -18 -58 -7 -14 -14 -41 -16 -60 -5 -48 -36 -80 -71 -73 -18 3 -36
-2 -56 -16 -27 -19 -31 -19 -36 -4 -4 9 -2 21 4 27 19 19 12 39 -13 32 -16 -4
-26 1 -35 14 -15 24 -32 26 -32 4 0 -9 -6 -14 -13 -11 -10 4 -12 -3 -9 -24 5
-33 16 -37 30 -12 9 14 11 14 21 -6 7 -12 9 -31 5 -44 -5 -12 -8 -24 -7 -27 0
-3 4 -19 7 -36 6 -29 5 -31 -22 -31 -27 0 -29 3 -30 40 -1 27 -9 44 -24 57
-23 18 -23 18 -30 -13 -3 -18 -3 -34 1 -37 4 -3 11 -14 15 -24 7 -19 6 -19
-14 -1 -11 10 -20 13 -20 7 0 -7 -5 -12 -11 -12 -7 0 -9 10 -5 26 7 24 5 26
-19 20 -23 -6 -26 -4 -23 15 2 12 9 24 17 27 9 3 11 0 6 -8 -6 -9 -3 -9 15 0
21 11 21 12 3 27 -17 14 -17 14 4 10 21 -5 23 -2 17 31 -5 32 -1 41 26 70 39
38 47 40 61 8 17 -37 53 -39 68 -4 24 53 63 51 41 -2 -14 -34 -14 -35 16 -44
14 -4 28 -1 37 8 8 8 17 12 21 9 3 -4 6 1 6 11 0 9 -4 15 -9 12 -5 -3 -12 1
-15 10 -12 31 -6 35 23 15 24 -18 30 -19 35 -6 3 9 0 15 -9 15 -16 0 -20 36
-7 57 7 11 46 31 64 32 4 1 5 -14 1 -31z m-451 15 c-9 -3 -7 -12 9 -34 13 -19
16 -27 6 -23 -17 6 -39 49 -30 58 4 3 11 6 17 5 6 0 5 -3 -2 -6z m-98 -33 c25
20 32 3 13 -29 -9 -15 -14 -37 -10 -49 3 -13 1 -22 -6 -22 -6 0 -11 12 -11 26
0 15 -7 32 -17 39 -11 8 -14 19 -9 31 6 15 9 16 16 4 7 -11 11 -12 24 0z m381
-9 c-3 -6 -11 -11 -17 -11 -6 0 -6 6 2 15 14 17 26 13 15 -4z m-460 -21 c-3
-5 -10 -10 -16 -10 -5 0 -9 5 -9 10 0 6 7 10 16 10 8 0 12 -4 9 -10z m244 -67
c-1 -17 -3 -21 -6 -10 -2 9 -11 17 -19 17 -8 0 -12 5 -9 10 13 21 35 10 34
-17z m-319 -13 c0 -11 -2 -20 -4 -20 -2 0 -6 9 -9 20 -3 11 -1 20 4 20 5 0 9
-9 9 -20z m158 -34 c23 -16 41 -34 39 -40 -8 -23 -38 -16 -63 13 -14 17 -34
31 -44 31 -10 0 -20 7 -24 15 -9 24 43 13 92 -19z m-469 15 c23 -15 -2 -19
-29 -5 -22 12 -22 14 -5 14 11 0 26 -4 34 -9z m600 -28 c15 -11 15 -12 0 -13
-9 0 -23 -10 -32 -22 -11 -18 -18 -20 -27 -11 -9 8 -7 16 9 32 12 12 21 29 22
39 0 13 2 14 6 2 4 -8 13 -20 22 -27z m-424 -3 c-3 -5 -11 -10 -16 -10 -6 0
-7 5 -4 10 3 6 11 10 16 10 6 0 7 -4 4 -10z m135 -10 c0 -5 -5 -10 -11 -10 -5
0 -7 5 -4 10 3 6 8 10 11 10 2 0 4 -4 4 -10z m-60 -30 c0 -12 -7 -20 -17 -20
-14 0 -15 2 -4 9 7 5 10 14 7 20 -4 6 -2 11 3 11 6 0 11 -9 11 -20z m55 -10
c3 -5 -1 -10 -10 -10 -9 0 -13 5 -10 10 3 6 8 10 10 10 2 0 7 -4 10 -10z m559
-5 c-4 -8 -13 -15 -21 -15 -13 0 -13 3 -3 15 7 8 16 15 21 15 5 0 6 -7 3 -15z
m-334 -11 c0 -8 -4 -12 -10 -9 -5 3 -10 10 -10 16 0 5 5 9 10 9 6 0 10 -7 10
-16z m270 -16 c0 -19 -2 -20 -10 -8 -13 19 -13 30 0 30 6 0 10 -10 10 -22z
m-590 -14 c0 -8 10 -14 24 -14 14 0 28 -5 32 -12 5 -8 0 -9 -15 -5 -14 3 -24
0 -28 -9 -7 -20 -25 -17 -22 4 2 9 -2 27 -9 39 -11 19 -10 22 3 17 8 -4 15
-12 15 -20z m85 16 c3 -5 -1 -10 -10 -10 -9 0 -13 5 -10 10 3 6 8 10 10 10 2
0 7 -4 10 -10z m176 -26 c-9 -28 -9 -29 -10 -3 -1 14 2 29 6 32 11 12 13 2 4
-29z m-164 -10 c-3 -3 -12 -4 -19 -1 -8 3 -5 6 6 6 11 1 17 -2 13 -5z m13 -50
c0 -8 -4 -12 -10 -9 -5 3 -10 10 -10 16 0 5 5 9 10 9 6 0 10 -7 10 -16z m79 2
c8 -10 9 -16 1 -21 -5 -3 -10 -1 -10 4 0 6 -7 11 -15 11 -8 0 -15 5 -15 10 0
15 26 12 39 -4z m286 5 c3 -6 -13 -10 -36 -9 -27 0 -37 3 -28 9 19 12 56 11
64 0z m-199 -16 c-23 -17 -52 -19 -61 -5 -4 7 2 9 18 5 14 -4 28 -2 31 4 4 6
13 11 19 11 7 0 3 -7 -7 -15z m73 -4 c8 -5 15 -23 16 -40 2 -26 0 -29 -11 -20
-8 6 -14 18 -14 25 0 17 -5 17 -30 2 -27 -17 -35 -4 -13 20 20 23 32 26 52 13z
m116 -21 c-3 -5 -18 -10 -33 -9 -24 0 -25 1 -7 9 28 12 47 12 40 0z m-401 -46
c-5 -28 -4 -35 5 -29 9 5 12 0 9 -16 -1 -13 -11 -25 -20 -27 -14 -3 -16 4 -14
41 3 42 11 67 22 67 3 0 2 -16 -2 -36z m326 -24 c0 -5 -2 -10 -4 -10 -3 0 -8
5 -11 10 -3 6 -1 10 4 10 6 0 11 -4 11 -10z m-466 -24 c-3 -8 -12 -12 -21 -9
-12 5 -12 7 -1 14 20 13 28 11 22 -5z m493 -11 c8 -8 13 -19 11 -24 -2 -5 -11
2 -21 15 -20 27 -14 32 10 9z m-409 -43 c5 -31 -15 -27 -21 3 -3 16 0 24 7 22
6 -2 12 -13 14 -25z m60 -47 c-10 -39 -10 -49 0 -53 6 -2 9 -8 6 -14 -4 -6 -1
-14 6 -18 16 -10 7 -36 -18 -49 -14 -8 -19 -7 -19 5 0 7 4 14 9 14 4 0 8 14 8
30 0 17 -4 30 -10 30 -10 0 -4 46 12 89 15 41 19 16 6 -34z m277 45 c3 -5 1
-10 -4 -10 -6 0 -11 5 -11 10 0 6 2 10 4 10 3 0 8 -4 11 -10z m139 -6 c4 -10
14 -14 26 -11 16 4 20 0 20 -19 0 -13 -5 -24 -10 -24 -12 0 -59 50 -60 63 0
14 18 7 24 -9z m-37 -1 c-4 -3 -2 -12 4 -20 9 -9 8 -13 0 -13 -6 0 -11 2 -11
4 0 2 -3 11 -6 20 -4 10 -1 16 7 16 7 0 9 -3 6 -7z m-546 -16 c-1 -12 -15 -9
-19 4 -3 6 1 10 8 8 6 -3 11 -8 11 -12z m430 -15 c6 -17 4 -24 -11 -32 -18
-10 -20 -7 -20 25 0 40 18 44 31 7z m-584 -34 c-3 -7 -5 -2 -5 12 0 14 2 19 5
13 2 -7 2 -19 0 -25z m233 2 c0 -5 -7 -15 -15 -24 -8 -8 -15 -19 -15 -25 0 -6
-4 -11 -10 -11 -13 0 -13 21 0 54 6 17 14 24 25 20 8 -3 15 -10 15 -14z m260
-36 c0 -2 -9 -4 -21 -4 -11 0 -18 4 -14 10 5 8 35 3 35 -6z m280 -4 c7 11 10
2 10 -30 0 -25 4 -60 9 -78 6 -18 6 -45 1 -62 -5 -18 -5 -32 1 -35 16 -10 11
-72 -7 -79 -21 -8 -34 1 -34 25 0 10 -6 19 -12 20 -7 0 -21 2 -30 4 -10 2 -18
-1 -18 -7 0 -5 -9 -23 -20 -38 -20 -29 -20 -29 -1 -39 29 -16 32 -14 25 16
l-7 26 26 -19 c17 -13 21 -20 11 -22 -22 -5 -16 -21 11 -28 42 -10 29 -29 -20
-29 -47 -1 -53 3 -34 22 8 8 2 13 -23 18 -26 5 -77 25 -107 42 -2 2 2 9 9 18
10 13 9 15 -9 15 -12 0 -21 -6 -21 -15 0 -8 -5 -15 -10 -15 -6 0 -8 11 -4 25
5 19 2 25 -11 25 -11 0 -15 -6 -10 -19 7 -23 -15 -42 -46 -39 -18 2 -23 -1
-21 -15 4 -21 -5 -25 -88 -36 -36 -4 -72 -11 -80 -15 -11 -5 -16 -1 -16 14 0
12 5 19 13 16 7 -3 15 -1 18 4 4 6 17 7 30 4 12 -3 26 -1 29 5 4 5 13 8 20 5
7 -3 16 2 19 10 4 9 3 16 -2 16 -5 0 -11 9 -14 19 -5 19 -28 23 -43 8 -14 -14
-24 -6 -22 17 2 21 8 24 55 28 58 5 76 15 53 28 -8 4 -26 18 -39 29 -13 11
-32 23 -42 26 -11 4 -19 11 -19 16 0 14 13 11 50 -15 19 -12 50 -23 69 -24 26
-1 41 -9 62 -33 26 -31 29 -32 56 -19 26 13 62 19 122 20 27 0 64 28 55 41 -3
5 -10 7 -15 4 -5 -4 -18 -3 -29 0 -24 8 -28 55 -5 55 8 0 15 -7 15 -15 0 -8 2
-15 4 -15 2 0 11 -3 20 -6 21 -8 21 17 1 56 -9 17 -11 30 -6 30 5 0 14 14 22
31 12 30 13 30 26 13 12 -16 15 -17 23 -4z m-502 -47 c-2 -23 -8 -28 -30 -28
-25 -1 -57 -27 -58 -47 0 -5 -4 -8 -10 -8 -12 0 -36 50 -36 74 1 20 26 36 26
17 0 -6 -4 -11 -9 -11 -4 0 -6 -11 -3 -25 6 -33 21 -32 35 4 12 33 43 47 51
24 3 -8 10 -12 15 -8 6 3 8 12 4 20 -3 8 0 15 7 15 6 0 10 -11 8 -27z m-158
-4 c0 -16 -52 -31 -64 -19 -8 8 -6 9 8 4 15 -6 17 -3 12 13 -6 17 -3 20 19 15
14 -2 25 -8 25 -13z m334 -14 c-10 -8 -25 -15 -31 -15 -7 0 -13 -5 -13 -11 0
-5 -5 -7 -10 -4 -15 9 6 33 33 38 40 8 41 7 21 -8z m191 -16 c-3 -4 -16 -2
-29 4 -13 7 -22 15 -20 19 3 4 16 2 29 -4 13 -6 22 -14 20 -19z m717 -56 c32
-28 22 -45 -13 -24 -24 15 -38 17 -55 10 -18 -6 -24 -5 -24 5 0 7 3 16 7 19
12 13 67 7 85 -10z m-1032 -36 c0 -8 -11 -20 -25 -27 -14 -7 -25 -17 -25 -22
0 -5 -4 -7 -9 -3 -5 3 -12 1 -16 -5 -3 -5 -14 -10 -23 -10 -9 0 4 12 30 26 30
17 45 31 41 40 -3 8 1 14 11 14 9 0 16 -6 16 -13z m-230 -62 c0 -8 -2 -15 -4
-15 -2 0 -6 7 -10 15 -3 8 -1 15 4 15 6 0 10 -7 10 -15z m160 -36 c0 -6 -4 -7
-10 -4 -5 3 -10 11 -10 16 0 6 5 7 10 4 6 -3 10 -11 10 -16z m-187 -17 c-2 -6
10 -10 25 -9 26 2 27 0 24 -41 -3 -48 18 -56 28 -12 3 13 12 26 19 28 10 3 12
-1 8 -17 -4 -17 0 -24 21 -33 20 -7 23 -12 12 -16 -24 -8 -31 -26 -12 -33 16
-6 16 -7 -1 -14 -12 -5 -24 0 -38 16 -12 13 -31 24 -42 24 -19 0 -22 7 -25 43
-2 28 -8 42 -18 42 -8 0 -14 2 -14 4 0 2 -3 12 -7 22 -4 12 -2 15 8 12 8 -3
13 -10 12 -16z m161 -33 c-11 -18 -32 -9 -36 16 -3 13 -2 27 1 30 8 9 42 -35
35 -46z m-170 -5 c24 -24 19 -30 -19 -26 -26 3 -35 9 -35 23 0 24 32 25 54 3z
m396 -28 c0 -3 -4 -8 -10 -11 -5 -3 -10 -1 -10 4 0 6 5 11 10 11 6 0 10 -2 10
-4z m334 -44 c-9 -27 -10 -27 -26 -10 -15 15 -15 18 -3 18 9 0 15 9 15 22 0
17 3 19 12 10 7 -7 8 -20 2 -40z m-389 9 c-6 -5 -25 10 -25 20 0 5 6 4 14 -3
8 -7 12 -15 11 -17z m88 4 c-3 -8 -9 -15 -14 -15 -10 0 -12 24 -3 33 11 11 24
-3 17 -18z m147 -5 c0 -5 -12 -10 -27 -10 -22 0 -25 2 -13 10 20 13 40 13 40
0z m115 -40 c28 -31 36 -70 24 -111 -14 -44 -32 -49 -60 -16 -27 33 -22 47 6
15 13 -16 27 -23 30 -18 3 6 2 10 -4 10 -6 0 -8 6 -5 14 3 9 -5 20 -23 30 -27
15 -27 15 -5 16 14 0 22 5 20 13 -3 6 -18 12 -34 12 -27 0 -29 -3 -26 -32 4
-39 -13 -51 -39 -27 -26 23 -48 5 -24 -20 12 -12 13 -16 3 -16 -7 0 -26 14
-40 31 -24 26 -30 29 -49 19 -15 -9 -24 -9 -32 -1 -8 8 -6 11 6 11 9 0 17 6
17 14 0 14 29 26 64 26 12 0 16 -5 13 -15 -10 -23 12 -28 40 -9 l27 17 -27 22
c-14 13 -23 26 -20 29 10 10 41 7 45 -4 2 -6 17 -8 36 -4 23 5 32 12 33 28 1
20 2 20 6 1 3 -11 11 -27 18 -35z m-195 4 c0 -14 -4 -23 -10 -19 -5 3 -10 15
-10 26 0 10 5 19 10 19 6 0 10 -12 10 -26z m-436 4 c2 -7 8 -28 14 -45 6 -20
7 -35 1 -39 -5 -3 -9 2 -9 10 0 9 -8 16 -19 16 -11 0 -23 4 -26 10 -4 6 1 7
11 3 15 -5 16 -2 11 25 -6 30 10 48 17 20z m155 -19 c18 -17 30 -33 28 -36 -3
-2 -23 11 -44 31 -21 19 -33 36 -27 36 6 0 26 -14 43 -31z m-226 -26 c-7 -2
-21 -2 -30 0 -10 3 -5 5 12 5 17 0 24 -2 18 -5z m127 -98 c8 -23 16 -32 26
-28 7 3 17 -2 20 -11 8 -20 24 -21 24 -1 0 9 10 26 23 39 13 13 21 29 19 37
-4 11 -2 12 9 2 7 -7 21 -13 31 -13 10 0 18 -5 18 -11 0 -6 -6 -9 -14 -6 -20
8 -58 -22 -52 -40 6 -15 -15 -43 -32 -43 -5 0 -15 6 -22 14 -6 8 -17 13 -25
10 -7 -3 -16 0 -20 5 -3 6 -11 9 -16 5 -14 -8 -1 -24 21 -24 21 0 35 -29 20
-44 -8 -8 -12 -5 -16 10 -4 16 -12 20 -39 18 -33 -3 -34 -2 -22 18 9 16 9 22
0 25 -7 3 -13 9 -13 14 0 6 5 7 10 4 19 -12 29 5 20 34 -12 43 16 29 30 -14z
m280 25 c-19 -12 -30 -12 -30 -1 0 10 31 20 40 14 2 -2 -2 -8 -10 -13z m-330
-17 c0 -10 -9 -13 -27 -11 -20 2 -28 -2 -28 -12 0 -8 -8 -14 -16 -12 -9 1 -22
-5 -29 -13 -14 -17 -30 -20 -30 -6 0 5 21 25 48 43 47 34 82 39 82 11z m-29
-60 c-9 -16 -10 -14 -11 12 0 21 3 26 11 18 8 -8 8 -16 0 -30z m476 15 c-2 -7
-11 -12 -19 -10 -8 1 -34 -18 -57 -43 -37 -40 -41 -48 -29 -63 11 -13 11 -14
-1 -7 -9 5 -18 2 -26 -8 -12 -17 -55 -13 -55 5 0 5 6 8 12 6 7 -3 26 15 42 39
16 24 45 55 65 69 38 26 76 32 68 12z m187 -17 c10 -16 -21 -20 -41 -6 -17 13
-16 14 9 15 15 0 29 -4 32 -9z m-674 -33 c0 -13 -32 -6 -37 9 -3 7 3 9 16 6
12 -3 21 -10 21 -15z m230 -20 c0 -6 9 -21 20 -33 25 -27 39 -88 18 -80 -7 3
-14 18 -13 32 0 20 -8 31 -30 42 -16 9 -32 17 -34 18 -6 4 21 33 30 33 5 0 9
-5 9 -12z m-250 -18 c0 -5 -4 -10 -10 -10 -5 0 -10 5 -10 10 0 6 5 10 10 10 6
0 10 -4 10 -10z m650 -20 c0 -5 -4 -10 -10 -10 -5 0 -10 5 -10 10 0 6 5 10 10
10 6 0 10 -4 10 -10z m465 -51 c11 -17 -1 -21 -15 -4 -8 9 -8 15 -2 15 6 0 14
-5 17 -11z m-689 -31 c4 -7 3 -8 -4 -4 -7 4 -12 3 -12 -3 0 -17 20 -23 35 -11
20 17 19 -4 -1 -24 -19 -20 -34 -21 -34 -2 0 7 -7 19 -15 26 -8 7 -12 16 -9
21 7 13 32 11 40 -3z m-117 -22 c8 -9 8 -16 2 -20 -6 -4 -15 3 -21 14 -12 23
2 27 19 6z m-268 -99 c16 -21 16 -23 -1 -23 -11 0 -20 9 -23 23 -5 29 3 29 24
0z m244 -37 c3 -5 1 -10 -4 -10 -6 0 -11 5 -11 10 0 6 2 10 4 10 3 0 8 -4 11
-10z m-315 -210 c0 -5 -4 -10 -10 -10 -5 0 -10 5 -10 10 0 6 5 10 10 10 6 0
10 -4 10 -10z m1766 -65 c27 -24 52 -44 56 -45 24 -1 128 -193 113 -208 -2 -3
-9 8 -15 24 -29 75 -50 105 -131 187 -92 93 -105 116 -23 42z m-1761 15 c3 -5
1 -10 -4 -10 -6 0 -11 5 -11 10 0 6 2 10 4 10 3 0 8 -4 11 -10z m55 -26 c0 -8
-4 -12 -10 -9 -5 3 -10 10 -10 16 0 5 5 9 10 9 6 0 10 -7 10 -16z m1720 -139
c0 -16 -6 -25 -15 -25 -9 0 -15 9 -15 25 0 16 6 25 15 25 9 0 15 -9 15 -25z
m370 -24 c0 -6 -4 -13 -10 -16 -5 -3 -10 1 -10 9 0 9 5 16 10 16 6 0 10 -4 10
-9z"/>
<path d="M457 2519 c3 -10 9 -16 14 -13 13 8 11 21 -5 27 -10 4 -12 0 -9 -14z"/>
<path d="M440 2390 c0 -5 5 -10 11 -10 5 0 7 5 4 10 -3 6 -8 10 -11 10 -2 0
-4 -4 -4 -10z"/>
<path d="M532 2339 c2 -7 10 -15 17 -17 8 -3 12 1 9 9 -2 7 -10 15 -17 17 -8
3 -12 -1 -9 -9z"/>
<path d="M1016 2105 c4 -8 8 -15 10 -15 2 0 4 7 4 15 0 8 -4 15 -10 15 -5 0
-7 -7 -4 -15z"/>
<path d="M760 2024 c0 -8 5 -12 10 -9 6 3 10 10 10 16 0 5 -4 9 -10 9 -5 0
-10 -7 -10 -16z"/>
<path d="M221 1534 c0 -11 3 -14 6 -6 3 7 2 16 -1 19 -3 4 -6 -2 -5 -13z"/>
<path d="M762 1461 c-10 -6 -10 -10 2 -20 10 -9 16 -9 21 -1 10 16 -7 31 -23
21z"/>
<path d="M758 1393 c-7 -25 1 -43 18 -43 11 0 14 8 12 27 -4 31 -23 42 -30 16z"/>
<path d="M442 1308 c3 -7 13 -15 22 -16 12 -3 17 1 14 10 -3 7 -13 15 -22 16
-12 3 -17 -1 -14 -10z"/>
<path d="M765 1300 c-3 -5 -1 -10 4 -10 6 0 11 5 11 10 0 6 -2 10 -4 10 -3 0
-8 -4 -11 -10z"/>
<path d="M575 1280 c-3 -5 -1 -10 4 -10 6 0 11 5 11 10 0 6 -2 10 -4 10 -3 0
-8 -4 -11 -10z"/>
<path d="M627 1273 c-3 -5 -8 -23 -12 -40 -5 -28 -4 -33 12 -33 37 0 47 15 33
49 -12 30 -24 39 -33 24z m27 -44 c-3 -5 -10 -7 -15 -3 -5 3 -7 10 -3 15 3 5
10 7 15 3 5 -3 7 -10 3 -15z"/>
<path d="M420 1260 c0 -5 10 -10 23 -10 18 0 19 2 7 10 -19 13 -30 13 -30 0z"/>
<path d="M402 1215 c2 -26 22 -34 31 -12 3 7 -3 19 -14 25 -17 11 -19 9 -17
-13z"/>
<path d="M344 4135 c10 -8 23 -12 28 -9 14 9 -2 24 -25 24 -21 -1 -21 -1 -3
-15z"/>
<path d="M395 4137 c-4 -10 -5 -21 -1 -24 10 -10 18 4 13 24 -4 17 -4 17 -12
0z"/>
<path d="M467 4128 c-5 -17 -9 -19 -21 -9 -22 19 -27 -2 -11 -49 8 -23 13 -46
10 -50 -3 -5 -1 -11 5 -15 11 -7 24 39 16 60 -4 12 3 15 33 15 34 0 40 4 51
30 15 35 7 49 -19 33 -11 -7 -23 -8 -32 -2 -21 13 -26 11 -32 -13z"/>
<path d="M1070 4140 c0 -5 7 -10 15 -10 8 0 15 5 15 10 0 6 -7 10 -15 10 -8 0
-15 -4 -15 -10z"/>
<path d="M752 4107 c-16 -37 -15 -52 2 -66 21 -17 27 0 17 50 l-8 44 -11 -28z"/>
<path d="M984 4116 c10 -8 19 -24 20 -36 1 -28 19 -26 23 4 2 15 -3 26 -14 30
-10 3 -25 9 -33 12 -9 3 -7 -1 4 -10z"/>
<path d="M940 4090 c0 -5 5 -10 10 -10 6 0 10 5 10 10 0 6 -4 10 -10 10 -5 0
-10 -4 -10 -10z"/>
<path d="M1168 4088 c-16 -5 -28 -14 -28 -19 0 -5 -12 -6 -27 -3 l-27 7 17
-26 c9 -14 14 -33 11 -41 -4 -10 -1 -16 9 -16 9 0 18 9 22 19 4 13 12 18 22
14 13 -5 15 0 11 25 -2 18 -2 32 1 32 3 0 20 -14 38 -32 37 -36 54 -32 29 6
-22 35 -46 45 -78 34z"/>
<path d="M1386 4073 c-9 -23 -7 -43 4 -43 6 0 10 6 10 14 0 8 7 17 16 20 18 7
12 19 -11 22 -7 1 -16 -5 -19 -13z"/>
<path d="M1351 4064 c0 -11 3 -14 6 -6 3 7 2 16 -1 19 -3 4 -6 -2 -5 -13z"/>
<path d="M1475 4070 c-7 -12 2 -30 15 -30 5 0 8 9 7 20 -1 21 -12 26 -22 10z"/>
<path d="M1586 4056 c3 -9 11 -16 16 -16 13 0 5 23 -10 28 -7 2 -10 -2 -6 -12z"/>
<path d="M3517 4055 c-4 -8 -2 -17 3 -20 6 -4 10 3 10 14 0 25 -6 27 -13 6z"/>
<path d="M1270 4050 c0 -5 5 -10 11 -10 5 0 7 5 4 10 -3 6 -8 10 -11 10 -2 0
-4 -4 -4 -10z"/>
<path d="M1520 4050 c0 -5 9 -10 21 -10 11 0 17 5 14 10 -3 6 -13 10 -21 10
-8 0 -14 -4 -14 -10z"/>
<path d="M1670 4035 c0 -8 5 -15 10 -15 6 0 10 7 10 15 0 8 -4 15 -10 15 -5 0
-10 -7 -10 -15z"/>
<path d="M3600 4040 c0 -5 11 -17 26 -26 34 -23 56 -4 23 20 -26 18 -49 21
-49 6z"/>
<path d="M1620 4030 c0 -5 5 -10 11 -10 5 0 7 5 4 10 -3 6 -8 10 -11 10 -2 0
-4 -4 -4 -10z"/>
<path d="M995 4017 c-23 -18 -31 -77 -10 -77 21 0 9 -50 -16 -70 -27 -22 -10
-47 20 -29 11 8 21 17 21 21 0 5 6 8 14 8 23 0 31 22 14 34 -9 6 -17 20 -20
31 -2 13 -10 19 -22 17 -11 -2 -16 1 -13 10 2 7 13 12 24 11 13 -1 24 7 31 21
16 36 -7 49 -43 23z"/>
<path d="M1060 4008 c0 -20 1 -21 24 -12 23 9 20 30 -4 30 -13 0 -20 -7 -20
-18z"/>
<path d="M1950 3992 c0 -12 4 -22 9 -22 10 0 9 26 -2 36 -4 4 -7 -2 -7 -14z"/>
<path d="M3310 3991 c0 -5 5 -13 10 -16 6 -3 10 -2 10 4 0 5 -4 13 -10 16 -5
3 -10 2 -10 -4z"/>
<path d="M2490 3959 c-30 -12 -63 -23 -72 -26 -10 -3 -18 -10 -18 -16 0 -6 -3
-7 -6 -4 -4 3 -15 2 -26 -4 -11 -6 -22 -8 -25 -6 -2 3 16 14 41 26 25 11 46
25 46 32 0 26 -181 -12 -240 -51 -14 -9 -47 -27 -75 -40 -50 -25 -62 -33 -90
-58 -8 -7 -15 -10 -15 -5 0 4 -7 -3 -16 -15 -8 -12 -20 -22 -25 -22 -6 0 -26
-12 -45 -26 -34 -26 -34 -26 -34 -4 0 16 4 21 16 16 12 -4 15 -2 10 9 -4 10 8
25 36 45 48 35 35 39 -25 9 -41 -21 -157 -133 -157 -152 0 -5 -9 -7 -20 -4
-12 3 -20 1 -19 -6 3 -20 -12 -47 -26 -47 -7 0 -15 -4 -17 -9 -1 -5 -22 -30
-45 -54 -23 -25 -39 -47 -36 -50 3 -3 -4 -18 -16 -33 -11 -15 -21 -34 -21 -43
0 -13 -2 -13 -9 -2 -7 10 -14 -2 -27 -43 -10 -31 -21 -56 -26 -56 -4 0 -8 -8
-8 -17 0 -9 -9 -42 -19 -72 -10 -31 -22 -69 -25 -86 l-6 -30 25 28 c14 15 25
36 25 46 0 10 6 24 14 30 7 6 16 24 19 39 4 15 17 45 31 67 l25 40 11 -29 c12
-33 3 -64 -35 -120 -12 -18 -25 -44 -29 -59 -3 -15 -11 -27 -16 -27 -6 0 -10
-8 -10 -18 0 -25 -23 -72 -36 -72 -5 0 -15 5 -22 12 -9 9 -12 9 -12 -1 0 -7
-5 -9 -10 -6 -6 4 -17 1 -25 -5 -11 -10 -15 -10 -15 -1 0 7 -5 9 -10 6 -14 -9
14 -35 37 -35 25 0 43 -19 43 -44 0 -12 3 -16 8 -10 14 21 40 23 45 4 3 -13
11 -17 24 -14 15 4 18 12 15 35 -3 24 -1 28 12 23 12 -5 16 0 16 19 0 14 5 29
10 32 6 4 28 41 49 83 37 73 91 148 91 127 0 -9 -78 -174 -116 -247 -8 -14
-14 -34 -14 -43 0 -9 -4 -14 -9 -10 -5 3 -12 1 -16 -5 -3 -5 8 -25 24 -42 17
-18 31 -36 31 -40 0 -5 19 -8 43 -8 24 0 47 -4 52 -9 6 -6 25 -6 45 -2 19 4
47 3 63 -2 20 -7 34 -5 52 7 33 22 45 20 45 -6 0 -21 0 -21 15 -2 14 19 14 18
15 -3 0 -13 5 -23 11 -23 6 0 9 9 6 20 -3 11 -1 20 4 20 5 0 9 -7 9 -15 0 -19
24 -20 42 -1 8 7 27 16 43 19 69 12 148 36 158 46 6 6 21 11 33 11 13 0 26 5
29 10 3 6 16 10 29 10 13 0 31 9 41 20 10 11 29 20 42 20 16 0 23 6 23 18 0
29 38 58 130 98 47 21 92 43 100 50 8 7 36 22 63 33 26 11 47 25 47 31 0 5 5
10 11 10 5 0 24 13 42 29 17 17 42 33 56 36 13 3 38 17 54 31 16 13 36 24 46
24 10 0 28 11 41 25 13 14 29 24 36 21 6 -2 21 4 33 15 23 22 66 41 74 33 3
-3 -4 -17 -16 -31 -12 -13 -25 -32 -29 -42 -5 -15 0 -18 30 -19 52 -2 63 -22
58 -104 -3 -38 -1 -91 3 -118 8 -47 0 -73 -14 -50 -12 19 -31 10 -42 -20 -8
-21 -8 -30 1 -34 7 -3 1 -14 -15 -28 -14 -13 -24 -29 -21 -36 2 -7 -1 -12 -7
-12 -5 0 -11 -12 -13 -27 -2 -22 -9 -29 -31 -31 -19 -2 -27 -8 -23 -17 7 -19
-5 -27 -20 -14 -18 15 -37 1 -31 -23 5 -16 2 -19 -13 -15 -19 5 -35 -17 -25
-33 7 -12 -27 -22 -38 -11 -11 11 -37 -10 -37 -30 0 -10 3 -10 12 -1 20 20 28
14 26 -17 -1 -20 -9 -31 -21 -35 -14 -3 -17 -10 -12 -25 5 -17 2 -21 -14 -21
-23 0 -28 -16 -8 -23 9 -4 9 -7 0 -17 -10 -11 -15 -11 -28 0 -12 10 -15 10
-15 -5 0 -10 7 -27 17 -37 9 -10 12 -18 6 -18 -6 0 -16 -27 -23 -61 -13 -62
-15 -64 -77 -83 -17 -6 -23 -3 -23 8 0 25 -17 19 -36 -14 -21 -35 -44 -46 -45
-22 0 9 -5 2 -10 -17 -7 -23 -19 -37 -40 -44 -23 -9 -29 -18 -30 -42 -2 -31 2
-105 7 -140 1 -11 3 -25 3 -31 1 -6 11 -23 24 -37 26 -30 136 -65 148 -46 8
14 49 -6 49 -24 0 -7 6 -3 12 8 6 11 26 34 44 52 19 18 34 37 34 43 0 19 98
110 119 110 11 0 23 5 26 10 4 6 10 8 15 5 4 -2 20 5 34 16 23 18 31 19 58 10
17 -6 47 -11 66 -11 26 0 43 -9 72 -37 31 -32 39 -50 50 -106 14 -77 10 -123
-21 -235 -29 -107 -31 -111 -36 -89 -6 24 -13 21 -52 -24 -33 -39 -34 -40 -15
-62 11 -12 12 -17 4 -11 -9 7 -23 8 -35 3 -11 -4 -15 -8 -8 -8 6 -1 9 -10 6
-20 -3 -13 2 -21 16 -26 30 -9 26 -25 -5 -25 l-27 0 26 -20 c14 -11 30 -20 36
-20 15 0 14 -27 -2 -42 -10 -8 -12 -22 -7 -44 4 -18 3 -52 -2 -76 -5 -24 -11
-65 -14 -93 -2 -27 -11 -59 -19 -72 -8 -12 -15 -27 -15 -34 0 -14 -32 -82 -41
-89 -4 -3 -13 -18 -18 -33 -6 -16 -15 -26 -20 -23 -15 9 -29 -17 -33 -61 -2
-29 0 -43 8 -43 7 0 10 -8 7 -20 -3 -11 -9 -18 -13 -15 -5 3 -12 -4 -15 -16
-4 -12 -2 -24 4 -28 6 -4 7 -18 3 -36 -6 -22 -18 -33 -43 -42 -32 -11 -32 -12
-7 -12 15 -1 29 -5 32 -10 11 -18 -13 -59 -36 -63 -13 -2 -27 -13 -33 -26 -12
-27 -29 -24 -33 6 -4 28 -23 29 -19 1 3 -28 -19 -36 -26 -9 -8 31 -95 31 -139
0 -15 -11 -46 -23 -70 -26 -24 -4 -46 -12 -50 -18 -5 -8 -8 -7 -8 2 0 6 -7 12
-15 12 -24 0 -17 -17 13 -29 15 -7 58 -30 97 -52 58 -33 83 -41 150 -48 44 -5
83 -6 88 -4 11 7 8 -11 -9 -52 -8 -20 -13 -39 -10 -42 3 -3 45 49 93 115 48
67 91 121 94 122 17 1 -9 -269 -30 -309 -8 -14 -10 -41 -6 -74 4 -30 2 -64 -5
-81 -10 -28 -155 -176 -172 -176 -4 0 -8 -4 -8 -10 0 -7 218 -10 635 -10 l635
0 0 1178 0 1178 -50 44 c-27 24 -50 48 -50 53 0 4 5 5 10 2 19 -12 10 21 -11
38 -19 17 -22 17 -33 2 -11 -15 -16 -13 -49 19 -21 20 -41 36 -46 36 -5 0 -15
7 -22 17 -8 9 -50 33 -94 54 -44 21 -87 43 -95 48 -8 5 -36 19 -62 31 -26 12
-63 32 -82 45 -19 13 -37 21 -39 18 -14 -14 -27 47 -31 148 -2 63 -7 132 -11
155 -5 30 -2 50 10 73 21 42 47 176 40 215 -2 17 -7 45 -9 61 -15 98 -93 257
-150 309 -67 59 -106 86 -126 86 -25 0 -49 25 -50 52 0 17 -22 27 -67 31 -12
0 -19 5 -16 10 7 11 -16 37 -33 37 -7 0 -18 -8 -23 -18 -13 -25 -2 -72 17 -72
15 0 15 -2 0 -17 -16 -15 -16 -17 -1 -28 10 -8 13 -19 9 -33 -6 -19 -9 -20
-21 -8 -8 7 -25 12 -39 11 -19 -2 -26 1 -26 14 0 9 -5 22 -12 29 -17 17 -2 27
17 12 12 -10 19 -10 28 -1 9 9 9 14 -3 21 -20 13 -47 12 -55 0 -5 -8 -11 -8
-20 0 -7 6 -26 8 -42 4 l-28 -6 23 17 c13 9 29 14 37 11 23 -8 18 7 -6 23 -12
7 -24 9 -28 4 -5 -7 -40 -9 -79 -5 -7 1 -10 7 -6 13 5 9 -1 10 -22 4 -51 -13
-59 -11 -57 11 2 18 -7 24 -55 38 -77 21 -135 20 -202 -5z m235 -49 c3 -5 -1
-10 -9 -10 -9 0 -16 -4 -16 -10 0 -5 -9 -10 -21 -10 -21 0 -21 0 2 20 27 22
35 24 44 10z m435 -70 c0 -17 -5 -19 -26 -16 -34 7 -43 16 -15 16 12 0 19 4
16 10 -3 6 1 10 9 10 9 0 16 -9 16 -20z m-200 -14 c0 -3 -4 -8 -10 -11 -5 -3
-10 -1 -10 4 0 6 5 11 10 11 6 0 10 -2 10 -4z m220 -129 c16 -22 30 -52 30
-66 -1 -22 -3 -19 -15 14 -13 37 -54 80 -65 68 -3 -3 1 -8 8 -10 7 -3 17 -13
22 -24 18 -32 -13 -23 -33 10 -22 37 -21 46 3 48 12 1 30 -13 50 -40z m-80 21
c0 -7 -5 -20 -10 -28 -8 -12 -10 -9 -10 13 0 15 5 27 10 27 6 0 10 -6 10 -12z
m-1250 -43 c-7 -8 -17 -15 -23 -15 -5 0 -2 9 8 20 21 23 35 19 15 -5z m1570
-62 c0 -10 -59 70 -60 81 0 5 14 -10 30 -32 17 -23 30 -45 30 -49z m-1613 22
c-15 -16 -19 -13 -11 9 3 9 10 13 15 10 5 -3 3 -11 -4 -19z m-37 -45 c0 -5 -5
-10 -11 -10 -5 0 -7 5 -4 10 3 6 8 10 11 10 2 0 4 -4 4 -10z m1467 -42 c-3 -8
-6 -5 -6 6 -1 11 2 17 5 13 3 -3 4 -12 1 -19z m-1523 -25 c-10 -15 -21 -30
-25 -33 -8 -7 -34 -54 -32 -60 0 -3 -11 -16 -24 -30 l-25 -25 7 25 c4 14 13
30 21 36 8 6 14 14 14 18 0 4 5 12 10 19 46 54 60 73 60 81 0 5 3 7 6 4 3 -4
-3 -19 -12 -35z m1516 -63 c0 -5 -7 -7 -15 -4 -8 4 -15 8 -15 10 0 2 7 4 15 4
8 0 15 -4 15 -10z m101 -42 c16 -23 29 -46 29 -52 0 -6 -10 5 -22 24 -12 19
-30 42 -40 51 -10 9 -18 19 -18 23 0 14 22 -6 51 -46z m-1671 -32 c0 -3 -4 -8
-10 -11 -5 -3 -10 -1 -10 4 0 6 5 11 10 11 6 0 10 -2 10 -4z m1595 -26 c3 -5
1 -10 -6 -10 -8 0 -6 -6 4 -18 19 -21 22 -38 8 -47 -13 -7 -41 52 -34 71 6 16
19 18 28 4z m-1505 -54 c0 -3 -4 -8 -10 -11 -5 -3 -10 -1 -10 4 0 6 5 11 10
11 6 0 10 -2 10 -4z m1485 -56 c3 -5 -1 -10 -10 -10 -9 0 -13 5 -10 10 3 6 8
10 10 10 2 0 7 -4 10 -10z m-1415 -3 c0 -5 -28 -66 -41 -89 -12 -23 -12 -24 5
-41 10 -10 12 -23 6 -48 l-8 -34 -1 30 c-2 30 -2 30 -16 -9 -7 -21 -20 -43
-27 -47 -45 -30 -65 39 -25 87 29 35 60 94 50 94 -5 0 -1 5 7 10 8 5 16 15 16
22 1 7 2 16 3 21 1 7 31 11 31 4z m-230 -134 c-19 -62 -32 -85 -42 -71 -4 7
-8 20 -8 28 0 13 1 13 10 0 8 -12 10 -11 10 8 0 12 5 22 11 22 5 0 8 4 4 10
-6 9 16 52 23 45 2 -2 -1 -21 -8 -42z m228 17 c12 -19 11 -20 -8 -8 -20 13
-27 28 -12 28 4 0 13 -9 20 -20z m1385 -165 c4 -8 2 -17 -3 -20 -6 -4 -10 3
-10 14 0 25 6 27 13 6z m887 -1350 c-7 -9 -15 -13 -19 -10 -3 3 1 10 9 15 21
14 24 12 10 -5z m-668 -57 c-9 -9 -12 -7 -12 12 0 19 3 21 12 12 9 -9 9 -15 0
-24z m586 11 c-5 -16 -56 -44 -65 -35 -9 9 35 45 55 46 8 0 12 -5 10 -11z m32
-49 c0 -6 -8 -14 -17 -17 -10 -4 -21 -11 -25 -17 -5 -8 -8 -7 -8 1 0 6 10 19
22 27 27 19 28 19 28 6z m-120 -13 c0 -18 -57 -50 -65 -37 -7 12 33 49 53 50
6 0 12 -6 12 -13z m40 -57 c0 -6 -8 -14 -17 -17 -10 -4 -21 -11 -25 -17 -4 -6
-10 -7 -14 -3 -4 3 4 15 17 26 27 23 39 26 39 11z m-153 -16 c4 -13 -86 -79
-95 -70 -8 9 70 86 82 82 6 -1 11 -7 13 -12z m16 -74 c-10 -11 -27 -20 -39
-20 -12 0 -25 -6 -27 -12 -4 -9 -6 -9 -6 -1 -1 6 16 20 37 31 48 26 56 27 35
2z m-483 -320 c0 -15 -7 -20 -27 -20 -25 0 -26 0 -8 20 10 11 22 20 27 20 4 0
8 -9 8 -20z m0 -64 c0 -3 -4 -8 -10 -11 -5 -3 -10 -1 -10 4 0 6 5 11 10 11 6
0 10 -2 10 -4z m170 -80 c0 -3 -4 -8 -10 -11 -5 -3 -10 -1 -10 4 0 6 5 11 10
11 6 0 10 -2 10 -4z m-69 -24 c-13 -2 -27 0 -32 5 -6 6 3 7 23 4 28 -4 29 -6
9 -9z m184 -77 c-22 -19 -44 -35 -50 -35 -5 0 8 16 29 35 22 19 44 35 50 35 6
-1 -7 -16 -29 -35z m135 -57 c32 -34 23 -45 -10 -13 -16 16 -30 30 -30 32 0
10 22 0 40 -19z m-220 -15 c-1 -12 -100 -107 -106 -101 -3 3 17 29 43 57 44
48 63 61 63 44z m-14 -258 c11 -27 -1 -39 -19 -21 -17 17 -15 36 4 36 5 0 12
-7 15 -15z"/>
<path d="M1752 3080 c0 -14 2 -19 5 -12 2 6 2 18 0 25 -3 6 -5 1 -5 -13z"/>
<path d="M1116 3962 c-3 -6 -1 -14 5 -17 14 -9 20 -2 10 14 -6 8 -11 9 -15 3z"/>
<path d="M1205 3960 c3 -5 13 -10 21 -10 8 0 12 5 9 10 -3 6 -13 10 -21 10 -8
0 -12 -4 -9 -10z"/>
<path d="M1495 3960 c3 -5 8 -10 11 -10 2 0 4 5 4 10 0 6 -5 10 -11 10 -5 0
-7 -4 -4 -10z"/>
<path d="M1308 3953 c-11 -3 -18 -14 -18 -27 0 -18 5 -22 28 -20 48 3 52 4 52
15 0 11 -30 39 -40 38 -3 -1 -13 -3 -22 -6z"/>
<path d="M1835 3940 c3 -5 8 -10 11 -10 2 0 4 5 4 10 0 6 -5 10 -11 10 -5 0
-7 -4 -4 -10z"/>
<path d="M1875 3940 c-3 -5 -1 -10 4 -10 6 0 11 5 11 10 0 6 -2 10 -4 10 -3 0
-8 -4 -11 -10z"/>
<path d="M1077 3933 c-5 -7 -5 -18 -2 -23 4 -6 1 -18 -6 -26 -14 -17 -4 -33
12 -17 6 6 9 26 7 44 -2 22 -6 30 -11 22z"/>
<path d="M1390 3909 c0 -5 5 -7 10 -4 6 3 10 8 10 11 0 2 -4 4 -10 4 -5 0 -10
-5 -10 -11z"/>
<path d="M3387 3909 c-10 -6 -27 -9 -38 -6 -16 4 -19 0 -19 -25 l0 -31 26 27
c15 14 33 26 40 26 8 0 14 5 14 10 0 12 0 12 -23 -1z"/>
<path d="M1210 3890 c0 -11 -7 -20 -15 -20 -8 0 -15 -4 -15 -9 0 -20 16 -18
45 5 25 20 28 26 15 34 -23 15 -30 12 -30 -10z"/>
<path d="M3292 3890 c0 -14 2 -19 5 -12 2 6 2 18 0 25 -3 6 -5 1 -5 -13z"/>
<path d="M3530 3895 c0 -8 5 -15 10 -15 6 0 10 7 10 15 0 8 -4 15 -10 15 -5 0
-10 -7 -10 -15z"/>
<path d="M1650 3888 c0 -10 -4 -18 -10 -18 -20 0 -10 -28 16 -45 14 -9 27 -15
29 -13 1 2 8 13 14 26 10 19 9 23 -6 29 -10 4 -23 14 -30 22 -11 14 -12 14
-13 -1z"/>
<path d="M1710 3896 c0 -2 7 -7 16 -10 8 -3 12 -2 9 4 -6 10 -25 14 -25 6z"/>
<path d="M1765 3890 c3 -5 8 -10 11 -10 2 0 4 5 4 10 0 6 -5 10 -11 10 -5 0
-7 -4 -4 -10z"/>
<path d="M1127 3851 c3 -11 -2 -21 -11 -24 -18 -7 -22 -37 -4 -37 6 0 9 -3 5
-6 -3 -3 -20 1 -38 10 -39 20 -39 20 -39 1 0 -8 8 -15 18 -15 18 0 52 -29 52
-44 0 -12 27 -36 33 -29 4 3 2 13 -2 22 -10 17 -3 71 8 71 3 0 14 -12 23 -27
l17 -28 1 30 c1 25 2 27 11 13 13 -22 25 -23 33 -2 10 25 -11 43 -45 39 -24
-3 -32 0 -39 20 -11 29 -30 34 -23 6z"/>
<path d="M1500 3860 c0 -5 7 -10 15 -10 8 0 15 5 15 10 0 6 -7 10 -15 10 -8 0
-15 -4 -15 -10z"/>
<path d="M3230 3860 c20 -13 33 -13 25 0 -3 6 -14 10 -23 10 -15 0 -15 -2 -2
-10z"/>
<path d="M1417 3853 c-4 -3 -7 -13 -7 -21 0 -12 3 -12 15 -2 8 7 15 16 15 21
0 11 -14 12 -23 2z"/>
<path d="M1540 3825 c0 -9 7 -18 16 -22 18 -7 66 16 58 29 -3 4 -15 3 -27 -3
-16 -9 -22 -9 -25 0 -5 16 -22 13 -22 -4z"/>
<path d="M1506 3803 c-4 -9 -1 -20 6 -25 14 -8 5 -11 -24 -9 -15 2 -18 -6 -18
-38 0 -23 5 -41 10 -41 6 0 10 10 10 22 0 17 3 19 12 10 7 -7 21 -12 32 -12
17 0 18 2 5 18 -8 9 -14 34 -13 55 1 38 -9 49 -20 20z"/>
<path d="M1351 3794 c0 -11 3 -14 6 -6 3 7 2 16 -1 19 -3 4 -6 -2 -5 -13z"/>
<path d="M1280 3784 c0 -3 4 -14 10 -24 8 -15 6 -20 -10 -25 -23 -7 -27 -30
-7 -38 19 -7 33 4 41 31 5 14 3 22 -4 22 -7 0 -10 8 -7 20 3 13 0 20 -9 20 -8
0 -14 -3 -14 -6z"/>
<path d="M1575 3770 c3 -5 8 -10 11 -10 2 0 4 5 4 10 0 6 -5 10 -11 10 -5 0
-7 -4 -4 -10z"/>
<path d="M1640 3771 c0 -6 5 -13 10 -16 6 -3 10 1 10 9 0 9 -4 16 -10 16 -5 0
-10 -4 -10 -9z"/>
<path d="M1233 3752 c-8 -5 -9 -13 -3 -22 7 -12 10 -12 16 3 8 21 3 29 -13 19z"/>
<path d="M1342 3738 c6 -18 28 -21 28 -4 0 9 -7 16 -16 16 -9 0 -14 -5 -12
-12z"/>
<path d="M1670 3718 c0 -10 -4 -18 -10 -18 -5 0 -10 -9 -10 -20 0 -11 6 -20
13 -20 21 0 60 47 54 64 -8 21 -47 16 -47 -6z"/>
<path d="M3802 3721 c4 -13 18 -16 19 -4 0 4 -5 9 -11 12 -7 2 -11 -2 -8 -8z"/>
<path d="M1600 3716 c0 -2 7 -7 16 -10 8 -3 12 -2 9 4 -6 10 -25 14 -25 6z"/>
<path d="M471 3669 c0 -15 -8 -32 -16 -39 -20 -16 -19 -34 2 -51 15 -13 15
-12 3 10 -11 21 -10 26 4 37 12 8 16 22 13 41 -4 28 -4 28 -6 2z"/>
<path d="M847 3653 c-12 -11 -8 -23 8 -23 8 0 15 7 15 15 0 16 -12 20 -23 8z"/>
<path d="M720 3643 c1 -14 27 -43 39 -43 6 0 11 11 11 25 0 20 -5 25 -25 25
-14 0 -25 -3 -25 -7z"/>
<path d="M1197 3644 c-14 -14 -6 -24 19 -24 16 0 24 5 22 13 -5 14 -31 21 -41
11z"/>
<path d="M1560 3635 c0 -17 2 -18 24 -9 23 9 20 24 -4 24 -11 0 -20 -7 -20
-15z"/>
<path d="M800 3625 c0 -8 -4 -15 -9 -15 -14 0 -23 -32 -11 -44 13 -13 31 10
23 30 -2 6 0 15 6 19 14 8 14 25 1 25 -5 0 -10 -7 -10 -15z"/>
<path d="M1465 3630 c-3 -5 -1 -10 4 -10 6 0 11 5 11 10 0 6 -2 10 -4 10 -3 0
-8 -4 -11 -10z"/>
<path d="M490 3611 c0 -5 5 -13 10 -16 6 -3 10 -2 10 4 0 5 -4 13 -10 16 -5 3
-10 2 -10 -4z"/>
<path d="M910 3610 c0 -5 5 -10 10 -10 6 0 10 5 10 10 0 6 -4 10 -10 10 -5 0
-10 -4 -10 -10z"/>
<path d="M870 3600 c0 -5 3 -10 8 -10 4 0 15 -14 24 -30 13 -23 24 -30 48 -30
20 0 30 5 30 15 0 17 -36 39 -51 30 -5 -4 -18 3 -28 14 -20 23 -31 27 -31 11z"/>
<path d="M3857 3601 c-17 -6 -18 -8 -3 -20 18 -15 29 -10 32 14 2 16 -2 17
-29 6z"/>
<path d="M1442 3587 c-26 -15 -19 -27 15 -27 16 0 23 6 23 20 0 23 -6 24 -38
7z"/>
<path d="M610 3581 c0 -6 5 -13 10 -16 6 -3 10 1 10 9 0 9 -4 16 -10 16 -5 0
-10 -4 -10 -9z"/>
<path d="M1515 3579 c-9 -14 -2 -20 14 -10 8 6 9 11 3 15 -6 3 -14 1 -17 -5z"/>
<path d="M1260 3565 c7 -9 15 -13 17 -11 7 7 -7 26 -19 26 -6 0 -6 -6 2 -15z"/>
<path d="M820 3505 c7 -9 15 -13 17 -11 7 7 -7 26 -19 26 -6 0 -6 -6 2 -15z"/>
<path d="M977 3504 c-3 -4 -2 -15 3 -25 11 -19 -2 -35 -19 -25 -5 3 -12 -4
-16 -17 -7 -19 -9 -16 -15 18 -7 46 -16 32 -23 -37 -6 -63 10 -78 60 -54 31
15 35 20 30 45 -3 15 -1 33 4 38 6 6 9 21 7 34 -3 23 -19 35 -31 23z"/>
<path d="M1394 3499 c-3 -6 -1 -16 5 -22 8 -8 11 -5 11 11 0 24 -5 28 -16 11z"/>
<path d="M856 3481 c-9 -14 12 -91 24 -91 6 0 10 11 10 24 0 31 -26 81 -34 67z"/>
<path d="M1255 3480 c3 -5 10 -10 16 -10 5 0 9 5 9 10 0 6 -7 10 -16 10 -8 0
-12 -4 -9 -10z"/>
<path d="M1530 3480 c0 -5 5 -10 10 -10 6 0 10 5 10 10 0 6 -4 10 -10 10 -5 0
-10 -4 -10 -10z"/>
<path d="M3542 3469 c2 -6 18 -17 37 -25 20 -9 31 -10 29 -3 -2 6 -18 17 -37
25 -20 9 -31 10 -29 3z"/>
<path d="M1450 3450 c0 -5 5 -10 10 -10 6 0 10 5 10 10 0 6 -4 10 -10 10 -5 0
-10 -4 -10 -10z"/>
<path d="M1196 3422 c-9 -14 7 -62 20 -62 15 0 37 36 30 49 -7 11 -45 21 -50
13z"/>
<path d="M4110 3421 c0 -8 -7 -11 -15 -7 -16 6 -21 -9 -6 -18 11 -7 36 22 27
31 -3 3 -6 1 -6 -6z"/>
<path d="M3860 3389 c0 -5 5 -7 10 -4 6 3 10 8 10 11 0 2 -4 4 -10 4 -5 0 -10
-5 -10 -11z"/>
<path d="M4131 3373 c7 -10 15 -20 16 -22 2 -2 3 3 3 11 0 9 -7 19 -16 22 -15
6 -15 4 -3 -11z"/>
<path d="M3790 3346 c0 -20 5 -36 10 -36 6 0 10 11 10 25 0 14 0 28 1 32 0 4
-4 9 -10 11 -7 2 -11 -11 -11 -32z"/>
<path d="M875 3340 c4 -11 2 -20 -4 -20 -6 0 -11 -7 -11 -15 0 -23 17 -18 24
8 9 33 7 47 -5 47 -6 0 -8 -9 -4 -20z"/>
<path d="M1166 3345 c4 -8 10 -12 15 -9 14 8 10 24 -6 24 -9 0 -12 -6 -9 -15z"/>
<path d="M3865 3338 c-6 -16 -1 -45 8 -54 4 -4 7 2 7 14 0 11 5 24 10 27 6 3
10 10 10 16 0 14 -30 11 -35 -3z"/>
<path d="M1210 3310 c0 -5 5 -10 10 -10 6 0 10 5 10 10 0 6 -4 10 -10 10 -5 0
-10 -4 -10 -10z"/>
<path d="M1237 3305 c-4 -8 -2 -17 3 -20 6 -4 10 3 10 14 0 25 -6 27 -13 6z"/>
<path d="M3678 3293 c-40 -10 -1 -43 50 -43 23 0 45 -6 52 -15 19 -23 43 -20
31 3 -7 13 -7 22 1 30 14 14 -14 27 -37 19 -8 -4 -17 -2 -20 3 -6 10 -45 11
-77 3z"/>
<path d="M3890 3270 c-11 -11 -20 -24 -20 -30 0 -19 16 -10 33 20 21 35 16 39
-13 10z"/>
<path d="M725 3250 c-6 -10 44 -35 53 -26 6 7 -24 36 -37 36 -5 0 -13 -5 -16
-10z"/>
<path d="M1145 3250 c-3 -5 -1 -10 4 -10 6 0 11 5 11 10 0 6 -2 10 -4 10 -3 0
-8 -4 -11 -10z"/>
<path d="M4082 3205 c-26 -30 -27 -35 -7 -35 8 0 15 5 15 10 0 6 9 10 20 10
23 0 26 13 7 29 -11 8 -19 5 -35 -14z"/>
<path d="M1175 3210 c3 -5 10 -10 16 -10 5 0 9 5 9 10 0 6 -7 10 -16 10 -8 0
-12 -4 -9 -10z"/>
<path d="M3670 3190 c0 -5 5 -10 11 -10 5 0 7 5 4 10 -3 6 -8 10 -11 10 -2 0
-4 -4 -4 -10z"/>
<path d="M1087 3183 c-8 -17 -6 -63 2 -63 13 0 41 29 41 41 0 6 -9 7 -22 4
-17 -6 -20 -4 -15 9 6 16 2 23 -6 9z"/>
<path d="M980 3139 c7 -11 14 -19 16 -16 7 7 -7 37 -17 37 -6 0 -5 -9 1 -21z"/>
<path d="M3922 3108 c7 -21 46 -28 63 -11 19 19 11 31 -9 14 -10 -8 -16 -9
-21 -1 -9 14 -38 13 -33 -2z"/>
<path d="M1000 3096 c0 -9 5 -16 10 -16 6 0 10 4 10 9 0 6 -4 13 -10 16 -5 3
-10 -1 -10 -9z"/>
<path d="M635 3092 c-9 -9 -5 -22 7 -22 6 0 20 -7 30 -17 16 -14 18 -14 18 0
0 8 2 22 5 30 4 10 -2 14 -25 14 -16 0 -32 -3 -35 -5z"/>
<path d="M1069 3058 c-7 -13 -7 -24 -1 -30 16 -16 47 -5 50 18 4 30 -34 39
-49 12z m18 -20 c-3 -8 -6 -5 -6 6 -1 11 2 17 5 13 3 -3 4 -12 1 -19z"/>
<path d="M4100 3072 c0 -6 7 -12 15 -16 8 -3 15 -12 15 -21 0 -8 5 -15 11 -15
6 0 9 12 7 28 -2 19 -9 28 -25 30 -13 2 -23 -1 -23 -6z"/>
<path d="M1270 3040 c0 -5 5 -10 11 -10 5 0 7 5 4 10 -3 6 -8 10 -11 10 -2 0
-4 -4 -4 -10z"/>
<path d="M3863 3032 c-7 -4 -9 -13 -4 -21 6 -9 10 -7 14 8 3 12 4 21 4 21 -1
0 -7 -4 -14 -8z"/>
<path d="M1178 3023 c-25 -6 -22 -20 5 -27 34 -9 37 -8 37 14 0 20 -8 22 -42
13z"/>
<path d="M3950 3010 c0 -5 7 -10 16 -10 8 0 12 5 9 10 -3 6 -10 10 -16 10 -5
0 -9 -4 -9 -10z"/>
<path d="M961 2984 c0 -11 3 -14 6 -6 3 7 2 16 -1 19 -3 4 -6 -2 -5 -13z"/>
<path d="M1033 2965 c0 -8 6 -16 14 -19 11 -4 11 -1 3 14 -13 24 -17 25 -17 5z"/>
<path d="M3960 2970 c0 -5 5 -10 11 -10 5 0 7 5 4 10 -3 6 -8 10 -11 10 -2 0
-4 -4 -4 -10z"/>
<path d="M1250 2956 c0 -8 -3 -21 -6 -30 -9 -24 22 -31 51 -12 21 14 24 20 15
36 -12 23 -60 28 -60 6z"/>
<path d="M3810 2961 c0 -5 5 -13 10 -16 6 -3 10 -2 10 4 0 5 -4 13 -10 16 -5
3 -10 2 -10 -4z"/>
<path d="M3990 2960 c0 -5 5 -10 11 -10 5 0 7 5 4 10 -3 6 -8 10 -11 10 -2 0
-4 -4 -4 -10z"/>
<path d="M500 2950 c-13 -8 -12 -10 3 -10 9 0 17 5 17 10 0 12 -1 12 -20 0z"/>
<path d="M4088 2953 c7 -3 16 -2 19 1 4 3 -2 6 -13 5 -11 0 -14 -3 -6 -6z"/>
<path d="M1098 2943 c-35 -9 -18 -29 21 -24 7 2 11 -1 8 -6 -3 -5 12 -9 33 -9
28 -1 37 2 36 13 -4 22 -36 38 -46 23 -5 -9 -9 -9 -14 -1 -7 11 -10 12 -38 4z"/>
<path d="M3763 2922 c0 -35 10 -48 28 -37 7 5 6 12 -4 23 -8 10 -17 24 -20 32
-2 8 -5 0 -4 -18z"/>
<path d="M1027 2889 c-13 -8 -15 -14 -7 -30 12 -21 40 -25 58 -7 14 14 16 32
3 24 -5 -3 -11 1 -15 9 -6 17 -14 18 -39 4z"/>
<path d="M873 2869 c9 -5 17 -17 17 -24 0 -8 5 -15 10 -15 6 0 10 4 10 9 0 14
-29 41 -43 41 -7 0 -4 -5 6 -11z"/>
<path d="M973 2862 c10 -11 17 -26 16 -34 -4 -30 2 -43 11 -23 15 35 11 51
-17 64 -27 12 -27 12 -10 -7z"/>
<path d="M1126 2855 c14 -44 45 -45 37 -1 -4 17 -11 24 -24 23 -14 -1 -17 -6
-13 -22z"/>
<path d="M1256 2839 c-9 -56 -1 -59 22 -10 11 22 17 42 14 45 -15 16 -30 2
-36 -35z"/>
<path d="M3960 2834 c0 -8 5 -12 10 -9 6 4 8 11 5 16 -9 14 -15 11 -15 -7z"/>
<path d="M140 2826 c0 -8 -3 -21 -6 -30 -3 -9 -1 -16 6 -16 6 0 9 4 5 9 -3 5
-1 12 5 16 13 8 13 35 0 35 -5 0 -10 -6 -10 -14z"/>
<path d="M827 2833 c-5 -7 -17 -13 -29 -13 -18 0 -20 -4 -14 -31 3 -17 6 -37
6 -43 0 -6 9 -17 21 -24 19 -12 20 -11 19 10 -3 37 -1 50 9 44 5 -3 7 -30 6
-58 -3 -35 -1 -44 4 -28 5 16 13 24 24 22 11 -2 17 4 17 18 0 11 5 20 10 20 6
0 10 9 10 20 0 27 -18 26 -22 -2 -6 -40 -23 -29 -38 24 -10 34 -18 48 -23 41z"/>
<path d="M3745 2830 c-8 -13 5 -13 25 0 13 8 13 10 -2 10 -9 0 -20 -4 -23 -10z"/>
<path d="M4000 2820 c0 -5 5 -10 10 -10 6 0 10 5 10 10 0 6 -4 10 -10 10 -5 0
-10 -4 -10 -10z"/>
<path d="M4104 2803 c6 -30 22 -50 33 -40 4 4 1 13 -5 19 -7 7 -12 20 -12 30
0 10 -5 18 -10 18 -6 0 -8 -12 -6 -27z"/>
<path d="M590 2804 c0 -8 5 -12 10 -9 6 3 10 10 10 16 0 5 -4 9 -10 9 -5 0
-10 -7 -10 -16z"/>
<path d="M1057 2806 c-4 -9 4 -13 24 -14 31 -1 39 12 13 22 -23 9 -31 7 -37
-8z"/>
<path d="M0 2780 c0 -23 25 -26 65 -8 38 17 30 28 -20 28 -38 0 -45 -3 -45
-20z"/>
<path d="M3975 2753 c4 -25 2 -33 -8 -33 -10 0 -13 -8 -9 -25 3 -20 7 -23 18
-14 8 6 14 24 14 40 0 16 5 29 10 29 6 0 10 8 10 18 0 11 -7 18 -21 18 -18 0
-20 -5 -14 -33z"/>
<path d="M4025 2770 c4 -11 2 -20 -4 -20 -6 0 -11 -10 -11 -23 0 -13 -5 -28
-11 -34 -6 -6 -9 -17 -7 -23 3 -9 9 -8 21 4 9 10 21 14 27 11 12 -7 12 2 1 30
-5 11 -4 25 1 32 12 15 4 43 -12 43 -7 0 -9 -8 -5 -20z"/>
<path d="M4060 2771 c0 -11 5 -23 10 -26 11 -7 9 -90 -3 -101 -13 -13 -7 -22
11 -17 14 3 17 12 14 39 -3 26 1 39 14 49 18 13 18 14 -3 35 -13 11 -23 25
-23 30 0 6 -4 10 -10 10 -5 0 -10 -9 -10 -19z"/>
<path d="M745 2768 c-8 -21 0 -48 15 -48 12 0 12 17 0 45 -7 18 -8 19 -15 3z"/>
<path d="M3860 2746 c0 -8 5 -18 10 -21 6 -3 10 1 10 9 0 8 -4 18 -10 21 -5 3
-10 -1 -10 -9z"/>
<path d="M1060 2735 c0 -8 8 -11 20 -8 11 3 20 7 20 8 0 1 -9 5 -20 8 -12 3
-20 0 -20 -8z"/>
<path d="M916 2725 c-3 -9 0 -15 9 -15 8 0 15 7 15 15 0 8 -4 15 -9 15 -5 0
-11 -7 -15 -15z"/>
<path d="M983 2733 c-13 -5 -7 -33 7 -33 11 0 21 28 12 33 -4 3 -12 2 -19 0z"/>
<path d="M3789 2727 c-9 -7 -19 -25 -23 -42 -3 -16 -3 -25 1 -20 13 16 53 36
62 31 4 -3 8 1 8 8 0 8 -9 12 -21 10 -12 -3 -15 -2 -8 2 13 6 17 24 5 24 -5 0
-15 -6 -24 -13z"/>
<path d="M785 2700 c-11 -18 3 -57 24 -63 21 -5 20 3 -5 51 -8 15 -14 19 -19
12z"/>
<path d="M1025 2699 c-4 -6 -5 -13 -2 -16 7 -7 27 6 27 18 0 12 -17 12 -25 -2z"/>
<path d="M4112 2693 c5 -26 38 -29 38 -4 0 15 -6 21 -21 21 -14 0 -19 -5 -17
-17z"/>
<path d="M1088 2683 c7 -3 16 -2 19 1 4 3 -2 6 -13 5 -11 0 -14 -3 -6 -6z"/>
<path d="M989 2668 c-1 -2 -3 -13 -4 -26 -2 -16 6 -27 25 -37 26 -14 28 -13
33 10 3 19 0 25 -14 25 -11 0 -19 7 -19 15 0 12 -16 22 -21 13z"/>
<path d="M3830 2661 c0 -5 6 -14 14 -20 11 -9 15 -8 20 5 9 23 8 24 -14 24
-11 0 -20 -4 -20 -9z"/>
<path d="M887 2653 c-4 -3 -7 -11 -7 -17 0 -6 5 -5 12 2 6 6 9 14 7 17 -3 3
-9 2 -12 -2z"/>
<path d="M3958 2655 c-10 -10 5 -75 18 -75 8 0 14 6 14 14 0 18 -26 67 -32 61z"/>
<path d="M4016 2620 c-10 -31 -15 -95 -7 -81 7 11 10 11 17 -1 10 -17 62 -29
70 -17 9 16 23 9 26 -13 2 -12 9 -23 16 -26 8 -2 12 10 12 40 0 46 -14 55 -49
34 -8 -5 -17 -3 -22 5 -7 11 -9 10 -9 -4 0 -16 -2 -16 -25 -1 -19 12 -22 20
-16 33 6 10 6 23 1 31 -8 12 -10 12 -14 0z"/>
<path d="M4117 2623 c-4 -3 -7 -13 -7 -22 1 -13 3 -13 11 2 11 19 8 33 -4 20z"/>
<path d="M989 2566 c9 -11 9 -15 0 -18 -9 -3 -5 -14 10 -35 13 -17 21 -36 17
-41 -8 -14 18 -22 35 -11 11 7 11 11 1 17 -7 5 -10 16 -7 25 4 10 -1 20 -14
27 -12 6 -21 20 -21 30 0 12 -7 20 -16 20 -13 0 -14 -3 -5 -14z"/>
<path d="M1204 2558 c3 -13 6 -31 6 -41 0 -10 5 -15 10 -12 6 3 10 22 10 41 0
25 -4 34 -16 34 -12 0 -15 -6 -10 -22z"/>
<path d="M2787 2573 c-12 -11 -8 -23 8 -23 8 0 15 7 15 15 0 16 -12 20 -23 8z"/>
<path d="M1052 2555 c-11 -13 -9 -17 13 -25 15 -6 29 -10 32 -10 3 0 11 -7 18
-17 10 -13 11 -11 7 15 -2 18 -10 32 -18 32 -8 0 -14 5 -14 10 0 15 -23 11
-38 -5z"/>
<path d="M1136 2562 c-3 -6 -1 -14 5 -17 15 -10 25 3 12 16 -7 7 -13 7 -17 1z"/>
<path d="M1171 2454 c0 -11 3 -14 6 -6 3 7 2 16 -1 19 -3 4 -6 -2 -5 -13z"/>
<path d="M2720 2460 c0 -5 4 -10 9 -10 6 0 13 5 16 10 3 6 -1 10 -9 10 -9 0
-16 -4 -16 -10z"/>
<path d="M4128 2445 c-15 -19 -15 -25 -3 -41 12 -17 14 -17 20 -2 4 9 5 28 3
41 l-3 25 -17 -23z"/>
<path d="M1210 2439 c0 -7 -12 -23 -26 -36 -14 -13 -23 -27 -20 -31 4 -3 11 0
16 7 4 8 15 11 24 8 13 -5 16 1 16 28 0 19 -2 35 -5 35 -3 0 -5 -5 -5 -11z"/>
<path d="M1058 2423 c7 -3 16 -2 19 1 4 3 -2 6 -13 5 -11 0 -14 -3 -6 -6z"/>
<path d="M940 2409 c0 -5 5 -7 10 -4 6 3 10 8 10 11 0 2 -4 4 -10 4 -5 0 -10
-5 -10 -11z"/>
<path d="M830 2345 c0 -8 5 -15 10 -15 6 0 10 7 10 15 0 8 -4 15 -10 15 -5 0
-10 -7 -10 -15z"/>
<path d="M1080 2310 c8 -5 20 -10 25 -10 6 0 3 5 -5 10 -8 5 -19 10 -25 10 -5
0 -3 -5 5 -10z"/>
<path d="M890 2299 c0 -5 5 -7 10 -4 6 3 10 8 10 11 0 2 -4 4 -10 4 -5 0 -10
-5 -10 -11z"/>
<path d="M2515 2220 c3 -5 13 -10 21 -10 8 0 14 5 14 10 0 6 -9 10 -21 10 -11
0 -17 -4 -14 -10z"/>
<path d="M3070 2110 c-22 -22 -26 -40 -9 -40 5 0 7 5 4 10 -3 6 0 10 7 10 7 0
19 9 26 20 7 12 8 20 2 20 -5 0 -19 -9 -30 -20z"/>
<path d="M1617 2059 c-10 -6 -25 -8 -33 -5 -18 7 -18 -4 2 -32 8 -12 24 -22
34 -22 10 0 21 -4 25 -9 3 -5 31 -15 63 -22 31 -7 62 -17 67 -24 6 -7 20 -15
33 -19 16 -6 22 -3 22 8 0 22 29 20 37 -1 10 -30 45 -63 67 -63 11 0 30 10 43
22 13 12 23 16 23 10 0 -7 14 -12 30 -12 25 0 30 -4 30 -24 0 -23 0 -23 35 -8
57 26 42 53 -45 85 -16 6 20 11 53 8 27 -3 20 25 -10 38 -104 41 -192 61 -314
70 -156 13 -140 13 -162 0z m308 -79 c3 -5 17 -10 29 -10 13 0 29 -6 35 -14
11 -13 7 -13 -26 -5 -38 11 -79 39 -56 39 7 0 15 -4 18 -10z"/>
<path d="M3016 2021 c-4 -5 -2 -21 4 -36 13 -34 13 -35 -5 -35 -8 0 -15 7 -15
16 0 9 -5 12 -11 8 -13 -7 -6 -81 8 -95 5 -5 24 -6 41 -3 24 5 32 12 32 28 0
12 -6 28 -12 35 -11 10 -9 15 6 27 11 8 26 14 33 14 25 0 13 16 -25 33 -45 20
-49 20 -56 8z"/>
<path d="M2975 1790 c-21 -14 -25 -20 -13 -20 23 0 68 21 68 32 0 14 -24 9
-55 -12z"/>
<path d="M2890 1719 c0 -5 5 -7 10 -4 6 3 10 8 10 11 0 2 -4 4 -10 4 -5 0 -10
-5 -10 -11z"/>
<path d="M2837 1610 c-3 -11 -1 -20 4 -20 5 0 9 9 9 20 0 11 -2 20 -4 20 -2 0
-6 -9 -9 -20z"/>
<path d="M1610 1220 c0 -5 8 -10 18 -10 10 0 22 -4 28 -10 16 -16 166 -53 209
-51 76 4 59 23 -23 27 -31 1 -92 14 -135 28 -86 29 -97 31 -97 16z"/>
<path d="M2811 1164 c0 -11 3 -14 6 -6 3 7 2 16 -1 19 -3 4 -6 -2 -5 -13z"/>
<path d="M1720 1102 c0 -22 90 -36 115 -18 19 14 18 15 -15 15 -19 -1 -50 2
-67 6 -21 5 -33 3 -33 -3z"/>
<path d="M2732 778 c6 -18 25 -20 31 -3 5 10 0 15 -14 15 -12 0 -19 -5 -17
-12z"/>
<path d="M2510 755 c-15 -18 -5 -35 23 -35 30 0 51 15 45 32 -8 18 -53 21 -68
3z"/>
<path d="M638 679 c-10 -5 -18 -16 -18 -24 0 -11 6 -12 25 -5 21 8 25 7 25 -8
0 -15 2 -15 10 -2 6 10 6 16 0 18 -6 2 -10 10 -10 18 0 16 -8 17 -32 3z"/>
<path d="M581 661 c-6 -10 -7 -21 -4 -25 12 -12 18 -6 18 19 0 30 -1 31 -14 6z"/>
<path d="M244 642 c-18 -12 -26 -45 -12 -54 11 -6 11 -10 0 -16 -7 -5 -10 -16
-6 -25 7 -19 20 -22 29 -7 5 7 11 8 19 1 8 -7 15 -4 24 9 15 25 -3 37 -24 16
-21 -22 -22 -21 -20 23 0 22 4 37 8 35 4 -3 5 2 2 10 -7 18 -6 18 -20 8z"/>
<path d="M400 595 c-7 -9 -8 -15 -2 -15 5 0 12 7 16 15 3 8 4 15 2 15 -2 0 -9
-7 -16 -15z"/>
<path d="M449 598 c-4 -13 -5 -55 -2 -61 3 -4 13 2 24 14 14 17 16 25 8 36
-10 11 -27 18 -30 11z"/>
<path d="M187 575 c6 -17 25 -15 31 3 2 7 -5 12 -17 12 -14 0 -19 -5 -14 -15z"/>
<path d="M565 543 c3 -41 4 -45 13 -39 5 3 8 15 6 28 -1 13 -3 26 -3 31 -1 4
-5 7 -10 7 -4 0 -7 -12 -6 -27z"/>
<path d="M180 530 c0 -11 6 -20 14 -20 21 0 31 21 15 31 -22 14 -29 11 -29
-11z"/>
<path d="M2200 510 c-35 -35 -18 -89 37 -115 39 -19 68 -13 89 20 21 32 9 70
-31 95 -41 25 -70 25 -95 0z"/>
<path d="M390 493 c-14 -14 -20 -23 -14 -19 7 3 15 -1 18 -10 8 -21 35 -1 31
24 -1 9 0 11 2 5 3 -7 9 -13 14 -13 6 0 8 -4 5 -8 -2 -4 -1 -14 5 -22 7 -13 9
-12 9 3 0 14 9 17 46 17 27 0 43 4 39 10 -3 6 -18 10 -33 10 -15 1 -38 7 -52
15 -34 19 -41 18 -70 -12z"/>
<path d="M251 484 c0 -11 3 -14 6 -6 3 7 2 16 -1 19 -3 4 -6 -2 -5 -13z"/>
<path d="M310 460 c-10 -24 -19 -30 -42 -30 -25 0 -28 -3 -23 -20 4 -12 2 -20
-5 -20 -6 0 -9 -8 -6 -18 6 -18 -30 -49 -42 -37 -4 3 -1 10 6 14 18 11 4 40
-17 34 -14 -3 -17 -16 -16 -71 0 -62 2 -67 25 -73 49 -14 58 -10 65 24 4 17
12 35 18 39 6 4 8 10 4 14 -3 4 -13 2 -20 -5 -11 -9 -17 -7 -28 6 -12 15 -12
16 4 10 9 -3 17 -2 17 3 0 6 3 9 8 9 4 -1 12 0 17 1 6 1 19 3 29 4 11 0 21 7
24 15 4 11 -2 13 -27 8 -23 -5 -31 -3 -31 8 0 13 8 15 71 16 18 0 30 8 37 24
10 21 8 28 -14 50 -32 32 -39 32 -54 -5z"/>
<path d="M565 439 c-12 -19 5 -23 22 -6 16 16 16 17 1 17 -9 0 -20 -5 -23 -11z"/>
<path d="M493 433 c-13 -2 -23 -11 -23 -19 0 -8 -4 -12 -10 -9 -5 3 -10 1 -10
-4 0 -6 -4 -11 -10 -11 -5 0 -10 7 -10 15 0 8 -4 15 -9 15 -17 0 -26 -24 -26
-65 0 -39 -1 -40 -32 -39 -27 2 -33 -2 -33 -17 0 -11 11 -31 25 -45 26 -26 33
-40 14 -28 -6 3 -16 0 -21 -7 -8 -11 -9 -10 -4 4 10 33 -4 17 -28 -32 -14 -26
-39 -60 -56 -74 -38 -32 -38 -53 0 -75 16 -9 30 -23 30 -29 0 -15 16 -17 24
-4 3 4 -7 18 -23 30 -20 15 -27 28 -24 42 3 10 9 19 14 19 5 0 6 -8 2 -17 -6
-16 -4 -16 15 1 12 11 36 19 52 19 18 0 29 5 27 11 -2 6 -14 10 -26 9 -16 -2
-21 3 -21 21 0 18 8 27 29 34 16 6 31 8 34 6 2 -3 2 7 0 21 -3 15 -1 25 6 25
6 0 11 -7 11 -15 0 -18 2 -18 34 -3 35 15 40 40 17 81 -16 29 -17 36 -5 41 8
3 14 10 14 16 0 6 -4 8 -10 5 -12 -8 -13 5 -1 24 7 11 13 11 32 0 20 -11 21
-14 7 -17 -19 -4 -15 -24 11 -58 13 -16 19 -18 28 -9 19 20 25 55 13 70 -10
12 -9 15 8 15 15 0 20 5 16 15 -4 8 -12 15 -19 15 -7 0 -15 7 -19 15 -3 8 -9
14 -13 14 -4 -1 -18 -4 -30 -6z m42 -93 c3 -5 1 -10 -4 -10 -6 0 -11 5 -11 10
0 6 2 10 4 10 3 0 8 -4 11 -10z m-105 -21 c0 -5 -4 -9 -10 -9 -5 0 -10 7 -10
16 0 8 5 12 10 9 6 -3 10 -10 10 -16z m15 -59 c3 -5 1 -10 -4 -10 -6 0 -11 5
-11 10 0 6 2 10 4 10 3 0 8 -4 11 -10z"/>
<path d="M353 365 c-17 -19 -16 -22 7 -35 18 -10 20 -8 20 20 0 33 -8 37 -27
15z"/>
<path d="M277 249 c-3 -12 -2 -31 3 -42 8 -21 8 -21 19 6 6 16 11 35 11 43 0
22 -27 17 -33 -7z"/>
<path d="M524 262 c-11 -7 -12 -78 -1 -89 11 -11 16 1 22 50 6 46 1 54 -21 39z"/>
<path d="M218 174 c-3 -21 -5 -40 -4 -41 1 -1 12 6 24 16 23 17 23 17 4 41
l-19 24 -5 -40z"/>
<path d="M470 200 c0 -5 7 -10 15 -10 8 0 15 5 15 10 0 6 -7 10 -15 10 -8 0
-15 -4 -15 -10z"/>
<path d="M457 150 c-4 -17 -2 -20 15 -14 17 5 19 3 13 -17 -7 -21 -6 -22 9
-10 24 20 21 55 -4 48 -11 -3 -18 -1 -14 4 3 5 1 9 -4 9 -5 0 -12 -9 -15 -20z"/>
<path d="M409 131 c20 -13 -19 -54 -42 -45 -12 4 -17 1 -17 -11 0 -10 -7 -23
-16 -29 -8 -6 -12 -18 -9 -27 4 -11 24 -15 84 -15 79 -1 79 -1 48 15 -22 11
-32 23 -31 39 0 12 -3 22 -8 22 -5 0 -6 5 -3 10 4 7 13 7 26 0 22 -13 26 2 4
20 -8 7 -12 16 -9 21 3 5 -5 9 -18 9 -17 0 -19 -3 -9 -9z"/>
<path d="M491 66 l-22 -24 34 -21 c45 -27 57 -27 57 4 0 14 -4 25 -9 25 -5 0
-13 9 -16 20 -8 26 -17 25 -44 -4z"/>
<path d="M550 70 c0 -5 5 -10 10 -10 6 0 10 5 10 10 0 6 -4 10 -10 10 -5 0
-10 -4 -10 -10z"/>
<path d="M11 43 c-6 -11 -4 -21 4 -30 21 -20 35 -16 35 11 0 29 -26 42 -39 19z"/>
<path d="M128 3 c6 -2 18 -2 25 0 6 3 1 5 -13 5 -14 0 -19 -2 -12 -5z"/>
</g>
</svg>
